<svg width="36" height="36" viewBox="0 0 36 36" fill="none" xmlns="http://www.w3.org/2000/svg">
<path opacity="0.5" d="M33 21V17.697C33 13.749 33 11.7735 31.845 10.491C31.7391 10.3726 31.6269 10.26 31.509 10.1535C30.2265 9 28.251 9 24.303 9H23.742C22.0125 9 21.147 9 20.34 8.7705C19.8971 8.64391 19.4703 8.46674 19.068 8.2425C18.336 7.836 17.724 7.2225 16.5 6L15.675 5.175C15.264 4.764 15.06 4.56 14.844 4.38C13.915 3.60996 12.7754 3.13792 11.574 3.0255C11.295 3 11.004 3 10.425 3C9.1005 3 8.439 3 7.887 3.105C6.70176 3.32884 5.6115 3.90471 4.75846 4.75748C3.90542 5.61025 3.32921 6.70033 3.105 7.8855C3 8.439 3 9.102 3 10.425V21C3 26.6565 3 29.4855 4.758 31.242C6.5145 33 9.3435 33 15 33H21C26.6565 33 29.4855 33 31.242 31.242C33 29.4855 33 26.6565 33 21Z" fill="url(#paint0_linear_3787_40775)"/>
<path d="M21.7472 17.1599C21.97 17.358 22.1051 17.6363 22.1228 17.9339C22.1405 18.2314 22.0394 18.5239 21.8417 18.7469L17.8412 23.2469C17.7357 23.3657 17.6062 23.4607 17.4613 23.5257C17.3164 23.5908 17.1593 23.6244 17.0005 23.6244C16.8416 23.6244 16.6846 23.5908 16.5397 23.5257C16.3948 23.4607 16.2653 23.3657 16.1597 23.2469L14.1587 20.9969C13.9606 20.7738 13.8593 20.481 13.877 20.1831C13.8947 19.8852 14.03 19.6066 14.2532 19.4084C14.4764 19.2103 14.7691 19.109 15.067 19.1267C15.365 19.1444 15.6436 19.2798 15.8417 19.5029L16.9997 20.8079L20.1602 17.2529C20.3583 17.0302 20.6366 16.8951 20.9342 16.8774C21.2317 16.8596 21.5242 16.9622 21.7472 17.1599Z" fill="url(#paint1_linear_3787_40775)"/>
<defs>
<linearGradient id="paint0_linear_3787_40775" x1="3" y1="3" x2="33" y2="33" gradientUnits="userSpaceOnUse">
<stop stop-color="#22C55E"/>
<stop offset="1" stop-color="#118D57"/>
</linearGradient>
<linearGradient id="paint1_linear_3787_40775" x1="13.875" y1="16.8754" x2="20.4903" y2="24.9616" gradientUnits="userSpaceOnUse">
<stop stop-color="#22C55E"/>
<stop offset="1" stop-color="#118D57"/>
</linearGradient>
</defs>
</svg>
