<svg width="36" height="36" viewBox="0 0 36 36" fill="none" xmlns="http://www.w3.org/2000/svg">
<path opacity="0.5" d="M3 12V18C3 22.242 3 24.3645 4.3185 25.6815C5.0325 26.397 5.9835 26.724 7.3785 26.874C7.491 26.724 7.596 26.6055 7.671 26.523C7.845 26.331 8.0655 26.1135 8.28 25.902L10.5195 23.694L11.346 22.857C11.6156 21.2876 12.4313 19.8641 13.6489 18.8378C14.8665 17.8116 16.4076 17.2488 18 17.2488C19.5924 17.2488 21.1335 17.8116 22.3511 18.8378C23.5687 19.8641 24.3844 21.2876 24.654 22.857L25.4805 23.694L27.72 25.902C27.9345 26.1135 28.155 26.331 28.329 26.523C28.404 26.6055 28.509 26.724 28.62 26.874C30.0165 26.724 30.9675 26.397 31.6815 25.6815C33 24.3645 33 22.242 33 18V12C33 7.758 33 5.6355 31.6815 4.3185C30.3645 3 28.242 3 24 3H12C7.758 3 5.6355 3 4.3185 4.3185C3 5.6355 3 7.758 3 12Z" fill="url(#paint0_linear_3787_40783)"/>
<path d="M10.499 13.125C10.2006 13.125 9.91444 13.2435 9.70347 13.4545C9.49249 13.6655 9.37396 13.9516 9.37396 14.25C9.37396 14.5484 9.49249 14.8345 9.70347 15.0455C9.91444 15.2565 10.2006 15.375 10.499 15.375H25.499C25.7973 15.375 26.0835 15.2565 26.2945 15.0455C26.5054 14.8345 26.624 14.5484 26.624 14.25C26.624 13.9516 26.5054 13.6655 26.2945 13.4545C26.0835 13.2435 25.7973 13.125 25.499 13.125H10.499ZM12.374 9C12.374 8.70163 12.4925 8.41548 12.7035 8.2045C12.9144 7.99353 13.2006 7.875 13.499 7.875H22.499C22.7973 7.875 23.0835 7.99353 23.2945 8.2045C23.5054 8.41548 23.624 8.70163 23.624 9C23.624 9.29837 23.5054 9.58452 23.2945 9.7955C23.0835 10.0065 22.7973 10.125 22.499 10.125H13.499C13.2006 10.125 12.9144 10.0065 12.7035 9.7955C12.4925 9.58452 12.374 9.29837 12.374 9ZM13.5005 23.8755L13.499 24C13.5011 25.1881 13.973 26.3271 14.8117 27.1686C15.6504 28.0101 16.7878 28.4858 17.9759 28.4919C19.1639 28.498 20.3062 28.034 21.1535 27.2011C22.0008 26.3683 22.4843 25.2342 22.4986 24.0462C22.5129 22.8582 22.0569 21.7127 21.2299 20.8597C20.4029 20.0067 19.2722 19.5153 18.0843 19.4928C16.8964 19.4702 15.7478 19.9184 14.8891 20.7394C14.0304 21.5605 13.5312 22.6878 13.5005 23.8755ZM11.513 25.875L9.89296 27.4725C9.40546 27.9525 9.16246 28.1925 9.07846 28.3935C8.98306 28.6093 8.97006 28.8526 9.04193 29.0773C9.1138 29.302 9.26555 29.4926 9.46846 29.613C9.65146 29.7195 9.98146 29.7525 10.643 29.82C11.015 29.8575 11.2025 29.8755 11.3585 29.9325C11.5297 29.9943 11.6854 30.0926 11.8149 30.2206C11.9444 30.3485 12.0446 30.503 12.1085 30.6735C12.167 30.828 12.1865 31.011 12.224 31.3785C12.2915 32.031 12.326 32.3565 12.434 32.538C12.56 32.7392 12.754 32.8886 12.9808 32.959C13.2076 33.0295 13.4521 33.0163 13.67 32.922C13.8755 32.838 14.12 32.5995 14.6045 32.1195L16.2245 30.5145C15.1075 30.209 14.0877 29.6217 13.2628 28.8091C12.4378 27.9965 11.8353 26.9872 11.513 25.875ZM19.772 30.5145L21.392 32.1195C21.8795 32.5995 22.1225 32.8395 22.328 32.922C22.7975 33.111 23.318 32.949 23.564 32.538C23.672 32.358 23.7065 32.031 23.774 31.38C23.8115 31.011 23.831 30.828 23.8895 30.675C23.9533 30.5043 24.0534 30.3495 24.1829 30.2213C24.3124 30.0931 24.4682 29.9946 24.6395 29.9325C24.797 29.8755 24.983 29.8575 25.355 29.82C26.015 29.7525 26.3465 29.7195 26.5295 29.613C26.7324 29.4926 26.8841 29.302 26.956 29.0773C27.0279 28.8526 27.0149 28.6093 26.9195 28.3935C26.8355 28.191 26.5925 27.951 26.1065 27.4725L24.4865 25.8735C24.1638 26.9861 23.5609 27.9971 22.7354 28.8098C21.9099 29.6224 20.8895 30.2094 19.772 30.5145Z" fill="url(#paint1_linear_3787_40783)"/>
<defs>
<linearGradient id="paint0_linear_3787_40783" x1="3" y1="3" x2="26.2645" y2="32.2341" gradientUnits="userSpaceOnUse">
<stop stop-color="#8E33FF"/>
<stop offset="1" stop-color="#5119B7"/>
</linearGradient>
<linearGradient id="paint1_linear_3787_40783" x1="8.99609" y1="7.875" x2="32.7907" y2="24.9248" gradientUnits="userSpaceOnUse">
<stop stop-color="#8E33FF"/>
<stop offset="1" stop-color="#5119B7"/>
</linearGradient>
</defs>
</svg>
