<svg width="36" height="36" viewBox="0 0 36 36" fill="none" xmlns="http://www.w3.org/2000/svg">
<path opacity="0.5" d="M24.6232 26.961C24.3096 27.9215 23.7586 28.7873 23.0212 29.478C21.9247 30.5055 20.2327 30.9585 16.8502 31.8645C13.4677 32.7705 11.7757 33.225 10.3132 32.883C9.1576 32.6135 8.10786 32.0075 7.29669 31.1415C6.26919 30.045 5.81469 28.353 4.90869 24.9705L4.13319 22.0725C3.22569 18.69 2.77269 16.998 3.11319 15.5355C3.38306 14.3797 3.98963 13.33 4.85619 12.519C5.95269 11.4915 7.64469 11.0385 11.0272 10.131C11.6662 9.95998 12.2467 9.80398 12.7747 9.66748L12.4087 11.0265L11.6332 13.9245C10.7257 17.307 10.2727 18.9975 10.6132 20.4615C10.8831 21.6172 11.4896 22.667 12.3562 23.478C13.4527 24.5055 15.1447 24.9585 18.5272 25.866C21.5752 26.682 23.2507 27.1305 24.6232 26.961Z" fill="url(#paint0_linear_3787_40767)"/>
<path fill-rule="evenodd" clip-rule="evenodd" d="M31.245 16.0725L30.468 18.9705C29.5605 22.353 29.1075 24.045 28.08 25.1415C27.2692 26.0072 26.22 26.6133 25.065 26.883C24.9195 26.9175 24.7725 26.943 24.6225 26.961C23.25 27.1305 21.5745 26.682 18.5265 25.866C15.144 24.9585 13.452 24.5055 12.3555 23.478C11.4895 22.6668 10.8834 21.6171 10.614 20.4615C10.272 18.9975 10.725 17.307 11.6325 13.9245L12.408 11.0265L12.774 9.66899C13.4565 7.16999 13.9155 5.79449 14.796 4.85399C15.607 3.98879 16.6561 3.3833 17.811 3.11399C19.275 2.77199 20.967 3.22499 24.351 4.13249C27.732 5.03849 29.424 5.49149 30.5205 6.51749C31.3868 7.32907 31.9928 8.37937 32.262 9.53549C32.604 10.9995 32.151 12.69 31.245 16.0725ZM16.578 14.7075C16.6163 14.5648 16.6823 14.431 16.7723 14.3138C16.8623 14.1966 16.9745 14.0982 17.1025 14.0244C17.2306 13.9506 17.3719 13.9027 17.5184 13.8835C17.6649 13.8643 17.8138 13.8741 17.9565 13.9125L25.2015 15.855C25.348 15.8897 25.486 15.9535 25.6074 16.0425C25.7288 16.1316 25.831 16.2441 25.9081 16.3734C25.9853 16.5027 26.0356 16.6461 26.0563 16.7953C26.0769 16.9444 26.0675 17.0961 26.0284 17.2415C25.9894 17.3869 25.9215 17.523 25.8289 17.6417C25.7363 17.7604 25.6208 17.8593 25.4893 17.9325C25.3578 18.0057 25.2129 18.0518 25.0632 18.0681C24.9136 18.0843 24.7622 18.0703 24.618 18.027L17.373 16.086C17.0851 16.0087 16.8396 15.8202 16.6906 15.562C16.5415 15.3038 16.501 14.9955 16.578 14.7075ZM15.414 19.0545C15.4913 18.7666 15.6798 18.5211 15.938 18.3721C16.1962 18.223 16.503 18.1825 16.791 18.2595L21.138 19.425C21.2852 19.459 21.424 19.5222 21.5462 19.611C21.6684 19.6998 21.7715 19.8123 21.8493 19.9417C21.9271 20.0712 21.978 20.215 21.999 20.3646C22.0201 20.5142 22.0108 20.6664 21.9717 20.8124C21.9326 20.9583 21.8645 21.0948 21.7715 21.2138C21.6785 21.3328 21.5625 21.4319 21.4304 21.5051C21.2982 21.5784 21.1527 21.6242 21.0025 21.64C20.8523 21.6558 20.7004 21.6412 20.556 21.597L16.209 20.433C16.0663 20.3947 15.9325 20.3287 15.8153 20.2387C15.6981 20.1487 15.5997 20.0365 15.5259 19.9084C15.4521 19.7804 15.4042 19.6391 15.385 19.4926C15.3658 19.3461 15.3756 19.1972 15.414 19.0545Z" fill="url(#paint1_linear_3787_40767)"/>
<defs>
<linearGradient id="paint0_linear_3787_40767" x1="3" y1="9.66748" x2="26.2622" y2="31.2285" gradientUnits="userSpaceOnUse">
<stop stop-color="#FFAB00"/>
<stop offset="1" stop-color="#B76E00"/>
</linearGradient>
<linearGradient id="paint1_linear_3787_40767" x1="10.5" y1="3" x2="34.3942" y2="24.7825" gradientUnits="userSpaceOnUse">
<stop stop-color="#FFAB00"/>
<stop offset="1" stop-color="#B76E00"/>
</linearGradient>
</defs>
</svg>
