<svg width="24" height="24" viewBox="0 0 24 24" fill="none" xmlns="http://www.w3.org/2000/svg">
<path opacity="0.32" d="M2.162 8.5C2 9.603 2 11.05 2 13C2 16.771 2 18.657 3.172 19.828C4.343 21 6.229 21 10 21H14C17.771 21 19.657 21 20.828 19.828C22 18.657 22 16.771 22 13C22 11.05 22 9.603 21.838 8.5C19.561 9.98 18.102 10.923 16.75 11.505V12C16.7511 12.0985 16.7327 12.1962 16.696 12.2876C16.6593 12.379 16.6049 12.4623 16.536 12.5327C16.3968 12.6748 16.2069 12.7559 16.008 12.758C15.8091 12.7601 15.6175 12.6831 15.4753 12.544C15.3332 12.4048 15.2521 12.2149 15.25 12.016C13.1197 12.5776 10.8803 12.5776 8.75 12.016C8.74788 12.2149 8.66683 12.4048 8.52467 12.544C8.38252 12.6831 8.19091 12.7601 7.992 12.758C7.79309 12.7559 7.60317 12.6748 7.46401 12.5327C7.32486 12.3905 7.24788 12.1989 7.25 12V11.504C5.898 10.924 4.44 9.98 2.162 8.5Z" fill="#1877F2"/>
<path fill-rule="evenodd" clip-rule="evenodd" d="M10.5811 2.24999H10.5611C10.4471 2.24999 10.3591 2.24999 10.2751 2.25499C9.75548 2.28658 9.25555 2.46498 8.83336 2.76945C8.41116 3.07392 8.08406 3.49197 7.89005 3.97499C7.84743 4.08839 7.80742 4.20276 7.77005 4.31799L7.76605 4.32999C7.6629 4.60265 7.48851 4.84265 7.26105 5.02499C7.03405 5.03299 6.81705 5.04199 6.60905 5.05499C4.96505 5.15099 3.92205 5.42099 3.17105 6.17199C2.92705 6.41599 2.73305 6.69199 2.58105 7.00999C2.63951 7.03005 2.69527 7.05726 2.74705 7.09099C4.84705 8.45599 6.16705 9.31099 7.26305 9.85799C7.29773 9.67415 7.39986 9.5099 7.54941 9.39749C7.69896 9.28507 7.88512 9.23261 8.07136 9.25039C8.2576 9.26818 8.43046 9.35493 8.55603 9.49361C8.6816 9.6323 8.7508 9.81291 8.75005 9.99999V10.458C10.8701 11.098 13.1301 11.098 15.2501 10.458V9.99999C15.2506 9.81382 15.3204 9.6345 15.4458 9.49692C15.5713 9.35933 15.7434 9.27332 15.9287 9.25561C16.114 9.2379 16.2993 9.28976 16.4486 9.4011C16.5978 9.51243 16.7003 9.67529 16.7361 9.85799C17.8331 9.30999 19.1531 8.45599 21.2531 7.09099C21.3052 7.05722 21.3613 7.03001 21.4201 7.00999C21.2719 6.69896 21.0717 6.41554 20.8281 6.17199C20.0781 5.42199 19.0351 5.15199 17.3911 5.05399C17.1941 5.04299 16.9881 5.03399 16.7731 5.02599C16.5214 4.82098 16.3271 4.55433 16.2091 4.25199L16.2051 4.24299C16.1691 4.13599 16.1411 4.05199 16.1101 3.97399C15.9159 3.49116 15.5887 3.07332 15.1665 2.76903C14.7444 2.46474 14.2445 2.28649 13.7251 2.25499C13.6298 2.2505 13.5344 2.24883 13.4391 2.24999H10.5811ZM14.8181 4.81599L14.8131 4.80499L14.8081 4.79299L14.8031 4.78099L14.8001 4.77099L14.7981 4.76599L14.7941 4.75399L14.7901 4.74199L14.7881 4.73599L14.7851 4.72799L14.7831 4.72099L14.7811 4.71499C14.7616 4.65414 14.7406 4.59378 14.7181 4.53399C14.6299 4.31442 14.4812 4.12437 14.2894 3.98594C14.0975 3.84751 13.8702 3.76638 13.6341 3.75199C13.5624 3.74949 13.4907 3.74882 13.4191 3.74999H10.5811C10.4381 3.74999 10.3981 3.74999 10.3661 3.75199C10.1299 3.76638 9.90264 3.84751 9.71075 3.98594C9.51886 4.12437 9.3702 4.31442 9.28205 4.53399L9.27905 4.54099L9.27105 4.56199C9.24337 4.63808 9.21736 4.71476 9.19305 4.79199L9.19205 4.79799L9.18905 4.80499L9.18705 4.81299L9.18505 4.81899L9.18105 4.83099L9.17605 4.84299L9.17505 4.84799L9.17105 4.85799L9.16605 4.86999L9.16205 4.88199L9.15705 4.89199C9.14312 4.92829 9.12845 4.9653 9.11305 5.00099L10.0001 4.99999H14.8961C14.8677 4.93955 14.8423 4.87818 14.8181 4.81599Z" fill="#1877F2"/>
</svg>
