<svg width="24" height="24" viewBox="0 0 24 24" fill="none" xmlns="http://www.w3.org/2000/svg">
<path opacity="0.32" d="M22 10.5C22 13.2057 21.9268 15.3258 21.8596 16.7017C21.8139 17.6384 20.9066 18.3109 19.9771 18.1857C18.4531 17.9803 15.8791 17.75 12 17.75C8.1209 17.75 5.54695 17.9803 4.02285 18.1857C3.09341 18.3109 2.18614 17.6384 2.14039 16.7017C2.07321 15.3258 2 13.2057 2 10.5C2 7.79424 2.07321 5.67414 2.14039 4.29826C2.18614 3.36153 3.09341 2.68906 4.02285 2.8143C5.54695 3.01967 8.1209 3.24999 12 3.24999C15.8791 3.24999 18.4531 3.01967 19.9771 2.8143C20.9066 2.68906 21.8139 3.36153 21.8596 4.29826C21.9268 5.67414 22 7.79424 22 10.5Z" fill="#1877F2"/>
<path d="M5.59096 18.0096C5.28385 18.7424 4.94579 19.6105 4.65668 20.5C4.5685 20.7713 4.73269 21.0577 5.01662 21.0852C5.48092 21.1304 5.97612 21.1092 6.35562 21.0766C6.76872 21.0412 7.13172 20.805 7.35657 20.4566C7.94702 19.542 8.51881 18.5894 8.97868 17.8008C7.63073 17.8483 6.50815 17.9246 5.59096 18.0096Z" fill="#1877F2"/>
<path d="M15.022 17.8008C15.4818 18.5894 16.0536 19.542 16.6441 20.4566C16.8689 20.805 17.2319 21.0412 17.645 21.0766C18.0245 21.1092 18.5197 21.1304 18.984 21.0852C19.268 21.0577 19.4321 20.7713 19.344 20.5C19.0549 19.6106 18.7168 18.7424 18.4097 18.0097C17.4925 17.9246 16.37 17.8484 15.022 17.8008Z" fill="#1877F2"/>
</svg>
