<svg xmlns="http://www.w3.org/2000/svg" viewBox="0 0 24 24"><path fill="currentColor" d="M20 2H10a3 3 0 0 0-3 3v7a3 3 0 0 0 3 3h10a3 3 0 0 0 3-3V5a3 3 0 0 0-3-3m1 10a1 1 0 0 1-1 1H10a1 1 0 0 1-1-1V5a1 1 0 0 1 1-1h10a1 1 0 0 1 1 1Zm-3.5-4a1.49 1.49 0 0 0-1 .39a1.5 1.5 0 1 0 0 2.22a1.5 1.5 0 1 0 1-2.61M16 17a1 1 0 0 0-1 1v1a1 1 0 0 1-1 1H4a1 1 0 0 1-1-1v-4h1a1 1 0 0 0 0-2H3v-1a1 1 0 0 1 1-1a1 1 0 0 0 0-2a3 3 0 0 0-3 3v7a3 3 0 0 0 3 3h10a3 3 0 0 0 3-3v-1a1 1 0 0 0-1-1M6 18h1a1 1 0 0 0 0-2H6a1 1 0 0 0 0 2"/></svg>