<svg xmlns="http://www.w3.org/2000/svg" viewBox="0 0 24 24"><path fill="none" stroke="currentColor" stroke-linecap="round" stroke-linejoin="round" stroke-width="1.5" d="M2 12c0-3.537 0-5.306 1.053-6.487q.253-.284.554-.522C4.862 4 6.741 4 10.5 4h3c3.759 0 5.638 0 6.892.99q.302.24.555.523C22 6.693 22 8.463 22 12s0 5.306-1.053 6.487a4.4 4.4 0 0 1-.555.522C19.138 20 17.26 20 13.5 20h-3c-3.759 0-5.638 0-6.893-.99a4.4 4.4 0 0 1-.554-.523C2 17.307 2 15.537 2 12m8 4h1.5m3 0H18M2 9h20" color="currentColor"/></svg>