<svg xmlns="http://www.w3.org/2000/svg" viewBox="0 0 24 24"><path fill="none" stroke="currentColor" stroke-linecap="round" stroke-linejoin="round" stroke-width="1.5" d="M7 22v-9.602c0-1.068 0-1.602.245-2.05c.244-.448.693-.737 1.592-1.315l2.082-1.338c.525-.337.787-.506 1.081-.506s.556.169 1.082.506l2.081 1.338c.899.578 1.348.867 1.592 1.315c.245.448.245.982.245 2.05V22m-5-9h.009M21 22v-5.838c0-2.291-1.26-2.477-4-3.162M3 22v-5.838C3 13.871 4.26 13.685 7 13m-5 9h20m-10 0v-4m0-11V4.982m0 0V2.97c0-.474 0-.711.146-.858c.46-.463 2.354.631 3.074 1.075c.608.374.78 1.122.78 1.795z" color="currentColor"/></svg>