<svg width="24" height="24" viewBox="0 0 24 24" fill="none" xmlns="http://www.w3.org/2000/svg">
<path d="M8.33317 23C10.3572 23 11.9998 21.3573 11.9998 19.3333V15.6666H8.33317C6.30917 15.6666 4.6665 17.3093 4.6665 19.3333C4.6665 21.3573 6.30917 23 8.33317 23Z" fill="#0ACF83"/>
<path d="M4.6665 12C4.6665 9.97604 6.30917 8.33337 8.33317 8.33337H11.9998V15.6667H8.33317C6.30917 15.6667 4.6665 14.024 4.6665 12Z" fill="#A259FF"/>
<path d="M4.6665 4.66667C4.6665 2.64267 6.30917 1 8.33317 1H11.9998V8.33333H8.33317C6.30917 8.33333 4.6665 6.69067 4.6665 4.66667Z" fill="#F24E1E"/>
<path d="M12 1H15.6667C17.6907 1 19.3333 2.64267 19.3333 4.66667C19.3333 6.69067 17.6907 8.33333 15.6667 8.33333H12V1Z" fill="#FF7262"/>
<path d="M19.3333 12C19.3333 14.024 17.6907 15.6667 15.6667 15.6667C13.6427 15.6667 12 14.024 12 12C12 9.97604 13.6427 8.33337 15.6667 8.33337C17.6907 8.33337 19.3333 9.97604 19.3333 12Z" fill="#1ABCFE"/>
</svg>
