<svg width="24" height="24" viewBox="0 0 24 24" fill="none" xmlns="http://www.w3.org/2000/svg">
<path fill-rule="evenodd" clip-rule="evenodd" d="M19.4059 15.4135C19.4972 15.3611 19.573 15.2856 19.6259 15.1947C19.6788 15.1036 19.7068 15.0003 19.7071 14.8951L19.7179 11.4228C19.7182 11.3176 19.7462 11.2143 19.7991 11.1233C19.852 11.0323 19.9278 10.9568 20.0191 10.9044L21.9014 9.82317C21.9926 9.77075 22.096 9.74332 22.2012 9.74346C22.3064 9.74368 22.4097 9.77147 22.5007 9.82417C22.5918 9.87688 22.6674 9.95255 22.7199 10.0437C22.7725 10.1349 22.8002 10.2382 22.8002 10.3434V16.6562C22.8002 16.7617 22.7723 16.8654 22.7194 16.9567C22.6666 17.0481 22.5905 17.1238 22.499 17.1764L15.3954 21.2565C15.3046 21.3086 15.2019 21.3361 15.0973 21.3361C14.9927 21.3362 14.8898 21.309 14.799 21.2571L9.22422 18.0686C9.13235 18.0161 9.05603 17.9403 9.00296 17.8489C8.94982 17.7574 8.92182 17.6535 8.92182 17.5478V14.3647C8.92182 14.3611 8.92599 14.3587 8.92959 14.3605C8.93262 14.3623 8.93679 14.3605 8.93679 14.3563V14.3527C8.93679 14.3503 8.93802 14.3479 8.94039 14.3467L13.5317 11.709C13.5359 11.7066 13.5341 11.7 13.5294 11.7L13.5259 11.6986L13.5245 11.6952L13.5335 8.57451C13.534 8.46903 13.5065 8.36527 13.4541 8.27368C13.4016 8.18217 13.3258 8.10606 13.2346 8.05314C13.1433 8.00015 13.0396 7.97221 12.9341 7.97214C12.8286 7.972 12.7249 7.99979 12.6335 8.05249L9.2212 10.0188C9.13012 10.0712 9.02687 10.0988 8.92182 10.0988C8.81669 10.0988 8.71344 10.0712 8.62243 10.0188L5.19931 8.04774C5.10811 7.99518 5.00471 7.9676 4.89947 7.96768C4.79423 7.96775 4.69087 7.99554 4.59975 8.04817C4.50863 8.10081 4.43295 8.17648 4.38032 8.26764C4.32769 8.35872 4.29994 8.46211 4.29988 8.56731V14.2075C4.29995 14.3126 4.2724 14.4159 4.21999 14.507C4.16758 14.5982 4.09215 14.6739 4.00124 14.7267C3.91035 14.7796 3.80717 14.8075 3.70204 14.8079C3.59692 14.8083 3.49354 14.7811 3.40226 14.7289L1.5026 13.6429C1.41059 13.5903 1.33414 13.5143 1.28102 13.4226C1.22791 13.331 1.20002 13.2268 1.2002 13.1209L1.217 3.26259C1.21723 3.1575 1.24505 3.0543 1.2977 2.96334C1.35034 2.87238 1.42596 2.79684 1.51697 2.74429C1.60798 2.69173 1.71121 2.664 1.8163 2.66388C1.92139 2.66376 2.02468 2.69124 2.11582 2.74358L8.62301 6.48108C8.71395 6.5333 8.81698 6.56078 8.92182 6.56078C9.02665 6.56078 9.12969 6.5333 9.22062 6.48108L15.726 2.74358C15.8172 2.69116 15.9207 2.66368 16.026 2.66388C16.1312 2.66409 16.2346 2.69197 16.3256 2.74474C16.4167 2.79751 16.4922 2.8733 16.5448 2.96451C16.5973 3.05572 16.6249 3.15914 16.6248 3.26439V13.125C16.6249 13.2305 16.5971 13.3342 16.5443 13.4255C16.4915 13.5169 16.4156 13.5926 16.3242 13.6452L12.9173 15.6073C12.8258 15.6601 12.7499 15.736 12.6971 15.8276C12.6444 15.9191 12.6167 16.0229 12.617 16.1285C12.6172 16.2342 12.6453 16.3378 12.6985 16.4291C12.7517 16.5204 12.828 16.596 12.9197 16.6484L14.799 17.7182C14.8898 17.7699 14.9925 17.797 15.0971 17.7967C15.2015 17.7966 15.3041 17.7691 15.3948 17.717L19.4059 15.4135ZM19.8001 6.56808C19.8002 6.6742 19.8284 6.77838 19.8819 6.87003C19.9354 6.96166 20.0122 7.03748 20.1045 7.08976C20.1969 7.14203 20.3014 7.16889 20.4076 7.16759C20.5136 7.16629 20.6175 7.13684 20.7085 7.08227L22.5086 6.00227C22.5974 5.94902 22.671 5.87367 22.7221 5.78356C22.7732 5.69345 22.8001 5.59165 22.8002 5.48805V3.28719C22.8 3.18114 22.7717 3.07702 22.7182 2.98546C22.6646 2.89389 22.5878 2.81815 22.4955 2.76595C22.4032 2.71376 22.2986 2.68696 22.1926 2.6883C22.0865 2.68964 21.9828 2.71906 21.8917 2.77358L20.0917 3.85361C20.0028 3.90686 19.9293 3.9822 19.8782 4.07231C19.8271 4.16242 19.8002 4.26423 19.8001 4.36782V6.56808Z" fill="#007FFF"/>
</svg>
