<svg width="24" height="24" viewBox="0 0 24 24" fill="none" xmlns="http://www.w3.org/2000/svg">
<path d="M11.2928 1.20571C11.2464 1.20992 11.0985 1.22471 10.9655 1.23519C7.8981 1.51174 5.02485 3.16692 3.20499 5.71082C2.19177 7.12531 1.54354 8.72974 1.29874 10.4293C1.21224 11.0226 1.20166 11.1978 1.20166 12.0021C1.20166 12.8065 1.21224 12.9817 1.29885 13.5749C1.88563 17.6304 4.77163 21.0378 8.68563 22.3003C9.38656 22.5262 10.1254 22.6803 10.9656 22.7731C11.2929 22.809 12.7073 22.809 13.0346 22.7731C14.4849 22.6127 15.7136 22.2538 16.9254 21.6352C17.1111 21.5403 17.1471 21.5149 17.1217 21.4938C17.1049 21.4811 16.3131 20.4192 15.3632 19.1357L13.6363 16.8029L11.4723 13.6003C10.2816 11.8396 9.30212 10.3997 9.29358 10.3997C9.28516 10.3977 9.27674 11.8206 9.27253 13.5581C9.26616 16.6002 9.2641 16.7226 9.2261 16.7943C9.17124 16.8978 9.12902 16.94 9.04025 16.9866C8.97276 17.0203 8.91359 17.0266 8.59482 17.0266H8.22961L8.13243 16.9654C8.07226 16.9277 8.02339 16.8745 7.99097 16.8113L7.94669 16.7163L7.95101 12.4835L7.95728 8.24856L8.02272 8.16617C8.05652 8.1219 8.12832 8.06488 8.17897 8.03745C8.26546 7.99523 8.29926 7.99102 8.66447 7.99102C9.09522 7.99102 9.16692 8.00787 9.2789 8.13032C9.31054 8.16412 10.4822 9.92902 11.884 12.0549C13.3032 14.2067 14.7233 16.3579 16.1442 18.5086L17.8543 21.099L17.9409 21.042C18.7071 20.5438 19.5179 19.8344 20.1596 19.0955C21.5255 17.5269 22.4059 15.6143 22.7015 13.5749C22.788 12.9817 22.7986 12.8065 22.7986 12.0021C22.7986 11.1978 22.788 11.0226 22.7015 10.4293C22.1146 6.37385 19.2286 2.9665 15.3146 1.70406C14.6242 1.4802 13.8896 1.32611 13.0662 1.23324C12.8636 1.21208 11.4681 1.18897 11.2929 1.20582M15.7136 7.73769C15.8149 7.78833 15.8973 7.88541 15.9269 7.9867C15.9437 8.04167 15.9479 9.21546 15.9437 11.8606L15.9373 15.6565L15.2682 14.6304L14.5968 13.6045V10.8453C14.5968 9.06136 14.6052 8.05851 14.6179 8.00992C14.6517 7.89178 14.7255 7.79892 14.8269 7.74395C14.9134 7.69968 14.9452 7.69536 15.2766 7.69536C15.5891 7.69536 15.6439 7.69968 15.7136 7.73769Z" fill="black"/>
</svg>
