<svg width="24" height="24" viewBox="0 0 24 24" fill="none" xmlns="http://www.w3.org/2000/svg">
<path d="M18.9597 8.61994C18.7298 8.54107 18.498 8.46801 18.2644 8.40082C18.3037 8.2405 18.3398 8.08213 18.3719 7.92654C18.8982 5.37158 18.5541 3.31326 17.3788 2.63556C16.252 1.98587 14.4092 2.66332 12.548 4.28306C12.3646 4.44298 12.1853 4.60751 12.0102 4.77649C11.8929 4.66412 11.7736 4.55394 11.6523 4.44599C9.70174 2.71411 7.7466 1.98418 6.5726 2.66382C5.44679 3.31553 5.11342 5.25051 5.58727 7.6719C5.63442 7.91171 5.68765 8.15029 5.74691 8.3874C5.47016 8.46604 5.20311 8.54974 4.94754 8.63884C2.66064 9.43618 1.2002 10.6857 1.2002 11.9818C1.2002 13.3204 2.76805 14.663 5.14996 15.4772C5.34306 15.5429 5.53778 15.6038 5.73392 15.6599C5.67022 15.9152 5.61366 16.1723 5.56432 16.4309C5.11258 18.8102 5.46535 20.6995 6.58813 21.3471C7.74778 22.0158 9.69414 21.3285 11.5893 19.6718C11.743 19.5371 11.8933 19.3986 12.04 19.2564C12.2297 19.4394 12.4244 19.617 12.6239 19.7892C14.4597 21.3688 16.2728 22.0067 17.3945 21.3574C18.553 20.6867 18.9296 18.6571 18.4407 16.1879C18.4022 15.9944 18.359 15.8019 18.3112 15.6106C18.4479 15.5701 18.582 15.5284 18.7128 15.485C21.1891 14.6646 22.8002 13.3383 22.8002 11.9818C22.8002 10.681 21.2926 9.42302 18.9597 8.61994ZM18.4227 14.6092C18.3045 14.6483 18.1834 14.686 18.0598 14.7227C17.7865 13.8573 17.4176 12.9371 16.9661 11.9862C17.3969 11.0581 17.7516 10.1497 18.0173 9.28988C18.2383 9.35383 18.4527 9.42125 18.6594 9.49238C20.6583 10.1805 21.8775 11.1978 21.8775 11.9818C21.8775 12.8168 20.5607 13.9007 18.4227 14.6092ZM17.5355 16.3671C17.7517 17.4589 17.7825 18.4461 17.6393 19.2179C17.5107 19.9113 17.252 20.3736 16.9321 20.5588C16.2514 20.9529 14.7957 20.4407 13.2257 19.0897C13.0401 18.9297 12.859 18.7645 12.6826 18.5944C13.2913 17.9288 13.8996 17.155 14.4932 16.2955C15.5374 16.2029 16.524 16.0514 17.4186 15.8445C17.4617 16.0178 17.5007 16.192 17.5355 16.3671ZM8.56411 20.4907C7.89906 20.7256 7.36936 20.7323 7.04915 20.5477C6.36783 20.1548 6.08458 18.6378 6.47093 16.603C6.51686 16.3625 6.56945 16.1234 6.62863 15.8859C7.51339 16.0816 8.49273 16.2224 9.5394 16.3073C10.1371 17.1482 10.7629 17.9212 11.3936 18.598C11.2596 18.7277 11.1224 18.8541 10.9821 18.9771C10.144 19.7096 9.30425 20.2293 8.56411 20.4907ZM5.44848 14.6041C4.39522 14.244 3.5254 13.7762 2.92921 13.2656C2.39343 12.8069 2.123 12.3513 2.123 11.9818C2.123 11.1952 3.29556 10.192 5.25129 9.51018C5.48864 9.42749 5.73704 9.34944 5.9948 9.27621C6.26514 10.1554 6.61969 11.0747 7.04755 12.0042C6.61412 12.9475 6.25451 13.8815 5.98156 14.771C5.80252 14.7198 5.62478 14.6641 5.44848 14.6041ZM6.49287 7.49463C6.08694 5.4201 6.35652 3.8552 7.03498 3.46243C7.75757 3.0441 9.35546 3.64055 11.0397 5.13601C11.1495 5.23375 11.2575 5.33347 11.3638 5.43512C10.7362 6.10902 10.1161 6.87624 9.52371 7.71223C8.50783 7.80639 7.53541 7.95759 6.64137 8.16018C6.58629 7.93964 6.53677 7.71766 6.49287 7.49463ZM15.8101 9.79545C15.599 9.43069 15.38 9.07052 15.1533 8.7152C15.8425 8.80236 16.5028 8.91803 17.1229 9.05945C16.9367 9.65615 16.7047 10.2799 16.4316 10.9195C16.2319 10.5407 16.0248 10.166 15.8101 9.79545ZM12.0106 6.09468C12.4362 6.55579 12.8624 7.07056 13.2817 7.62912C12.4312 7.58895 11.5793 7.58879 10.7287 7.62862C11.1484 7.0752 11.5783 6.5611 12.0106 6.09468ZM8.18661 9.80169C7.97469 10.1692 7.77138 10.5416 7.57684 10.9187C7.30819 10.2814 7.07826 9.65471 6.89053 9.04957C7.5068 8.91171 8.164 8.79898 8.84879 8.71343C8.61958 9.07092 8.39879 9.43383 8.18661 9.80169ZM8.86845 15.3158C8.16096 15.2368 7.4939 15.1299 6.87779 14.9957C7.06848 14.3798 7.30346 13.7398 7.57793 13.0889C7.77325 13.4662 7.97741 13.8388 8.19024 14.2065C8.40911 14.5845 8.63574 14.9547 8.86845 15.3158ZM12.0361 17.9339C11.5987 17.4621 11.1624 16.9401 10.7364 16.3786C11.15 16.3948 11.5717 16.4031 12.0002 16.4031C12.4405 16.4031 12.8757 16.3932 13.304 16.3742C12.8834 16.9457 12.4588 17.4685 12.0361 17.9339ZM16.4403 13.0556C16.729 13.7137 16.9723 14.3504 17.1655 14.9557C16.5393 15.0987 15.8631 15.2138 15.1507 15.2992C15.379 14.9373 15.6001 14.5709 15.8138 14.2002C16.0311 13.8233 16.24 13.4417 16.4403 13.0556ZM15.0145 13.7391C14.6873 14.3075 14.3417 14.8651 13.9783 15.411C13.32 15.4577 12.6602 15.4808 12.0002 15.4805C11.328 15.4805 10.6742 15.4595 10.0446 15.4187C9.67163 14.8741 9.31945 14.3155 8.98877 13.7442C8.65964 13.1759 8.35229 12.5954 8.06722 12.0038C8.35156 11.4121 8.65806 10.8312 8.98607 10.2625L8.98598 10.2626C9.31386 9.6938 9.66323 9.13762 10.0333 8.5953C10.6757 8.5467 11.3344 8.52139 12.0001 8.52139C12.6689 8.52139 13.3285 8.54695 13.9707 8.59589C14.3371 9.1374 14.6842 9.69166 15.0115 10.2577C15.3406 10.8251 15.6511 11.4031 15.9426 11.9907C15.6541 12.5844 15.3445 13.1675 15.0145 13.7391ZM16.918 3.43492C17.6413 3.85207 17.9226 5.53426 17.4681 7.74024C17.4391 7.88098 17.4065 8.02433 17.3711 8.16971C16.4749 7.96282 15.5018 7.80901 14.4829 7.71341C13.8894 6.86823 13.2744 6.09982 12.6571 5.43461C12.8189 5.27865 12.9845 5.12672 13.1539 4.97899C14.7485 3.59127 16.2389 3.04334 16.918 3.43492ZM12.0002 10.053C13.0654 10.053 13.929 10.9165 13.929 11.9818C13.929 13.047 13.0654 13.9106 12.0002 13.9106C10.935 13.9106 10.0714 13.047 10.0714 11.9818C10.0714 10.9165 10.935 10.053 12.0002 10.053Z" fill="#00D8FF"/>
</svg>
