<svg width="24" height="24" viewBox="0 0 24 24" fill="none" xmlns="http://www.w3.org/2000/svg">
<path d="M22.7146 4.39752L12.5811 22.5179C12.5335 22.6031 12.4641 22.6741 12.38 22.7237C12.296 22.7733 12.2002 22.7996 12.1026 22.8C12.005 22.8004 11.909 22.7748 11.8246 22.7259C11.7401 22.677 11.6701 22.6066 11.6219 22.5217L1.28786 4.39906C1.2359 4.30813 1.21096 4.20426 1.21596 4.09965C1.22096 3.99505 1.25569 3.89403 1.31608 3.80847C1.37647 3.72291 1.46001 3.65634 1.55689 3.61659C1.65378 3.57683 1.76 3.56554 1.86308 3.58403L12.0074 5.3976C12.0719 5.40922 12.138 5.40922 12.2025 5.3976L22.1347 3.58711C22.2374 3.56835 22.3433 3.57916 22.4401 3.6183C22.5369 3.65743 22.6205 3.72327 22.6813 3.80813C22.7421 3.89299 22.7775 3.99339 22.7834 4.0976C22.7893 4.20182 22.7654 4.30634 22.7146 4.39752Z" fill="url(#paint0_linear_3697_125927)"/>
<path d="M16.8389 1.20601L9.34089 2.67491C9.28087 2.68663 9.22646 2.71801 9.18625 2.76408C9.14603 2.81016 9.12231 2.86831 9.11882 2.92937L8.65771 10.7204C8.65517 10.7631 8.66263 10.8058 8.6795 10.8452C8.69637 10.8845 8.72219 10.9194 8.75491 10.947C8.78762 10.9747 8.82633 10.9943 8.86795 11.0043C8.90957 11.0144 8.95296 11.0145 8.99467 11.0049L11.082 10.523C11.127 10.5126 11.1738 10.5136 11.2183 10.5261C11.2627 10.5386 11.3033 10.562 11.3363 10.5942C11.3693 10.6265 11.3937 10.6665 11.4072 10.7107C11.4207 10.7548 11.4229 10.8016 11.4135 10.8468L10.7936 13.8841C10.784 13.9308 10.7868 13.9793 10.8016 14.0247C10.8164 14.07 10.8427 14.1108 10.8781 14.1429C10.9134 14.175 10.9564 14.1974 11.003 14.2079C11.0495 14.2183 11.098 14.2165 11.1437 14.2025L12.4329 13.8108C12.4786 13.7968 12.5272 13.795 12.5739 13.8055C12.6205 13.816 12.6636 13.8384 12.6989 13.8707C12.7343 13.9029 12.7606 13.9437 12.7753 13.9892C12.7901 14.0347 12.7927 14.0832 12.783 14.1301L11.7968 18.9007C11.7351 19.1991 12.1322 19.3618 12.298 19.1066L12.4082 18.9354L18.519 6.74081C18.542 6.69486 18.5516 6.64342 18.5468 6.59228C18.5421 6.54115 18.5231 6.49237 18.492 6.45146C18.461 6.41055 18.4191 6.37914 18.3712 6.36078C18.3232 6.34242 18.2711 6.33784 18.2206 6.34756L16.0716 6.76163C16.0254 6.77048 15.9776 6.76732 15.9329 6.75244C15.8883 6.73757 15.8481 6.71147 15.8164 6.67666C15.7847 6.64184 15.7624 6.59947 15.7518 6.5536C15.7411 6.50773 15.7424 6.45988 15.7555 6.41465L17.1573 1.55222C17.1705 1.50684 17.1718 1.45882 17.1611 1.41279C17.1504 1.36676 17.128 1.32426 17.096 1.2894C17.0641 1.25454 17.0238 1.22848 16.9789 1.21374C16.9339 1.199 16.886 1.19607 16.8396 1.20524" fill="url(#paint1_linear_3697_125927)"/>
<defs>
<linearGradient id="paint0_linear_3697_125927" x1="1.03535" y1="2.93621" x2="13.6465" y2="20.0631" gradientUnits="userSpaceOnUse">
<stop stop-color="#41D1FF"/>
<stop offset="1" stop-color="#BD34FE"/>
</linearGradient>
<linearGradient id="paint1_linear_3697_125927" x1="11.4243" y1="1.60449" x2="13.7056" y2="17.2539" gradientUnits="userSpaceOnUse">
<stop stop-color="#FFEA83"/>
<stop offset="0.083" stop-color="#FFDD35"/>
<stop offset="1" stop-color="#FFA800"/>
</linearGradient>
</defs>
</svg>
