<svg width="360" height="128" viewBox="0 0 360 128" fill="none" xmlns="http://www.w3.org/2000/svg">
<path d="M21.5879 61.5896C34.3778 53.5458 40.4589 61.2544 45.792 71.3934C41.3788 79.429 38.4593 84.3327 37.0329 86.1046C34.3432 89.4471 31.4091 91.9778 27.8004 93.4381C20.214 97.0036 10.7829 97.1703 3.5 92.7621L21.5879 61.5896Z" fill="url(#paint0_linear_4107_1209908)"/>
<path fill-rule="evenodd" clip-rule="evenodd" d="M111.078 57.4315C99.5099 37.1925 87.5525 18.1244 73.8168 46.0956C71.9377 49.6914 70.5681 56.6797 67.5 56.6797V56.6442C64.4319 56.6442 63.0627 49.6559 61.1837 46.0601C47.4475 18.0889 35.4901 37.157 23.9224 57.396C23.0518 58.9224 22.2156 60.379 21.5 61.645C48.0095 44.8634 45.7776 95.5616 67.5 95.9645V96C89.2228 95.5971 86.9905 44.8989 113.5 61.6801C112.785 60.4145 111.949 58.9579 111.078 57.4315" fill="url(#paint1_linear_4107_1209908)"/>
<path fill-rule="evenodd" clip-rule="evenodd" d="M112.5 96C119.127 96 124.5 90.6272 124.5 84C124.5 77.3728 119.127 72 112.5 72C105.873 72 100.5 77.3728 100.5 84C100.5 90.6272 105.873 96 112.5 96" fill="url(#paint2_linear_4107_1209908)"/>
<path fill-rule="evenodd" clip-rule="evenodd" d="M146.031 45.2146C149.553 45.2146 152.103 42.8259 152.103 39.587C152.103 36.3482 149.553 34 146.031 34C142.591 34 140 36.3482 140 39.587C140 42.8259 142.591 45.2146 146.031 45.2146ZM146.031 93.8381C149.351 93.8381 151.374 91.8543 151.374 87.9676V55.9838C151.374 52.0972 149.351 50.0729 146.072 50.0729C142.753 50.0729 140.729 52.0972 140.729 55.9838V87.9676C140.729 91.8138 142.753 93.8381 146.031 93.8381ZM200.394 88.0081C200.394 91.7733 198.491 93.8381 195.091 93.8381C191.65 93.8381 189.748 91.7328 189.748 87.9676V67.5628C189.748 61.9352 186.955 58.7773 182.017 58.7773C176.471 58.7773 172.99 62.8664 172.99 69.5466V87.9676C172.99 91.7328 171.047 93.8381 167.647 93.8381C164.247 93.8381 162.304 91.7328 162.304 87.9676V55.7814C162.304 52.2591 164.328 50.0729 167.566 50.0729C170.764 50.0729 172.626 51.9757 172.747 55.417V58.0486H173.273C174.933 52.9474 179.75 49.7895 186.064 49.7895C195.213 49.7895 200.394 55.2146 200.394 64.6478V88.0081ZM216.302 45.2146C219.823 45.2146 222.374 42.8259 222.374 39.587C222.374 36.3482 219.823 34 216.302 34C212.861 34 210.27 36.3482 210.27 39.587C210.27 42.8259 212.861 45.2146 216.302 45.2146ZM221.645 87.9676C221.645 91.8543 219.621 93.8381 216.302 93.8381C213.023 93.8381 210.999 91.8138 210.999 87.9676V55.9838C210.999 52.0972 213.023 50.0729 216.342 50.0729C219.621 50.0729 221.645 52.0972 221.645 55.9838V87.9676ZM289.001 93.8381C292.401 93.8381 294.344 91.7733 294.344 87.9676V63.4332C294.344 54.9312 289.163 49.7895 280.5 49.7895C274.307 49.7895 269.45 52.9069 267.588 57.8866H267.102C265.685 52.8664 261.314 49.7895 255.282 49.7895C249.454 49.7895 244.96 52.7854 243.544 57.6032H243.017V55.5789C242.856 52.1377 240.953 50.0729 237.836 50.0729C234.598 50.0729 232.574 52.2591 232.574 55.8219V87.9676C232.574 91.7733 234.517 93.8381 237.917 93.8381C241.317 93.8381 243.26 91.7733 243.26 87.9676V67.1984C243.26 61.9757 246.296 58.6154 250.83 58.6154C255.444 58.6154 258.318 61.7328 258.318 66.834V87.9676C258.318 91.7733 260.14 93.8381 263.459 93.8381C266.819 93.8381 268.64 91.7733 268.64 87.9676V67.2389C268.64 62.0567 271.757 58.6154 276.331 58.6154C280.946 58.6154 283.698 61.5304 283.698 66.6316V87.9676C283.698 91.7733 285.601 93.8381 289.001 93.8381ZM328.265 87.9676C326.079 91.8138 321.829 94 316.567 94C308.188 94 302.521 88.7368 302.521 80.9231C302.521 72.9879 308.39 68.0891 318.145 68.0891H328.346V64.5668C328.346 60.2348 325.634 57.9676 320.736 57.9676C317.498 57.9676 315.19 59.1822 312.802 61.3279C311.588 62.2996 310.454 62.7449 308.714 62.7449C306.366 62.7449 304.909 61.166 304.909 58.9798C304.909 56.4696 306.65 53.919 310.414 52.0162C313.126 50.5992 316.729 49.7895 321.424 49.7895C332.677 49.7895 338.992 55.1336 338.992 64.6478V88.1296C338.992 91.7733 337.13 93.8381 333.811 93.8381C330.977 93.8381 329.115 92.2591 328.791 89.4656V87.9676H328.265ZM320.129 86.3077C315.96 86.3077 313.126 83.8381 313.126 80.2753C313.126 76.753 315.717 74.6478 320.088 74.6478H328.346V79.1012C328.346 83.1498 324.743 86.3077 320.129 86.3077ZM360 87.9676C360 91.8543 357.936 93.8381 354.657 93.8381C351.338 93.8381 349.314 91.8543 349.314 87.9676V40.8421C349.314 36.9555 351.338 34.9312 354.657 34.9312C357.936 34.9312 360 36.9555 360 40.8421V87.9676Z" fill="#1C252E"/>
<defs>
<linearGradient id="paint0_linear_4107_1209908" x1="38" y1="41.9475" x2="16.3808" y2="64.906" gradientUnits="userSpaceOnUse">
<stop stop-color="#004B50"/>
<stop offset="1" stop-color="#00A76F"/>
</linearGradient>
<linearGradient id="paint1_linear_4107_1209908" x1="21.5" y1="32" x2="21.5" y2="96" gradientUnits="userSpaceOnUse">
<stop stop-color="#5BE49B"/>
<stop offset="1" stop-color="#00A76F"/>
</linearGradient>
<linearGradient id="paint2_linear_4107_1209908" x1="100.5" y1="72" x2="100.5" y2="96" gradientUnits="userSpaceOnUse">
<stop stop-color="#5BE49B"/>
<stop offset="1" stop-color="#00A76F"/>
</linearGradient>
</defs>
</svg>
