<svg width="240" height="240" fill="none" xmlns="http://www.w3.org/2000/svg"><path d="M119.971 121.854c1.03 0 1.862-.835 1.862-1.862a1.862 1.862 0 1 0-3.724 0c0 1.027.834 1.862 1.862 1.862ZM126.554 121.854a1.865 1.865 0 0 0 1.864-1.862 1.863 1.863 0 1 0-1.864 1.862ZM124.076 126.999a1.861 1.861 0 1 0 0-3.723 1.862 1.862 0 1 0 0 3.723ZM118.506 128.272a1.863 1.863 0 1 0 0-3.725 1.863 1.863 0 0 0 0 3.725ZM114.04 124.709a1.862 1.862 0 1 0 0-3.723 1.862 1.862 0 0 0 0 3.723ZM114.04 118.997a1.862 1.862 0 1 0 0-3.724 1.862 1.862 0 0 0 0 3.724ZM118.506 115.435a1.862 1.862 0 1 0 .001-3.725 1.862 1.862 0 0 0-.001 3.725ZM124.076 116.706a1.862 1.862 0 1 0 0-3.725 1.862 1.862 0 0 0 0 3.725ZM133.138 121.816a1.826 1.826 0 1 0 .002-3.652 1.826 1.826 0 0 0-.002 3.652ZM131.834 127.53a1.827 1.827 0 1 0 0-3.65 1.827 1.827 0 0 0 0 3.65ZM128.182 132.11a1.826 1.826 0 1 0-.002-3.652 1.826 1.826 0 0 0 .002 3.652ZM122.9 134.652a1.826 1.826 0 1 0 .003-3.651 1.826 1.826 0 0 0-.003 3.651ZM117.041 134.652c1.01 0 1.825-.816 1.825-1.826a1.825 1.825 0 1 0-1.825 1.826ZM111.761 132.11a1.826 1.826 0 1 0 .002-3.648 1.826 1.826 0 0 0-.002 3.648ZM108.109 127.53a1.826 1.826 0 1 0-.002-3.652 1.826 1.826 0 0 0 .002 3.652ZM106.804 121.816a1.826 1.826 0 1 0 0-3.652 1.826 1.826 0 0 0 0 3.652ZM108.109 116.104a1.825 1.825 0 1 0 0-3.651 1.826 1.826 0 1 0 0 3.651ZM111.761 111.523a1.827 1.827 0 1 0 0-3.649 1.827 1.827 0 0 0 0 3.649ZM117.041 108.98a1.824 1.824 0 1 0 .001-3.651 1.824 1.824 0 0 0-.001 3.651ZM122.9 108.98a1.826 1.826 0 1 0 .002-3.652 1.826 1.826 0 0 0-.002 3.652ZM128.182 111.523a1.826 1.826 0 1 0-.002-3.652 1.826 1.826 0 0 0 .002 3.652ZM131.834 116.104a1.827 1.827 0 1 0 0-3.653 1.827 1.827 0 0 0 0 3.653ZM139.721 121.707a1.716 1.716 0 1 0 .003-3.431 1.716 1.716 0 0 0-.003 3.431ZM138.845 127.527a1.715 1.715 0 1 0 0-3.43 1.715 1.715 0 0 0 0 3.43ZM136.291 132.832a1.716 1.716 0 1 0-.001-3.431 1.716 1.716 0 0 0 .001 3.431ZM132.285 137.147a1.715 1.715 0 1 0 .001-3.43 1.715 1.715 0 0 0-.001 3.43ZM127.187 140.089a1.717 1.717 0 0 0 0-3.432 1.717 1.717 0 0 0 0 3.432ZM121.449 141.401a1.716 1.716 0 1 0-.001-3.431 1.716 1.716 0 0 0 .001 3.431ZM115.576 140.96a1.716 1.716 0 1 0 .001-3.429 1.716 1.716 0 0 0-.001 3.429ZM110.095 138.809a1.716 1.716 0 1 0 0-3.432 1.716 1.716 0 0 0 0 3.432ZM105.492 135.14a1.718 1.718 0 1 0 0-3.435 1.718 1.718 0 0 0 0 3.435ZM102.177 130.276a1.716 1.716 0 1 0-.001-3.433 1.716 1.716 0 0 0 .001 3.433ZM100.441 124.651a1.716 1.716 0 1 0 0-3.432 1.716 1.716 0 0 0 0 3.432ZM100.441 118.763a1.715 1.715 0 1 0 .001-3.43 1.715 1.715 0 0 0-.001 3.43ZM102.177 113.138a1.716 1.716 0 1 0 0-3.432 1.716 1.716 0 0 0 0 3.432ZM105.492 108.255a1.698 1.698 0 1 0 .002-3.396 1.698 1.698 0 0 0-.002 3.396ZM110.095 104.604a1.715 1.715 0 1 0 .002-3.434 1.715 1.715 0 0 0-.002 3.434ZM115.576 102.454a1.717 1.717 0 0 0 0-3.433 1.716 1.716 0 0 0 0 3.433ZM121.449 102.014a1.716 1.716 0 1 0-.002-3.432 1.716 1.716 0 0 0 .002 3.432ZM127.187 103.324a1.716 1.716 0 1 0-.001-3.431 1.716 1.716 0 0 0 .001 3.431ZM132.285 106.266a1.715 1.715 0 1 0 .001-3.43 1.715 1.715 0 0 0-.001 3.43ZM136.291 110.582a1.715 1.715 0 1 0 0-3.43 1.715 1.715 0 0 0 0 3.43ZM138.845 115.886a1.715 1.715 0 0 0 0-3.432 1.716 1.716 0 1 0 0 3.432ZM146.305 121.597a1.605 1.605 0 1 0 0-3.213 1.606 1.606 0 0 0 0 3.213ZM145.645 127.456a1.607 1.607 0 1 0 0-3.213 1.607 1.607 0 0 0 0 3.213ZM143.699 133.022a1.606 1.606 0 1 0-.002-3.212 1.606 1.606 0 0 0 .002 3.212ZM140.561 138.014a1.608 1.608 0 1 0-.003-3.21 1.608 1.608 0 0 0 .003 3.21ZM136.389 142.184a1.606 1.606 0 1 0 .003-3.213 1.606 1.606 0 0 0-.003 3.213ZM131.397 145.321a1.606 1.606 0 1 0 .001-3.213 1.606 1.606 0 0 0-.001 3.213ZM125.83 147.269a1.606 1.606 0 1 0 .001-3.213 1.606 1.606 0 0 0-.001 3.213ZM119.971 147.929a1.606 1.606 0 1 0 0-3.213 1.606 1.606 0 0 0 0 3.213ZM114.111 147.269a1.607 1.607 0 1 0 .002-3.212 1.607 1.607 0 0 0-.002 3.212ZM108.544 145.321a1.606 1.606 0 1 0 .004-3.212 1.606 1.606 0 0 0-.004 3.212ZM103.552 142.184c.887 0 1.608-.719 1.608-1.606a1.608 1.608 0 0 0-3.215 0c0 .887.72 1.606 1.607 1.606ZM99.383 138.014a1.607 1.607 0 0 0 0-3.213 1.607 1.607 0 0 0 0 3.213ZM96.244 133.004a1.589 1.589 0 1 0 .001-3.177 1.589 1.589 0 0 0 0 3.177ZM94.297 127.439a1.59 1.59 0 0 0 0-3.178 1.59 1.59 0 0 0 0 3.178ZM93.637 121.579a1.588 1.588 0 1 0 .002-3.177 1.588 1.588 0 0 0-.002 3.177ZM94.297 115.72a1.588 1.588 0 1 0 .002-3.175 1.588 1.588 0 0 0-.002 3.175ZM96.244 110.154a1.588 1.588 0 1 0 .002-3.177 1.588 1.588 0 0 0-.002 3.177ZM99.382 105.162a1.588 1.588 0 1 0 0-3.175 1.588 1.588 0 0 0 0 3.175ZM103.552 100.993a1.59 1.59 0 0 0 0-3.177 1.588 1.588 0 0 0 0 3.177ZM108.545 97.855a1.588 1.588 0 1 0 .001-3.177 1.588 1.588 0 0 0-.001 3.177ZM114.111 95.908a1.588 1.588 0 1 0 0-3.175 1.588 1.588 0 0 0 0 3.175ZM119.971 95.248a1.59 1.59 0 0 0 0-3.177 1.589 1.589 0 0 0 0 3.177ZM125.83 95.908a1.588 1.588 0 1 0 .001-3.177 1.588 1.588 0 0 0-.001 3.177ZM131.397 97.855a1.589 1.589 0 1 0 0-3.178 1.589 1.589 0 0 0 0 3.178ZM136.389 101.011a1.607 1.607 0 1 0 .001-3.215 1.607 1.607 0 0 0-.001 3.215ZM140.561 105.181a1.607 1.607 0 1 0-.002-3.214 1.607 1.607 0 0 0 .002 3.214ZM143.699 110.172a1.606 1.606 0 1 0-.002-3.212 1.606 1.606 0 0 0 .002 3.212ZM145.645 115.738a1.606 1.606 0 1 0 .001-3.213 1.606 1.606 0 0 0-.001 3.213ZM152.889 121.488a1.497 1.497 0 1 0 0-2.994 1.497 1.497 0 0 0 0 2.994ZM152.36 127.364a1.496 1.496 0 1 0 0-2.993 1.496 1.496 0 1 0 0 2.993ZM150.788 133.054a1.496 1.496 0 1 0 .003-2.993 1.496 1.496 0 0 0-.003 2.993ZM148.231 138.371c.826 0 1.495-.671 1.495-1.498a1.496 1.496 0 1 0-2.993 0c0 .827.669 1.498 1.498 1.498ZM144.761 143.144c.827 0 1.496-.67 1.496-1.496a1.495 1.495 0 1 0-2.993 0c0 .826.669 1.496 1.497 1.496ZM140.495 147.221a1.497 1.497 0 1 0 .001-2.995 1.497 1.497 0 0 0-.001 2.995ZM135.57 150.472a1.497 1.497 0 1 0 0-2.995 1.497 1.497 0 0 0 0 2.995ZM130.143 152.791a1.497 1.497 0 1 0 0-2.993 1.497 1.497 0 0 0 0 2.993ZM124.389 154.104a1.496 1.496 0 1 0 .004-2.992 1.496 1.496 0 0 0-.004 2.992ZM118.495 154.369a1.497 1.497 0 1 0-.002-2.994 1.497 1.497 0 0 0 .002 2.994ZM112.646 153.577a1.496 1.496 0 1 0 0-2.993 1.497 1.497 0 1 0 0 2.993ZM107.034 151.754a1.497 1.497 0 1 0 0-2.993 1.497 1.497 0 1 0 0 2.993ZM101.837 148.938a1.478 1.478 0 1 0-1.478-1.477c0 .816.662 1.477 1.478 1.477ZM97.223 145.261a1.48 1.48 0 0 0 0-2.959 1.479 1.479 0 0 0 0 2.959ZM93.34 140.816c.818 0 1.478-.662 1.478-1.478a1.477 1.477 0 1 0-2.957 0 1.48 1.48 0 0 0 1.48 1.478ZM90.314 135.751a1.48 1.48 0 1 0 0-2.955 1.48 1.48 0 0 0 0 2.955ZM88.24 130.227a1.478 1.478 0 1 0-.001-2.956 1.478 1.478 0 0 0 0 2.956ZM87.187 124.421a1.479 1.479 0 1 0-.002-2.957 1.479 1.479 0 0 0 .002 2.957ZM87.187 118.52a1.478 1.478 0 1 0-.002-2.957 1.478 1.478 0 0 0 .002 2.957ZM88.24 112.712a1.478 1.478 0 1 0-1.48-1.477 1.48 1.48 0 0 0 1.48 1.477ZM90.314 107.188a1.48 1.48 0 1 0 0-2.96 1.48 1.48 0 0 0 0 2.96ZM93.34 102.123c.818 0 1.478-.662 1.478-1.477a1.48 1.48 0 1 0-2.957 0 1.48 1.48 0 0 0 1.48 1.477ZM97.223 97.679a1.479 1.479 0 1 0 .002-2.957 1.479 1.479 0 0 0-.002 2.957ZM101.837 94a1.48 1.48 0 1 0 .002-2.958 1.48 1.48 0 0 0-.002 2.959ZM107.034 91.204a1.48 1.48 0 1 0-.004-2.959 1.48 1.48 0 0 0 .004 2.959ZM112.647 89.381a1.48 1.48 0 1 0-.003-2.96 1.48 1.48 0 0 0 .003 2.96ZM118.495 88.588c.817 0 1.477-.663 1.477-1.478a1.479 1.479 0 1 0-1.477 1.477ZM124.389 88.853a1.478 1.478 0 1 0 .001-2.957 1.478 1.478 0 0 0-.001 2.957ZM130.142 90.165a1.478 1.478 0 1 0 .003-2.956 1.478 1.478 0 0 0-.003 2.956ZM135.57 92.484a1.48 1.48 0 0 0 1.48-1.477 1.48 1.48 0 0 0-1.48-1.48 1.477 1.477 0 0 0 0 2.957ZM140.495 95.736a1.479 1.479 0 1 0 0-2.958 1.479 1.479 0 0 0 0 2.958ZM144.761 99.814a1.479 1.479 0 1 0-.002-2.958 1.479 1.479 0 0 0 .002 2.958ZM148.23 104.588a1.479 1.479 0 1 0-.002-2.958 1.479 1.479 0 0 0 .002 2.958ZM150.788 109.922a1.497 1.497 0 1 0 .002-2.994 1.497 1.497 0 0 0-.002 2.994ZM152.36 115.611a1.497 1.497 0 1 0 .002-2.994 1.497 1.497 0 0 0-.002 2.994ZM159.471 121.359a1.368 1.368 0 1 0 0-2.737 1.369 1.369 0 1 0 0 2.737ZM159.031 127.248a1.37 1.37 0 1 0 0-2.738 1.37 1.37 0 0 0 0 2.738ZM157.718 133.002a1.37 1.37 0 0 0 1.37-1.37 1.371 1.371 0 0 0-2.74 0c0 .757.613 1.37 1.37 1.37ZM155.56 138.497a1.369 1.369 0 1 0 .002-2.738 1.369 1.369 0 0 0-.002 2.738ZM152.608 143.609a1.368 1.368 0 1 0 .004-2.736 1.368 1.368 0 0 0-.004 2.736ZM148.927 148.243a1.388 1.388 0 1 0 0-2.776 1.388 1.388 0 0 0 0 2.776ZM144.6 152.241a1.37 1.37 0 1 0-.002-2.738 1.37 1.37 0 0 0 .002 2.738ZM139.721 155.565a1.37 1.37 0 1 0 .002-2.738 1.37 1.37 0 0 0-.002 2.738ZM134.401 158.127a1.37 1.37 0 0 0 1.372-1.368 1.371 1.371 0 0 0-2.74 0c0 .756.613 1.368 1.368 1.368ZM128.761 159.868a1.37 1.37 0 1 0-1.369-1.37c0 .755.612 1.37 1.369 1.37ZM122.924 160.747a1.37 1.37 0 1 0-.002-2.738 1.37 1.37 0 0 0 .002 2.738ZM117.019 160.747a1.37 1.37 0 1 0 0-2.74 1.37 1.37 0 0 0 0 2.74ZM111.181 159.868a1.37 1.37 0 1 0-1.369-1.37c0 .755.612 1.37 1.369 1.37ZM105.54 158.127a1.37 1.37 0 1 0 0-2.74 1.37 1.37 0 0 0 0 2.74ZM100.221 155.565a1.368 1.368 0 1 0 .002-2.736 1.368 1.368 0 0 0-.002 2.736ZM95.343 152.241a1.37 1.37 0 1 0 0-2.738 1.37 1.37 0 0 0 0 2.738ZM91.014 148.225a1.37 1.37 0 1 0 .001-2.738 1.37 1.37 0 0 0 0 2.738ZM87.335 143.609a1.368 1.368 0 1 0 0-2.736 1.368 1.368 0 0 0 0 2.736ZM84.381 138.497a1.369 1.369 0 1 0 .003-2.737 1.369 1.369 0 0 0-.003 2.737ZM82.225 133.002a1.37 1.37 0 1 0-.001-2.74 1.37 1.37 0 0 0 .001 2.74ZM80.91 127.248a1.37 1.37 0 1 0 .002-2.741 1.37 1.37 0 0 0-.002 2.741ZM80.47 121.359a1.368 1.368 0 1 0 .003-2.736 1.368 1.368 0 0 0-.004 2.736ZM80.91 115.474a1.37 1.37 0 1 0 .003-2.74 1.37 1.37 0 0 0-.003 2.74ZM82.225 109.718a1.37 1.37 0 1 0 0-2.737 1.37 1.37 0 0 0 0 2.737ZM84.381 104.222a1.369 1.369 0 1 0 .002-2.738 1.369 1.369 0 0 0-.002 2.738ZM87.335 99.111a1.37 1.37 0 1 0-.004-2.74 1.37 1.37 0 0 0 .004 2.74ZM91.014 94.494a1.369 1.369 0 1 0 .002-2.737 1.369 1.369 0 0 0-.002 2.737ZM95.343 90.48a1.37 1.37 0 1 0 .001-2.738 1.37 1.37 0 0 0-.001 2.738ZM100.221 87.154a1.368 1.368 0 1 0 .001-2.737 1.368 1.368 0 0 0-.001 2.737ZM105.54 84.592a1.37 1.37 0 1 0 0-2.74 1.37 1.37 0 0 0 0 2.74ZM111.181 82.853a1.369 1.369 0 1 0 .002-2.736 1.369 1.369 0 0 0-.002 2.736ZM117.019 81.974a1.37 1.37 0 0 0 0-2.74 1.37 1.37 0 0 0 0 2.74ZM122.924 81.974a1.37 1.37 0 0 0 0-2.74 1.37 1.37 0 0 0 0 2.74ZM128.761 82.853a1.369 1.369 0 1 0 .002-2.736 1.369 1.369 0 0 0-.002 2.736ZM134.401 84.592a1.37 1.37 0 0 0 1.372-1.367 1.371 1.371 0 0 0-2.74 0c0 .755.613 1.367 1.368 1.367ZM139.721 87.154a1.37 1.37 0 1 0 .001-2.738 1.37 1.37 0 0 0-.001 2.738ZM144.6 90.48a1.369 1.369 0 1 0-.002-2.738 1.369 1.369 0 0 0 .002 2.738ZM148.927 94.494a1.369 1.369 0 1 0 .002-2.738 1.369 1.369 0 0 0-.002 2.738ZM152.608 99.111a1.37 1.37 0 1 0 0-2.74 1.37 1.37 0 0 0 0 2.74ZM155.56 104.222a1.37 1.37 0 1 0 .002-2.738 1.37 1.37 0 0 0-.002 2.738ZM157.718 109.718a1.37 1.37 0 1 0 0-2.736 1.37 1.37 0 0 0 0 2.736ZM159.031 115.474a1.37 1.37 0 1 0 0-2.74 1.37 1.37 0 0 0 0 2.74ZM166.055 121.25a1.259 1.259 0 1 0 .002-2.518 1.259 1.259 0 0 0-.002 2.518ZM165.678 127.143a1.26 1.26 0 1 0-.002-2.52 1.26 1.26 0 0 0 .002 2.52ZM164.548 132.938a1.258 1.258 0 1 0 0-2.518 1.26 1.26 0 1 0 0 2.518ZM162.688 138.543a1.26 1.26 0 1 0-.003-2.521 1.26 1.26 0 0 0 .003 2.521ZM160.125 143.862a1.259 1.259 0 1 0 .003-2.517 1.259 1.259 0 0 0-.003 2.517ZM156.904 148.812a1.26 1.26 0 1 0 0-2.52 1.26 1.26 0 0 0 0 2.52ZM153.077 153.307a1.258 1.258 0 1 0 0-2.517 1.258 1.258 0 0 0 0 2.517ZM148.704 157.277a1.259 1.259 0 1 0 .002-2.518 1.259 1.259 0 0 0-.002 2.518ZM143.861 160.656a1.26 1.26 0 1 0 .001-2.517 1.26 1.26 0 0 0-.001 2.517ZM138.626 163.388a1.26 1.26 0 1 0 0-2.52 1.26 1.26 0 0 0 0 2.52ZM133.083 165.427a1.26 1.26 0 1 0 0-2.52 1.26 1.26 0 0 0 0 2.52ZM127.326 166.739a1.259 1.259 0 1 0 0-2.517 1.26 1.26 0 1 0 0 2.517ZM121.448 167.307a1.26 1.26 0 1 0 0-2.52 1.26 1.26 0 0 0 0 2.52ZM115.545 167.118a1.26 1.26 0 1 0 0-2.52 1.26 1.26 0 0 0 0 2.52ZM109.717 166.176a1.26 1.26 0 1 0-.002-2.518 1.26 1.26 0 0 0 .002 2.518ZM104.055 164.496a1.26 1.26 0 1 0 0-2.52 1.26 1.26 0 0 0 0 2.52ZM98.655 162.106a1.26 1.26 0 1 0 0-2.52 1.26 1.26 0 0 0 0 2.52ZM93.606 159.045a1.26 1.26 0 1 0 0-2.52 1.26 1.26 0 0 0 0 2.52ZM88.988 155.362a1.258 1.258 0 1 0 .004-2.517 1.258 1.258 0 0 0-.004 2.517ZM84.88 151.122a1.26 1.26 0 1 0 0-2.521 1.26 1.26 0 0 0 0 2.521ZM81.35 146.39c.694 0 1.258-.564 1.258-1.26a1.258 1.258 0 1 0-2.518 0c0 .696.563 1.26 1.26 1.26ZM78.45 141.244a1.26 1.26 0 1 0 .001-2.517 1.26 1.26 0 0 0 0 2.517ZM76.234 135.771a1.26 1.26 0 1 0 .001-2.519 1.26 1.26 0 0 0 0 2.519ZM74.736 130.06a1.261 1.261 0 0 0 0-2.52 1.26 1.26 0 1 0 0 2.52ZM73.981 124.203a1.26 1.26 0 1 0 0-2.516 1.26 1.26 0 0 0 0 2.516ZM73.981 118.28a1.242 1.242 0 1 0 0-2.483 1.242 1.242 0 0 0 0 2.483ZM74.737 112.423a1.24 1.24 0 1 0 0-2.481 1.24 1.24 0 1 0 0 2.481ZM76.234 106.713a1.242 1.242 0 1 0 0-2.484 1.242 1.242 0 0 0 0 2.484ZM78.45 101.237a1.24 1.24 0 1 0 0-2.48 1.242 1.242 0 1 0 0 2.48ZM81.35 96.094a1.241 1.241 0 1 0-.003-2.482 1.241 1.241 0 0 0 .002 2.482ZM84.88 91.362a1.24 1.24 0 1 0 0-2.482 1.24 1.24 0 1 0 0 2.482ZM88.988 87.119a1.241 1.241 0 1 0 0-2.483 1.241 1.241 0 0 0 0 2.483ZM93.606 83.438a1.242 1.242 0 1 0 0-2.483 1.242 1.242 0 0 0 0 2.483ZM98.654 80.378a1.242 1.242 0 1 0 0-2.485 1.242 1.242 0 0 0 0 2.485ZM104.055 77.988a1.242 1.242 0 1 0 0-2.485 1.242 1.242 0 0 0 0 2.485ZM109.717 76.307a1.24 1.24 0 1 0 0-2.481 1.24 1.24 0 0 0 0 2.48ZM115.545 75.365a1.242 1.242 0 1 0 0-2.484 1.242 1.242 0 0 0 0 2.484ZM121.449 75.174a1.24 1.24 0 1 0 0-2.481 1.24 1.24 0 0 0 0 2.481ZM127.326 75.744a1.243 1.243 0 0 0 0-2.483 1.241 1.241 0 0 0 0 2.483ZM133.083 77.075a1.26 1.26 0 1 0 0-2.52 1.26 1.26 0 0 0 0 2.52ZM138.626 79.114a1.26 1.26 0 1 0 .002-2.517 1.26 1.26 0 0 0-.002 2.517ZM143.861 81.846a1.261 1.261 0 1 0-1.26-1.26c0 .694.564 1.26 1.26 1.26ZM148.704 85.223a1.259 1.259 0 1 0 0-2.518 1.26 1.26 0 1 0 0 2.518ZM153.077 89.192a1.258 1.258 0 1 0 0-2.516 1.258 1.258 0 0 0 0 2.516ZM156.904 93.689a1.258 1.258 0 1 0 0-2.518 1.259 1.259 0 1 0 0 2.518ZM160.125 98.639a1.26 1.26 0 1 0 .001-2.52 1.26 1.26 0 0 0-.001 2.52ZM162.688 103.958a1.26 1.26 0 1 0-.002-2.518 1.26 1.26 0 0 0 .002 2.518ZM164.548 109.561a1.258 1.258 0 1 0 0-2.518 1.26 1.26 0 1 0 0 2.518ZM165.678 115.358a1.26 1.26 0 1 0-.003-2.52 1.26 1.26 0 0 0 .003 2.52ZM172.639 121.142a1.15 1.15 0 1 0 0-2.3 1.15 1.15 0 0 0 0 2.3ZM172.308 127.037a1.15 1.15 0 1 0 0-2.3 1.15 1.15 0 0 0 0 2.3ZM171.318 132.859a1.15 1.15 0 1 0 .001-2.301 1.15 1.15 0 0 0-.001 2.301ZM169.683 138.534a1.15 1.15 0 1 0 0-2.299 1.15 1.15 0 1 0 0 2.299ZM167.423 143.99a1.15 1.15 0 1 0 0-2.303 1.15 1.15 0 0 0 0 2.303ZM164.567 149.16a1.15 1.15 0 1 0 0-2.3 1.15 1.15 0 0 0 0 2.3ZM161.149 153.976a1.15 1.15 0 1 0 0-2.3 1.15 1.15 0 0 0 0 2.3ZM157.213 158.38a1.15 1.15 0 1 0 0-2.299 1.15 1.15 0 1 0 0 2.299ZM152.809 162.314a1.15 1.15 0 1 0 .001-2.3 1.15 1.15 0 0 0-.001 2.3ZM147.993 165.732a1.15 1.15 0 1 0 0-2.3 1.15 1.15 0 0 0 0 2.3ZM142.823 168.588a1.148 1.148 0 1 0 0-2.298 1.15 1.15 0 1 0 0 2.298ZM137.367 170.848a1.15 1.15 0 1 0-.002-2.3 1.15 1.15 0 0 0 .002 2.3ZM131.691 172.483a1.15 1.15 0 1 0 0-2.3 1.15 1.15 0 0 0 0 2.3ZM125.868 173.473a1.151 1.151 0 1 0 0-2.302 1.151 1.151 0 0 0 0 2.302ZM119.971 173.803a1.148 1.148 0 1 0 0-2.298 1.15 1.15 0 1 0 0 2.298ZM114.075 173.473a1.15 1.15 0 1 0-.002-2.302 1.15 1.15 0 0 0 .002 2.302ZM108.252 172.483a1.15 1.15 0 1 0 .001-2.3 1.15 1.15 0 0 0-.001 2.3ZM102.576 170.848a1.149 1.149 0 1 0 0-2.3 1.15 1.15 0 0 0 0 2.3ZM97.118 168.588a1.148 1.148 0 1 0 0-2.298 1.15 1.15 0 1 0 0 2.298ZM91.95 165.732a1.15 1.15 0 1 0 0-2.3 1.15 1.15 0 0 0 0 2.3ZM87.134 162.296a1.132 1.132 0 1 0 0-2.264 1.132 1.132 0 0 0 0 2.264ZM82.73 158.38a1.149 1.149 0 1 0 0-2.299 1.15 1.15 0 1 0 0 2.299ZM78.794 153.958a1.13 1.13 0 0 0 1.13-1.132 1.131 1.131 0 1 0-1.13 1.132ZM75.377 149.141a1.133 1.133 0 0 0 0-2.264 1.132 1.132 0 1 0 0 2.264ZM72.52 143.972a1.132 1.132 0 1 0-.002-2.263 1.132 1.132 0 0 0 .002 2.263ZM70.258 138.517a1.13 1.13 0 1 0 .002-2.264 1.13 1.13 0 0 0-.002 2.264ZM68.623 132.842a1.132 1.132 0 1 0 0-2.264 1.132 1.132 0 0 0 0 2.264ZM67.633 127.019a1.132 1.132 0 1 0 0-2.264 1.132 1.132 0 0 0 0 2.264ZM67.303 121.122a1.13 1.13 0 1 0 0-2.262 1.132 1.132 0 1 0 0 2.262ZM67.633 115.226a1.131 1.131 0 1 0 .002-2.263 1.131 1.131 0 0 0-.002 2.263ZM68.623 109.404a1.131 1.131 0 1 0 .001-2.263 1.131 1.131 0 0 0-.001 2.263ZM70.258 103.73a1.132 1.132 0 0 0 0-2.265 1.133 1.133 0 0 0 0 2.265ZM72.52 98.273a1.132 1.132 0 1 0-.003-2.263 1.132 1.132 0 0 0 .003 2.263ZM75.377 93.104a1.133 1.133 0 1 0-.002-2.265 1.133 1.133 0 0 0 .002 2.265ZM78.794 88.287a1.13 1.13 0 0 0 1.13-1.13 1.13 1.13 0 1 0-2.262 0c0 .624.507 1.13 1.132 1.13ZM82.73 83.885a1.133 1.133 0 1 0-.002-2.266 1.133 1.133 0 0 0 .002 2.266ZM87.134 79.95a1.133 1.133 0 1 0-.002-2.266 1.133 1.133 0 0 0 .002 2.266ZM91.95 76.532a1.133 1.133 0 1 0 0-2.266 1.133 1.133 0 0 0 0 2.266ZM97.118 73.675a1.133 1.133 0 0 0 0-2.263 1.131 1.131 0 0 0 0 2.264ZM102.576 71.415a1.133 1.133 0 0 0 0-2.263 1.13 1.13 0 0 0-1.13 1.132 1.13 1.13 0 0 0 1.13 1.131ZM108.252 69.78a1.133 1.133 0 1 0-.001-2.263 1.133 1.133 0 0 0 .001 2.264ZM114.075 68.791a1.133 1.133 0 0 0 0-2.263 1.131 1.131 0 1 0 0 2.263ZM119.971 68.46a1.131 1.131 0 1 0 .001-2.265 1.131 1.131 0 0 0-.001 2.266ZM125.868 68.791a1.132 1.132 0 1 0 0-2.265 1.132 1.132 0 0 0 0 2.265ZM131.691 69.78a1.132 1.132 0 1 0 0-2.264 1.132 1.132 0 0 0 0 2.265ZM137.368 71.415a1.133 1.133 0 1 0-.005-2.265 1.133 1.133 0 0 0 .005 2.265ZM142.823 73.675a1.133 1.133 0 1 0-.002-2.266 1.133 1.133 0 0 0 .002 2.266ZM147.993 76.532c.623 0 1.132-.507 1.132-1.132a1.133 1.133 0 0 0-2.264 0c0 .625.506 1.132 1.132 1.132ZM152.81 79.95a1.133 1.133 0 0 0 0-2.264 1.131 1.131 0 1 0 0 2.264ZM157.213 83.903a1.15 1.15 0 1 0 .002-2.3 1.15 1.15 0 0 0-.002 2.3ZM161.148 88.287a1.131 1.131 0 1 0 .002-2.262 1.131 1.131 0 0 0-.002 2.262ZM164.567 93.123a1.151 1.151 0 0 0 0-2.301 1.15 1.15 0 1 0 0 2.3ZM167.423 98.292a1.15 1.15 0 1 0 .001-2.299 1.15 1.15 0 0 0-.001 2.299ZM169.683 103.746a1.148 1.148 0 1 0 0-2.297 1.15 1.15 0 1 0 0 2.297ZM171.318 109.423a1.15 1.15 0 1 0 0-2.3 1.15 1.15 0 0 0 0 2.3ZM172.308 115.245a1.15 1.15 0 1 0 0-2.3 1.15 1.15 0 0 0 0 2.3ZM179.222 121.014a1.023 1.023 0 1 0-.001-2.045 1.023 1.023 0 0 0 .001 2.045ZM178.928 126.911a1.02 1.02 0 1 0 .002-2.042 1.02 1.02 0 0 0-.002 2.042ZM178.048 132.754a1.023 1.023 0 1 0-.002-2.046 1.023 1.023 0 0 0 .002 2.046ZM176.59 138.495a1.042 1.042 0 0 0 0-2.081 1.041 1.041 0 0 0 0 2.081ZM174.57 144.027a1.021 1.021 0 1 0 0-2.045 1.022 1.022 0 1 0 0 2.045ZM172.006 149.348a1.022 1.022 0 1 0 .005-2.043 1.022 1.022 0 0 0-.005 2.043ZM168.927 154.387a1.021 1.021 0 1 0 .001-2.043 1.021 1.021 0 0 0-.001 2.043ZM165.36 159.096a1.022 1.022 0 1 0 .002-2.044 1.022 1.022 0 0 0-.002 2.044ZM161.342 163.442a1.039 1.039 0 1 0 0-2.078 1.039 1.039 0 1 0 0 2.078ZM156.915 167.334a1.023 1.023 0 1 0-.001-2.045 1.023 1.023 0 0 0 .001 2.045ZM152.118 170.782a1.023 1.023 0 1 0-.001-2.045 1.023 1.023 0 0 0 .001 2.045ZM147.004 173.734a1.023 1.023 0 1 0-.001-2.045 1.023 1.023 0 0 0 .001 2.045ZM141.617 176.182a1.041 1.041 0 1 0 .003-2.08 1.041 1.041 0 0 0-.003 2.08ZM136.02 178.064a1.041 1.041 0 1 0-.003-2.083 1.041 1.041 0 0 0 .003 2.083ZM130.26 179.36a1.023 1.023 0 1 0-.002-2.046 1.023 1.023 0 0 0 .002 2.046ZM124.4 180.094a1.023 1.023 0 1 0-.001-2.045 1.023 1.023 0 0 0 .001 2.045ZM118.495 180.24a1.023 1.023 0 0 0 0-2.045 1.023 1.023 0 0 0 0 2.045ZM112.605 179.799a1.023 1.023 0 1 0-.001-2.045 1.023 1.023 0 0 0 .001 2.045ZM106.786 178.773a1.022 1.022 0 1 0 .005-2.043 1.022 1.022 0 0 0-.005 2.043ZM101.102 177.173a1.022 1.022 0 1 0 0-2.044 1.022 1.022 0 0 0 0 2.044ZM95.602 175.018a1.024 1.024 0 0 0 0-2.047 1.023 1.023 0 0 0 0 2.047ZM90.345 172.323a1.024 1.024 0 0 0 0-2.045 1.023 1.023 0 0 0 0 2.045ZM85.384 169.117a1.021 1.021 0 1 0 .001-2.043 1.021 1.021 0 0 0-.001 2.043ZM80.765 165.434a1.02 1.02 0 1 0 0-2.041 1.02 1.02 0 0 0 0 2.041ZM76.536 161.31a1.021 1.021 0 1 0 .001-2.043 1.021 1.021 0 0 0-.001 2.043ZM72.74 156.787a1.021 1.021 0 1 0 .001-2.043 1.021 1.021 0 0 0-.001 2.043ZM69.413 151.906a1.023 1.023 0 1 0-.001-2.045 1.023 1.023 0 0 0 0 2.045ZM66.588 146.718a1.021 1.021 0 1 0 .001-2.043 1.021 1.021 0 0 0-.001 2.043ZM64.293 141.276a1.021 1.021 0 1 0 .001-2.043 1.021 1.021 0 0 0-.001 2.043ZM62.551 135.632a1.022 1.022 0 1 0 0-2.045 1.022 1.022 0 0 0 0 2.045ZM61.381 129.842a1.021 1.021 0 1 0 .002-2.043 1.021 1.021 0 0 0-.002 2.043ZM60.794 123.967a1.023 1.023 0 1 0-.002-2.046 1.023 1.023 0 0 0 .002 2.046ZM60.794 118.061a1.024 1.024 0 1 0-.003-2.048 1.024 1.024 0 0 0 .003 2.048ZM61.381 112.184a1.023 1.023 0 1 0 0-2.046 1.023 1.023 0 0 0 0 2.046ZM62.551 106.394a1.023 1.023 0 1 0 0-2.045 1.023 1.023 0 0 0 0 2.045ZM64.293 100.75a1.022 1.022 0 1 0 .001-2.043 1.022 1.022 0 0 0-.001 2.043ZM66.588 95.308a1.022 1.022 0 1 0 .001-2.043 1.022 1.022 0 0 0-.001 2.043ZM69.413 90.12a1.023 1.023 0 1 0-.002-2.046 1.023 1.023 0 0 0 .002 2.046ZM72.74 85.24a1.022 1.022 0 1 0 .001-2.044 1.022 1.022 0 0 0-.001 2.044ZM76.536 80.716a1.022 1.022 0 1 0 0-2.044 1.022 1.022 0 0 0 0 2.044ZM80.765 76.592a1.022 1.022 0 1 0-.003-2.045 1.022 1.022 0 0 0 .003 2.045ZM85.384 72.91a1.022 1.022 0 1 0 .001-2.044 1.022 1.022 0 0 0-.001 2.043ZM90.345 69.704a1.022 1.022 0 1 0 .001-2.043 1.022 1.022 0 0 0-.001 2.043ZM95.602 67.01a1.023 1.023 0 1 0 0-2.045 1.023 1.023 0 0 0 0 2.045ZM101.102 64.853a1.023 1.023 0 1 0-.001-2.043 1.023 1.023 0 0 0 .001 2.043ZM106.786 63.253a1.023 1.023 0 1 0 .002-2.046 1.023 1.023 0 0 0-.002 2.046ZM112.605 62.227a1.023 1.023 0 1 0-.001-2.046 1.023 1.023 0 0 0 .001 2.046ZM118.495 61.786a1.023 1.023 0 1 0-.001-2.043 1.023 1.023 0 0 0 .001 2.043ZM124.4 61.932a1.023 1.023 0 1 0-.001-2.045 1.023 1.023 0 0 0 .001 2.045ZM130.26 62.667a1.021 1.021 0 1 0 0-2.044 1.023 1.023 0 1 0 0 2.044ZM136.02 63.98a1.02 1.02 0 1 0-.001-2.041 1.02 1.02 0 0 0 .001 2.041ZM141.618 65.862a1.021 1.021 0 1 0 .001-2.043 1.021 1.021 0 0 0-.001 2.043ZM147.004 68.292a1.023 1.023 0 1 0-.001-2.043 1.023 1.023 0 0 0 .001 2.043ZM152.118 71.245a1.021 1.021 0 1 0 .001-2.043 1.021 1.021 0 0 0-.001 2.043ZM156.915 74.692a1.023 1.023 0 1 0-.001-2.045 1.023 1.023 0 0 0 .001 2.045ZM161.343 78.6a1.021 1.021 0 1 0 .001-2.043 1.021 1.021 0 0 0-.001 2.043ZM165.36 82.93a1.022 1.022 0 1 0 .002-2.045 1.022 1.022 0 0 0-.002 2.045ZM168.927 87.638a1.021 1.021 0 1 0 .001-2.043 1.021 1.021 0 0 0-.001 2.043ZM172.006 92.678a1.022 1.022 0 1 0 .004-2.043 1.022 1.022 0 0 0-.004 2.043ZM174.57 98a1.021 1.021 0 1 0 .001-2.044A1.021 1.021 0 0 0 174.57 98ZM176.591 103.551a1.024 1.024 0 0 0 0-2.046 1.023 1.023 0 0 0 0 2.046ZM178.048 109.274a1.022 1.022 0 1 0 0-2.044 1.022 1.022 0 0 0 0 2.044ZM178.928 115.115a1.023 1.023 0 1 0-.001-2.045 1.023 1.023 0 0 0 .001 2.045ZM185.806 120.904a.913.913 0 1 0 0-1.826.913.913 0 0 0 0 1.826ZM185.541 126.805a.913.913 0 1 0-.002-1.828.913.913 0 0 0 .002 1.828ZM184.748 132.659a.914.914 0 1 0-.001-1.827.914.914 0 0 0 .001 1.827ZM183.434 138.417a.911.911 0 0 0 .912-.913.912.912 0 1 0-.912.913ZM181.609 144.034a.912.912 0 0 0 0-1.825.914.914 0 1 0 0 1.825ZM179.286 149.465a.912.912 0 1 0 .002-1.824.912.912 0 0 0-.002 1.824ZM176.488 154.667a.913.913 0 1 0 0-1.823.913.913 0 0 0 0 1.823ZM173.233 159.598a.912.912 0 1 0 0-1.825.912.912 0 0 0 0 1.825ZM169.55 164.215a.912.912 0 1 0 .002-1.824.912.912 0 0 0-.002 1.824ZM165.468 168.484a.913.913 0 1 0 0-1.826.913.913 0 0 0 0 1.826ZM161.019 172.372a.913.913 0 1 0-.002-1.826.913.913 0 0 0 .002 1.826ZM156.238 175.843a.914.914 0 1 0 .003-1.827.914.914 0 0 0-.003 1.827ZM151.167 178.872a.913.913 0 1 0 .004-1.826.913.913 0 0 0-.004 1.826ZM145.846 181.436a.912.912 0 1 0 0-1.825.912.912 0 0 0 0 1.825ZM140.315 183.511a.912.912 0 1 0 .001-1.825.912.912 0 0 0-.001 1.825ZM134.621 185.082a.912.912 0 1 0 0-1.825.912.912 0 0 0 0 1.825ZM128.809 186.137a.913.913 0 1 0-.002-1.826.913.913 0 0 0 .002 1.826ZM122.926 186.668a.915.915 0 0 0 0-1.827.915.915 0 0 0-.915.913c0 .504.41.914.915.914ZM117.017 186.668a.913.913 0 1 0-.001-1.825.913.913 0 0 0 .001 1.825ZM111.134 186.137a.912.912 0 1 0 .001-1.825.912.912 0 0 0-.001 1.825ZM105.322 185.082a.913.913 0 1 0 0-1.826.913.913 0 0 0 0 1.826ZM99.628 183.511a.913.913 0 1 0-.002-1.826.913.913 0 0 0 .002 1.826ZM94.095 181.436a.913.913 0 1 0 0-1.826.913.913 0 0 0 0 1.826ZM88.774 178.872a.913.913 0 1 0-.001-1.824.913.913 0 0 0 0 1.824ZM83.703 175.843a.912.912 0 1 0 .001-1.824.912.912 0 0 0-.001 1.824ZM78.924 172.372a.914.914 0 0 0 0-1.827.913.913 0 0 0 0 1.827ZM74.475 168.484a.912.912 0 1 0 .002-1.823.912.912 0 0 0-.002 1.823ZM70.393 164.215a.913.913 0 1 0 0-1.826.913.913 0 0 0 0 1.826ZM66.71 159.598a.912.912 0 1 0 0-1.825.913.913 0 1 0 0 1.825ZM63.455 154.667a.913.913 0 1 0 0-1.826.913.913 0 0 0 0 1.826ZM60.656 149.465a.912.912 0 1 0 .001-1.824.912.912 0 0 0-.001 1.824ZM58.334 144.034a.912.912 0 1 0 0-1.825.912.912 0 1 0 0 1.825ZM56.51 138.417a.913.913 0 1 0-.001-1.826.913.913 0 0 0 0 1.826ZM55.195 132.659a.915.915 0 0 0 0-1.827.913.913 0 0 0 0 1.827ZM54.4 126.805a.913.913 0 1 0-.002-1.827.913.913 0 0 0 .002 1.827ZM54.135 120.904a.913.913 0 1 0 0-1.826.913.913 0 0 0 0 1.826ZM54.4 115.003a.913.913 0 1 0 0-1.826.913.913 0 0 0 0 1.826ZM55.195 109.15a.913.913 0 1 0-.002-1.827.913.913 0 0 0 .002 1.827ZM56.51 103.392a.914.914 0 0 0 0-1.827.913.913 0 0 0 0 1.827ZM58.335 97.754a.894.894 0 1 0 0-1.788.894.894 0 0 0 0 1.788ZM60.656 92.342a.912.912 0 1 0 .001-1.824.912.912 0 0 0-.001 1.824ZM63.455 87.121a.895.895 0 1 0 0-1.789.895.895 0 0 0 0 1.789ZM66.71 82.191a.893.893 0 1 0 0-1.788.893.893 0 1 0 0 1.788ZM70.393 77.593a.913.913 0 1 0 0-1.826.913.913 0 0 0 0 1.826ZM74.475 73.323a.911.911 0 1 0 0-1.825.913.913 0 0 0 0 1.825ZM78.924 69.418a.894.894 0 1 0 0-1.788.894.894 0 0 0 0 1.788ZM83.703 65.946a.894.894 0 1 0 0-1.789.894.894 0 0 0 0 1.789ZM88.774 62.934a.912.912 0 1 0 .002-1.823.912.912 0 0 0-.002 1.823ZM94.096 60.355a.896.896 0 1 0 0-1.792.896.896 0 0 0 0 1.791ZM99.628 58.295a.912.912 0 1 0 0-1.824.912.912 0 0 0 0 1.824ZM105.322 56.706a.894.894 0 1 0 0-1.788.894.894 0 0 0 0 1.788ZM111.134 55.67a.912.912 0 1 0 .002-1.824.912.912 0 0 0-.002 1.824ZM117.017 55.14a.912.912 0 1 0 0-1.823.912.912 0 0 0 0 1.824ZM122.926 55.14a.913.913 0 1 0-.002-1.824.913.913 0 0 0 .002 1.825ZM128.809 55.67a.912.912 0 1 0 0-1.825.912.912 0 0 0 0 1.825ZM134.621 56.725a.912.912 0 1 0 0-1.826.912.912 0 0 0 0 1.826ZM140.315 58.295a.912.912 0 1 0 .002-1.823.912.912 0 0 0-.002 1.823ZM145.846 60.373a.912.912 0 1 0 0-1.825.912.912 0 0 0 0 1.825ZM151.167 62.934a.913.913 0 1 0 .003-1.827.913.913 0 0 0-.003 1.827ZM156.238 65.964a.913.913 0 1 0 .003-1.826.913.913 0 0 0-.003 1.826ZM161.019 69.437a.913.913 0 1 0-.001-1.826.913.913 0 0 0 .001 1.826ZM165.468 73.323a.913.913 0 1 0 0-1.826.913.913 0 0 0 0 1.826ZM169.55 77.593a.912.912 0 1 0 .002-1.824.912.912 0 0 0-.002 1.824ZM173.233 82.211a.912.912 0 1 0 0-1.825.912.912 0 0 0 0 1.825ZM176.488 87.14a.913.913 0 1 0 0-1.827.913.913 0 0 0 0 1.827ZM179.286 92.342a.912.912 0 1 0 .002-1.824.912.912 0 0 0-.002 1.824ZM181.609 97.773a.912.912 0 0 0 0-1.825.913.913 0 1 0 0 1.825ZM183.434 103.392a.913.913 0 1 0-.001-1.825.913.913 0 0 0 .001 1.825ZM184.748 109.15a.912.912 0 1 0 .001-1.825.912.912 0 0 0-.001 1.825ZM185.541 115.003a.912.912 0 1 0 0-1.825.912.912 0 0 0 0 1.825ZM192.389 120.794a.803.803 0 1 0 0-1.608.803.803 0 0 0 0 1.608ZM192.149 126.697a.804.804 0 1 0-.002-1.608.804.804 0 0 0 .002 1.608ZM191.427 132.559a.804.804 0 1 0 .001-1.609.804.804 0 0 0-.001 1.609ZM190.231 138.344a.803.803 0 1 0 0-1.606.803.803 0 0 0 0 1.606ZM188.567 144.012a.803.803 0 1 0 0-1.607.803.803 0 0 0 0 1.607ZM186.446 149.525a.803.803 0 1 0-.003-1.607.803.803 0 0 0 .003 1.607ZM183.882 154.848a.805.805 0 1 0 0-1.605.805.805 0 0 0 0 1.605ZM180.894 159.943a.801.801 0 1 0 0-1.605.8.8 0 0 0-.803.803.8.8 0 0 0 .803.802ZM177.5 164.777a.802.802 0 1 0 0-1.605.802.802 0 1 0 0 1.605ZM173.723 169.32a.803.803 0 1 0 0-1.606.803.803 0 0 0 0 1.606ZM169.588 173.54a.802.802 0 1 0 .003-1.607.802.802 0 0 0-.003 1.607ZM165.123 177.408a.803.803 0 1 0 .002-1.606.803.803 0 0 0-.002 1.606ZM160.358 180.9a.803.803 0 1 0 0-1.606.803.803 0 0 0 0 1.606ZM155.324 183.993a.803.803 0 1 0 0-1.607.803.803 0 0 0 0 1.607ZM150.055 186.662a.804.804 0 1 0-.001-1.607.804.804 0 0 0 .001 1.607ZM144.586 188.895a.801.801 0 0 0 .802-.803.801.801 0 1 0-1.605 0c0 .444.358.803.803.803ZM138.953 190.676a.804.804 0 1 0-.002-1.608.804.804 0 0 0 .002 1.608ZM133.192 191.988a.802.802 0 1 0 .001-1.605.802.802 0 0 0-.001 1.605ZM127.346 192.83a.804.804 0 1 0-.003-1.609.804.804 0 0 0 .003 1.609ZM121.448 193.192a.802.802 0 1 0 0-1.607.802.802 0 0 0 0 1.607ZM115.543 193.071a.802.802 0 1 0-.003-1.605.802.802 0 0 0 .003 1.605ZM109.665 192.47a.804.804 0 1 0-.003-1.609.804.804 0 0 0 .003 1.609ZM103.856 191.391a.803.803 0 1 0 0-1.605.801.801 0 1 0 0 1.605ZM98.155 189.842a.803.803 0 1 0 0-1.606.803.803 0 0 0 0 1.606ZM92.6 187.834a.803.803 0 1 0-.001-1.606.803.803 0 0 0 0 1.606ZM87.225 185.382a.804.804 0 1 0 0-1.609.804.804 0 0 0 0 1.609ZM82.07 182.496a.802.802 0 1 0 0-1.604.802.802 0 0 0 0 1.604ZM77.167 179.203a.804.804 0 1 0-.001-1.607.804.804 0 0 0 .001 1.607ZM72.548 175.518a.802.802 0 1 0 0-1.605.802.802 0 0 0 0 1.605ZM68.245 171.472a.803.803 0 1 0 0-1.606.803.803 0 0 0 0 1.606ZM64.285 167.069a.785.785 0 1 0 0-1.57.785.785 0 0 0 0 1.57ZM60.697 162.377a.785.785 0 1 0-.001-1.57.785.785 0 0 0 .001 1.57ZM57.502 157.408a.786.786 0 0 0 0-1.571.785.785 0 0 0 0 1.571ZM54.724 152.195a.785.785 0 1 0 0-1.57.785.785 0 0 0 0 1.57ZM52.38 146.772a.787.787 0 0 0 .786-.785.787.787 0 0 0-1.57 0c0 .433.35.785.784.785ZM50.485 141.178a.785.785 0 1 0 0-1.57.785.785 0 0 0 0 1.57ZM49.055 135.445a.785.785 0 1 0 0-1.567.785.785 0 0 0 0 1.567ZM48.096 129.617a.785.785 0 1 0-.002-1.57.785.785 0 0 0 .002 1.57ZM47.613 123.729a.785.785 0 1 0 .002-1.57.785.785 0 0 0-.002 1.57ZM47.613 117.823a.787.787 0 0 0 .786-.784.785.785 0 1 0-.786.784ZM48.096 111.935a.785.785 0 1 0-.002-1.57.785.785 0 0 0 .002 1.57ZM49.055 106.105a.785.785 0 1 0-.001-1.57.785.785 0 0 0 .001 1.57ZM50.485 100.375a.783.783 0 1 0-.785-.784c0 .433.352.784.785.784ZM52.38 94.78a.786.786 0 1 0-.785-.784c0 .432.352.783.785.783ZM54.724 89.358a.785.785 0 1 0 0-1.57.785.785 0 0 0 0 1.57ZM57.502 84.144a.786.786 0 0 0 0-1.57.786.786 0 0 0 0 1.57ZM60.697 79.174a.784.784 0 1 0 0-1.568.784.784 0 0 0 0 1.568ZM64.285 74.482a.784.784 0 1 0 0-1.568.784.784 0 0 0 0 1.568ZM68.245 70.099a.786.786 0 0 0 0-1.57.784.784 0 1 0 0 1.57ZM72.547 66.05a.784.784 0 1 0 0-1.568.784.784 0 0 0 0 1.569ZM77.167 62.367a.786.786 0 1 0-.002-1.57.786.786 0 0 0 .002 1.57ZM82.07 59.072a.784.784 0 1 0 0-1.568.784.784 0 0 0 0 1.568ZM87.225 56.189a.786.786 0 0 0 .786-.785.786.786 0 0 0-1.57 0c0 .434.35.785.784.785ZM92.6 53.735a.784.784 0 1 0 0-1.569.784.784 0 0 0 0 1.569ZM98.156 51.727a.784.784 0 1 0 0-1.569.784.784 0 0 0 0 1.57ZM103.856 50.18a.785.785 0 1 0 .002-1.57.785.785 0 0 0-.002 1.57ZM109.666 49.101a.785.785 0 1 0-.001-1.57.785.785 0 0 0 .001 1.57ZM115.543 48.5a.786.786 0 1 0-.001-1.572.786.786 0 0 0 .001 1.572ZM121.448 48.379a.784.784 0 1 0 .001-1.569.784.784 0 0 0-.001 1.569ZM127.346 48.741a.786.786 0 1 0-.002-1.572.786.786 0 0 0 .002 1.572ZM133.192 49.58a.786.786 0 0 0 .787-.784.786.786 0 0 0-1.571 0c0 .433.351.784.784.784ZM138.953 50.895a.784.784 0 1 0 0-1.568.784.784 0 0 0 0 1.568ZM144.585 52.674a.784.784 0 1 0 .001-1.568.784.784 0 0 0-.001 1.568ZM150.055 54.907a.784.784 0 1 0 .001-1.569.784.784 0 0 0-.001 1.569ZM155.324 57.578a.784.784 0 1 0 .001-1.568.784.784 0 0 0-.001 1.568ZM160.359 60.67a.785.785 0 1 0-.003-1.57.785.785 0 0 0 .003 1.57ZM165.123 64.161a.785.785 0 1 0 .003-1.569.785.785 0 0 0-.003 1.57ZM169.588 68.05a.804.804 0 0 0 0-1.608.804.804 0 0 0 0 1.607ZM173.723 72.267a.803.803 0 1 0 0-1.605.803.803 0 0 0 0 1.605ZM177.5 76.81a.802.802 0 1 0 .002-1.604.802.802 0 0 0-.002 1.604ZM180.894 81.646a.803.803 0 1 0 0-1.606.803.803 0 0 0 0 1.606ZM183.882 86.74c.444 0 .805-.36.805-.802a.804.804 0 1 0-.805.802ZM186.446 92.064a.804.804 0 0 0 0-1.608.803.803 0 1 0 0 1.608ZM188.567 97.577a.804.804 0 1 0-.002-1.608.804.804 0 0 0 .002 1.608ZM190.231 103.245a.804.804 0 1 0-.002-1.608.804.804 0 0 0 .002 1.608ZM191.427 109.029a.805.805 0 1 0 0-1.61.805.805 0 0 0 0 1.61ZM192.149 114.892a.803.803 0 1 0 0-1.606.803.803 0 0 0 0 1.606ZM198.973 120.685a.693.693 0 1 0 0-1.39.693.693 0 0 0 0 1.39ZM198.752 126.587a.694.694 0 1 0 .001-1.389.694.694 0 0 0-.001 1.389ZM198.091 132.459a.694.694 0 1 0-.003-1.389.694.694 0 0 0 .003 1.389ZM196.992 138.263a.693.693 0 1 0 0-1.39.693.693 0 0 0 0 1.39ZM195.463 143.97a.695.695 0 1 0 0-1.39.695.695 0 0 0 0 1.39ZM193.512 149.545a.694.694 0 1 0 .002-1.388.694.694 0 0 0-.002 1.388ZM191.149 154.959a.694.694 0 1 0 .002-1.388.694.694 0 0 0-.002 1.388ZM188.388 160.183a.695.695 0 1 0 0-1.39.695.695 0 0 0 0 1.39ZM185.246 165.185a.694.694 0 1 0-.001-1.387.694.694 0 0 0 .001 1.387ZM181.737 169.92a.676.676 0 1 0 0-1.353.676.676 0 0 0 0 1.353ZM177.884 174.414a.692.692 0 1 0 0-1.386.694.694 0 0 0 0 1.386ZM173.706 178.593a.694.694 0 1 0-.001-1.387.694.694 0 0 0 .001 1.387ZM169.228 182.427a.676.676 0 1 0 .003-1.347.676.676 0 0 0-.003 1.347ZM164.475 185.954a.694.694 0 1 0-.002-1.388.694.694 0 0 0 .002 1.388ZM159.472 189.096a.694.694 0 1 0 .001-1.389.694.694 0 0 0-.001 1.389ZM154.249 191.857a.693.693 0 1 0 0-1.39.693.693 0 0 0 0 1.39ZM148.834 194.22a.694.694 0 1 0-.001-1.387.694.694 0 0 0 .001 1.387ZM143.258 196.171a.694.694 0 1 0-.002-1.388.694.694 0 0 0 .002 1.388ZM137.55 197.699a.694.694 0 1 0 .002-1.388.694.694 0 0 0-.002 1.388ZM131.746 198.796a.693.693 0 1 0 0-1.386.693.693 0 1 0 0 1.386ZM125.876 199.458a.693.693 0 1 0 0-1.386.693.693 0 0 0 0 1.386ZM119.971 199.68a.695.695 0 1 0-.001-1.39.695.695 0 0 0 .001 1.39ZM114.067 199.44a.676.676 0 0 0 0-1.351.676.676 0 0 0 0 1.351ZM108.197 198.78a.676.676 0 1 0-.003-1.353.676.676 0 0 0 .003 1.353ZM102.393 197.681a.676.676 0 1 0-.003-1.353.676.676 0 0 0 .003 1.353ZM96.685 196.152a.675.675 0 1 0 0-1.35.675.675 0 0 0 0 1.35ZM91.11 194.201a.675.675 0 1 0-.001-1.35.675.675 0 0 0 0 1.35ZM85.695 191.839a.676.676 0 1 0-.004-1.353.676.676 0 0 0 .004 1.353ZM80.47 189.078a.676.676 0 1 0 .001-1.348.676.676 0 0 0-.001 1.348ZM75.468 185.934a.674.674 0 1 0 0-1.349.675.675 0 1 0 0 1.349ZM70.715 182.427a.675.675 0 1 0 0-1.35.675.675 0 0 0 0 1.35ZM66.237 178.574a.675.675 0 1 0-.001-1.35.675.675 0 0 0 0 1.35ZM62.058 174.396a.675.675 0 1 0 .003-1.35.675.675 0 0 0-.003 1.35ZM58.204 169.92a.676.676 0 1 0 .001-1.352.676.676 0 0 0 0 1.352ZM54.697 165.165a.674.674 0 1 0 0-1.35.676.676 0 1 0 0 1.35ZM51.553 160.164a.676.676 0 0 0 0-1.352.676.676 0 0 0 0 1.352ZM48.794 154.942a.676.676 0 1 0-.002-1.351.676.676 0 0 0 .002 1.351ZM46.43 149.527a.676.676 0 1 0 0-1.351.676.676 0 0 0 0 1.351ZM44.48 143.95a.674.674 0 1 0 0-1.349.674.674 0 0 0 0 1.349ZM42.951 138.244a.675.675 0 1 0 0-1.35.675.675 0 0 0 0 1.35ZM41.852 132.439a.674.674 0 1 0 0-1.35.676.676 0 1 0 0 1.35ZM41.19 126.569a.674.674 0 1 0 0-1.349.674.674 0 0 0 0 1.349ZM40.969 120.666a.676.676 0 1 0 0-1.351.676.676 0 0 0 0 1.351ZM41.19 114.762a.674.674 0 1 0 0-1.349.674.674 0 0 0 0 1.349ZM41.852 108.892a.674.674 0 1 0 0-1.349.676.676 0 1 0 0 1.349ZM42.951 103.088a.676.676 0 1 0-.002-1.352.676.676 0 0 0 .002 1.352ZM44.48 97.381a.674.674 0 1 0 0-1.349.675.675 0 1 0 0 1.35ZM46.43 91.806a.675.675 0 1 0 0-1.351.676.676 0 1 0 0 1.351ZM48.794 86.392a.675.675 0 1 0 0-1.352.676.676 0 1 0 0 1.352ZM51.553 81.169a.676.676 0 1 0-.002-1.35.676.676 0 0 0 .002 1.35ZM54.697 76.166a.674.674 0 1 0 0-1.35.676.676 0 1 0 0 1.35ZM58.204 71.414a.676.676 0 1 0 .002-1.352.676.676 0 0 0-.002 1.352ZM62.058 66.937a.676.676 0 1 0 0-1.352.676.676 0 0 0 0 1.352ZM66.237 62.759a.676.676 0 1 0-.002-1.351.676.676 0 0 0 .002 1.35ZM70.715 58.906a.675.675 0 1 0-.001-1.352.675.675 0 0 0 .001 1.352ZM75.468 55.399a.676.676 0 1 0-.002-1.352.676.676 0 0 0 .002 1.352ZM80.47 52.255a.677.677 0 0 0 .676-.676.677.677 0 0 0-1.351 0c0 .373.302.676.675.676ZM85.695 49.494a.677.677 0 0 0 0-1.35.677.677 0 0 0-.677.676c0 .37.303.674.677.674ZM91.11 47.132a.676.676 0 1 0-.002-1.35.676.676 0 0 0 .002 1.35ZM96.685 45.18a.676.676 0 1 0-.002-1.351.676.676 0 0 0 .002 1.352ZM102.393 43.652a.676.676 0 1 0-.002-1.351.676.676 0 0 0 .002 1.351ZM108.197 42.555a.676.676 0 1 0-.002-1.352.676.676 0 0 0 .002 1.352ZM114.067 41.893a.675.675 0 1 0 0-1.35.675.675 0 0 0 0 1.35ZM119.971 41.672a.676.676 0 1 0 .002-1.353.676.676 0 0 0-.002 1.353ZM125.876 41.893a.675.675 0 1 0-.002-1.35.675.675 0 0 0 .002 1.35ZM131.746 42.555a.676.676 0 1 0-.002-1.352.676.676 0 0 0 .002 1.352ZM137.551 43.652a.675.675 0 1 0 .001-1.35.675.675 0 0 0-.001 1.35ZM143.258 45.18a.675.675 0 1 0 0-1.35.676.676 0 1 0 0 1.351ZM148.834 47.132a.674.674 0 1 0 0-1.351.676.676 0 1 0 0 1.351ZM154.249 49.494a.676.676 0 1 0-.001-1.353.676.676 0 0 0 .001 1.353ZM159.472 52.255a.677.677 0 0 0 0-1.35.676.676 0 0 0 0 1.35ZM164.475 55.399a.676.676 0 1 0-.002-1.352.676.676 0 0 0 .002 1.352ZM169.228 58.906a.676.676 0 1 0 .002-1.35.676.676 0 0 0-.002 1.35ZM173.706 62.759a.674.674 0 1 0 .001-1.35.674.674 0 0 0-.001 1.35ZM177.883 66.937a.676.676 0 0 0 0-1.351.675.675 0 0 0 0 1.351ZM181.737 71.414a.675.675 0 1 0 .001-1.351.675.675 0 0 0-.001 1.35ZM185.246 76.166a.674.674 0 1 0 .001-1.348.674.674 0 0 0-.001 1.348ZM188.388 81.169a.676.676 0 1 0 0-1.351.676.676 0 0 0 0 1.35ZM191.15 86.392a.675.675 0 1 0-.002-1.353.675.675 0 0 0 .002 1.353ZM193.512 91.806a.675.675 0 1 0 0-1.35.675.675 0 0 0 0 1.35ZM195.463 97.381a.674.674 0 1 0 .001-1.349.674.674 0 0 0-.001 1.35ZM196.992 103.088a.677.677 0 1 0 0-1.353.677.677 0 0 0 0 1.353ZM198.091 108.892a.674.674 0 1 0 0-1.349.674.674 0 1 0 0 1.349ZM198.751 114.762a.675.675 0 1 0 .004-1.35.675.675 0 0 0-.004 1.35ZM205.556 120.557a.566.566 0 1 0 .002-1.132.566.566 0 0 0-.002 1.132ZM205.353 126.461a.565.565 0 1 0-.001-1.131.565.565 0 0 0 .001 1.131ZM204.743 132.337a.567.567 0 1 0-.004-1.132.567.567 0 0 0 .004 1.132ZM203.728 138.157a.566.566 0 1 0-.002-1.132.566.566 0 0 0 .002 1.132ZM202.314 143.893a.566.566 0 1 0-.002-1.132.566.566 0 0 0 .002 1.132ZM200.507 149.518a.567.567 0 1 0 0-1.134.567.567 0 0 0 0 1.134ZM198.316 155.004a.565.565 0 1 0 .003-1.131.565.565 0 0 0-.003 1.131ZM195.754 160.327a.567.567 0 1 0-.004-1.132.567.567 0 0 0 .004 1.132ZM192.828 165.459a.565.565 0 1 0 .003-1.131.565.565 0 0 0-.003 1.131ZM189.556 170.378a.565.565 0 1 0 .003-1.131.565.565 0 0 0-.003 1.131ZM185.954 175.059a.565.565 0 1 0 0-1.129.565.565 0 1 0 0 1.129ZM182.035 179.483a.567.567 0 1 0 0-1.134.567.567 0 0 0 0 1.134ZM177.823 183.625a.566.566 0 1 0-.002-1.132.566.566 0 0 0 .002 1.132ZM173.333 187.465a.567.567 0 1 0-.004-1.134.567.567 0 0 0 .004 1.134ZM168.59 190.985a.564.564 0 1 0 0-1.13.565.565 0 1 0 0 1.13ZM163.614 194.172a.567.567 0 1 0 0-1.134.567.567 0 0 0 0 1.134ZM158.431 197.006a.564.564 0 1 0 0-1.13.564.564 0 1 0 0 1.13ZM153.066 199.479a.567.567 0 0 0 0-1.133.566.566 0 1 0 0 1.133ZM147.541 201.572a.565.565 0 1 0 0-1.13.565.565 0 0 0 0 1.13ZM141.885 203.282a.566.566 0 1 0-.002-1.132.566.566 0 0 0 .002 1.132ZM136.124 204.597a.566.566 0 1 0 0-1.131.566.566 0 0 0 0 1.131ZM130.287 205.511a.566.566 0 1 0 .002-1.132.566.566 0 0 0-.002 1.132ZM124.402 206.019a.564.564 0 1 0 0-1.131.566.566 0 1 0 0 1.131ZM118.495 206.122a.565.565 0 1 0-.001-1.133.565.565 0 0 0 .001 1.133ZM112.594 205.816a.567.567 0 1 0-.002-1.134.567.567 0 0 0 .002 1.134ZM106.728 205.105a.565.565 0 1 0-.001-1.131.565.565 0 0 0 .001 1.131ZM100.926 203.99a.567.567 0 1 0 0-1.134.567.567 0 0 0 0 1.134ZM95.215 202.478a.567.567 0 0 0 0-1.134.566.566 0 0 0-.565.567c0 .313.252.567.565.567ZM89.623 200.574a.565.565 0 1 0 0-1.13.565.565 0 0 0 0 1.13ZM84.172 198.29a.567.567 0 1 0 0-1.134.567.567 0 0 0 0 1.134ZM78.895 195.635a.566.566 0 1 0 .003-1.133.566.566 0 0 0-.003 1.133ZM73.813 192.621a.566.566 0 1 0 .003-1.131.566.566 0 0 0-.003 1.131ZM68.95 189.266a.567.567 0 0 0 .567-.567.567.567 0 1 0-.567.567ZM64.333 185.583a.567.567 0 1 0-.004-1.134.567.567 0 0 0 .004 1.134ZM59.978 181.59a.567.567 0 1 0-.003-1.133.567.567 0 0 0 .003 1.133ZM55.91 177.305a.566.566 0 1 0 .002-1.131.566.566 0 0 0-.002 1.131ZM52.146 172.75a.566.566 0 1 0 .001-1.132.566.566 0 0 0-.001 1.132ZM48.708 167.948a.566.566 0 1 0-.001-1.132.566.566 0 0 0 0 1.132ZM45.607 162.917a.566.566 0 1 0 .002-1.131.566.566 0 0 0-.002 1.131ZM42.861 157.688a.566.566 0 1 0-.001-1.132.566.566 0 0 0 .001 1.132ZM40.484 152.279a.565.565 0 1 0 0-1.13.565.565 0 0 0 0 1.13ZM38.484 146.72a.566.566 0 1 0 .002-1.131.566.566 0 0 0-.002 1.131ZM36.872 141.037a.567.567 0 1 0 0-1.13.567.567 0 0 0 0 1.13ZM35.658 135.255a.566.566 0 1 0-.001-1.132.566.566 0 0 0 .001 1.132ZM34.844 129.404a.566.566 0 1 0 .002-1.132.566.566 0 0 0-.002 1.132ZM34.436 123.511a.566.566 0 1 0-.001-1.135.566.566 0 0 0 0 1.135ZM34.436 117.603a.565.565 0 1 0 0-1.131.565.565 0 0 0 0 1.131ZM34.844 111.708a.566.566 0 1 0 0-1.13.566.566 0 1 0 0 1.13ZM35.658 105.858a.566.566 0 1 0 0-1.131.566.566 0 0 0 0 1.131ZM36.872 100.077a.567.567 0 0 0 0-1.132.567.567 0 0 0 0 1.132ZM38.484 94.393a.566.566 0 1 0 .001-1.132.566.566 0 0 0-.001 1.132ZM40.484 88.835a.567.567 0 0 0 0-1.132.566.566 0 1 0 0 1.132ZM42.861 83.425a.564.564 0 1 0 0-1.13.566.566 0 1 0 0 1.13ZM45.607 78.196a.566.566 0 1 0 .003-1.133.566.566 0 0 0-.003 1.133ZM48.708 73.165a.564.564 0 1 0 0-1.13.566.566 0 1 0 0 1.13ZM52.146 68.364a.566.566 0 1 0 .002-1.132.566.566 0 0 0-.002 1.132ZM55.91 63.809a.567.567 0 1 0 0-1.135.567.567 0 0 0 0 1.135ZM59.978 59.524a.566.566 0 1 0-.002-1.132.566.566 0 0 0 .002 1.132ZM64.333 55.53a.565.565 0 1 0 0-1.13.565.565 0 0 0 0 1.13ZM68.95 51.848a.567.567 0 0 0 0-1.132.567.567 0 0 0 0 1.132ZM73.813 48.492a.566.566 0 1 0 .002-1.132.566.566 0 0 0-.002 1.132ZM78.895 45.479a.566.566 0 1 0 .002-1.132.566.566 0 0 0-.002 1.132ZM84.172 42.825a.567.567 0 0 0 0-1.133.566.566 0 0 0 0 1.133ZM89.623 40.542a.566.566 0 1 0-.002-1.132.566.566 0 0 0 .002 1.132ZM95.215 38.638a.566.566 0 1 0 .002-1.132.566.566 0 0 0-.002 1.132ZM100.926 37.124a.566.566 0 1 0 .003-1.131.566.566 0 0 0-.003 1.131ZM106.728 36.01a.566.566 0 1 0-.001-1.13.566.566 0 0 0 .001 1.13ZM112.594 35.297a.565.565 0 1 0 .001-1.13.565.565 0 0 0-.001 1.13ZM118.495 34.992a.566.566 0 1 0-.001-1.133.566.566 0 0 0 .001 1.133ZM124.402 35.094a.566.566 0 1 0-.002-1.132.566.566 0 0 0 .002 1.132ZM130.287 35.603a.566.566 0 1 0 .001-1.133.566.566 0 0 0-.001 1.133ZM136.124 36.517a.565.565 0 1 0 .002-1.13.565.565 0 0 0-.002 1.13ZM141.885 37.831a.566.566 0 1 0-.002-1.131.566.566 0 0 0 .002 1.131ZM147.541 39.541a.567.567 0 1 0-.004-1.133.567.567 0 0 0 .004 1.133ZM153.066 41.635a.566.566 0 1 0-.003-1.133.566.566 0 0 0 .003 1.133ZM158.431 44.105a.564.564 0 1 0 0-1.13.564.564 0 1 0 0 1.13ZM163.614 46.942a.567.567 0 1 0 0-1.13.567.567 0 0 0 0 1.13ZM168.59 50.127a.565.565 0 1 0 0-1.13.566.566 0 1 0 0 1.13ZM173.333 53.649a.565.565 0 1 0 0-1.13.565.565 0 0 0 0 1.13ZM177.823 57.49a.566.566 0 1 0-.001-1.13.566.566 0 0 0 .001 1.13ZM182.035 61.63a.566.566 0 1 0 .003-1.13.566.566 0 0 0-.003 1.13ZM185.954 66.054a.566.566 0 1 0 0-1.132.566.566 0 1 0 0 1.132ZM189.556 70.735a.566.566 0 1 0 .003-1.132.566.566 0 0 0-.003 1.132ZM192.828 75.654a.567.567 0 1 0 0-1.134.567.567 0 0 0 0 1.134ZM195.754 80.787a.566.566 0 1 0-.003-1.132.566.566 0 0 0 .003 1.132ZM198.316 86.11a.566.566 0 1 0 .003-1.132.566.566 0 0 0-.003 1.132ZM200.507 91.596a.566.566 0 1 0 0-1.132.566.566 0 1 0 0 1.132ZM202.314 97.22a.566.566 0 1 0-.003-1.132.566.566 0 0 0 .003 1.133ZM203.728 102.957a.565.565 0 1 0 0-1.13.565.565 0 0 0 0 1.13ZM204.743 108.777a.566.566 0 1 0-.002-1.132.566.566 0 0 0 .002 1.132ZM205.353 114.652a.565.565 0 1 0 0-1.131.566.566 0 1 0 0 1.131ZM212.14 120.447a.457.457 0 1 0 0-.914.457.457 0 0 0 0 .914ZM211.951 126.351a.457.457 0 1 0-.002-.914.457.457 0 0 0 .002.914ZM211.384 132.232a.457.457 0 1 0-.002-.914.457.457 0 0 0 .002.914ZM210.441 138.066a.458.458 0 1 0-.001-.915.458.458 0 0 0 .001.915ZM209.126 143.824a.455.455 0 1 0-.457-.455c0 .252.205.455.457.455ZM207.446 149.489a.456.456 0 1 0-.002-.912.456.456 0 0 0 .002.912ZM205.404 155.033a.458.458 0 1 0 0-.915.458.458 0 0 0 0 .915ZM203.012 160.435a.457.457 0 1 0 .003-.91.457.457 0 0 0-.003.91ZM200.28 165.672a.456.456 0 1 0 0-.912.456.456 0 0 0 0 .912ZM197.217 170.724a.456.456 0 1 0 .003-.913.456.456 0 0 0-.003.913ZM193.835 175.57a.457.457 0 1 0 .003-.91.457.457 0 0 0-.003.91ZM190.153 180.189a.458.458 0 1 0-.001-.915.458.458 0 0 0 .001.915ZM186.18 184.562a.456.456 0 1 0 0-.912.456.456 0 0 0 0 .912ZM181.936 188.672a.457.457 0 1 0 0-.913.457.457 0 0 0 0 .913ZM177.438 192.503a.458.458 0 1 0-.001-.915.458.458 0 0 0 .001.915ZM172.703 196.036a.456.456 0 1 0-.002-.912.456.456 0 0 0 .002.912ZM167.75 199.257a.455.455 0 1 0 .004-.91.455.455 0 0 0-.004.91ZM162.603 202.158a.458.458 0 1 0-.001-.915.458.458 0 0 0 .001.915ZM157.279 204.721a.457.457 0 1 0 0-.914.457.457 0 0 0 0 .914ZM151.804 206.937a.456.456 0 1 0-.002-.912.456.456 0 0 0 .002.912ZM146.197 208.798a.456.456 0 1 0-.002-.912.456.456 0 0 0 .002.912ZM140.48 210.296a.456.456 0 1 0 .004-.912.456.456 0 0 0-.004.912ZM134.681 211.426a.457.457 0 1 0 0-.914.457.457 0 0 0 0 .914ZM128.822 212.181a.456.456 0 1 0-.002-.912.456.456 0 0 0 .002.912ZM122.926 212.56a.456.456 0 1 0-.002-.912.456.456 0 0 0 .002.912ZM117.017 212.56a.456.456 0 1 0 .001-.913.456.456 0 0 0-.001.913ZM111.121 212.181a.457.457 0 1 0 .003-.913.457.457 0 0 0-.003.913ZM105.26 211.426a.457.457 0 0 0 .458-.455.457.457 0 1 0-.458.455ZM99.461 210.296a.456.456 0 1 0 .003-.911.456.456 0 0 0-.003.911ZM93.747 208.798a.456.456 0 1 0 .001-.913.456.456 0 0 0-.001.913ZM88.14 206.937a.456.456 0 1 0 0-.913.456.456 0 0 0 0 .913ZM82.662 204.721a.457.457 0 1 0 0-.915.457.457 0 0 0 0 .915ZM77.339 202.158a.457.457 0 0 0 0-.913.456.456 0 0 0 0 .913ZM72.19 199.257a.456.456 0 1 0 .004-.911.456.456 0 0 0-.003.911ZM67.238 196.036a.456.456 0 1 0 .002-.913.456.456 0 0 0-.002.913ZM62.506 192.503a.457.457 0 1 0-.003-.914.457.457 0 0 0 .003.914ZM58.007 188.672a.456.456 0 1 0-.002-.912.456.456 0 0 0 .002.912ZM53.761 184.562a.457.457 0 0 0 0-.914.457.457 0 0 0 0 .914ZM49.788 180.189a.457.457 0 0 0 0-.913.456.456 0 0 0 0 .913ZM46.106 175.57a.456.456 0 1 0 .002-.911.456.456 0 0 0-.002.911ZM42.726 170.724a.456.456 0 1 0 0-.911.456.456 0 0 0 0 .911ZM39.663 165.653a.438.438 0 1 0 .001-.876.438.438 0 0 0-.001.876ZM36.931 160.416a.437.437 0 1 0 0-.876.438.438 0 1 0 0 .876ZM34.539 155.015a.439.439 0 0 0 0-.876.438.438 0 1 0 0 .876ZM32.498 149.47a.44.44 0 0 0 0-.878.44.44 0 0 0 0 .878ZM30.815 143.805a.437.437 0 1 0 .003-.875.437.437 0 0 0-.003.875ZM29.503 138.047a.438.438 0 1 0-.002-.876.438.438 0 0 0 .002.876ZM28.558 132.214a.438.438 0 1 0 .002-.876.438.438 0 0 0-.002.876ZM27.992 126.334a.437.437 0 1 0-.001-.875.437.437 0 0 0 0 .875ZM27.802 120.429a.438.438 0 1 0 .002-.875.438.438 0 0 0-.002.875ZM27.992 114.524a.437.437 0 1 0-.001-.875.437.437 0 0 0 0 .875ZM28.558 108.643a.438.438 0 1 0 .001-.877.438.438 0 0 0 0 .877ZM29.503 102.812a.438.438 0 1 0-.003-.877.438.438 0 0 0 .003.877ZM30.815 97.052a.438.438 0 1 0 .003-.875.438.438 0 0 0-.003.875ZM32.498 91.389a.439.439 0 1 0 0-.874.439.439 0 0 0 0 .874ZM34.539 85.845a.438.438 0 1 0-.003-.877.438.438 0 0 0 .003.877ZM36.931 80.441a.437.437 0 1 0 0-.874.437.437 0 0 0 0 .874ZM39.663 75.204a.438.438 0 1 0 0-.877.438.438 0 0 0 0 .877ZM42.726 70.152a.437.437 0 1 0 0-.874.437.437 0 0 0 0 .874ZM46.105 65.306a.437.437 0 1 0 .003-.875.437.437 0 0 0-.002.875ZM49.789 60.689a.439.439 0 1 0 0-.878.439.439 0 0 0 0 .878ZM53.76 56.315a.438.438 0 1 0 .003-.876.438.438 0 0 0-.002.876ZM58.007 52.204a.437.437 0 1 0 0-.874.437.437 0 0 0 0 .874ZM62.506 48.375a.437.437 0 1 0 0-.875.437.437 0 0 0 0 .875ZM67.239 44.842a.439.439 0 1 0 0-.878.439.439 0 0 0 0 .878ZM72.19 41.619a.437.437 0 1 0 .004-.875.437.437 0 0 0-.003.875ZM77.339 38.718a.439.439 0 1 0 0-.874.439.439 0 0 0 0 .874ZM82.662 36.157a.439.439 0 1 0 0-.878.439.439 0 0 0 0 .878ZM88.14 33.938a.437.437 0 1 0 0-.874.437.437 0 0 0 0 .874ZM93.746 32.077a.439.439 0 1 0 .001-.877.439.439 0 0 0 0 .877ZM99.461 30.58a.439.439 0 1 0 0-.874.439.439 0 0 0 0 .874ZM105.26 29.45a.438.438 0 1 0 .003-.876.438.438 0 0 0-.003.875ZM111.121 28.694a.437.437 0 0 0 0-.876.438.438 0 1 0 0 .876ZM117.017 28.316a.437.437 0 1 0-.439-.437c0 .24.198.436.439.436ZM122.926 28.316a.437.437 0 1 0 0-.875.437.437 0 0 0 0 .875ZM128.822 28.694a.438.438 0 1 0-.001-.875.438.438 0 0 0 .001.875ZM134.681 29.45a.438.438 0 1 0 .003-.876.438.438 0 0 0-.003.875ZM140.48 30.58a.438.438 0 1 0 .003-.876.438.438 0 0 0-.003.876ZM146.197 32.077a.437.437 0 1 0 0-.875.437.437 0 0 0 0 .875ZM151.803 33.938a.438.438 0 1 0-.002-.875.438.438 0 0 0 .002.876ZM157.279 36.157a.438.438 0 1 0 .002-.876.438.438 0 0 0-.002.876ZM162.603 38.739a.457.457 0 1 0 0-.915.457.457 0 0 0 0 .915ZM167.75 41.637a.456.456 0 1 0 .001-.913.456.456 0 0 0-.001.913ZM172.703 44.859a.456.456 0 1 0-.001-.914.456.456 0 0 0 .001.914ZM177.437 48.375a.438.438 0 1 0 .002-.876.438.438 0 0 0-.002.876ZM181.936 52.223a.457.457 0 1 0 0-.914.457.457 0 0 0 0 .914ZM186.18 56.333a.456.456 0 1 0 0-.912.456.456 0 0 0 0 .912ZM190.153 60.705a.456.456 0 1 0 .002-.911.456.456 0 0 0-.002.911ZM193.835 65.324a.457.457 0 1 0 0-.912.457.457 0 0 0 0 .912ZM197.217 70.17a.457.457 0 1 0 .002-.914.457.457 0 0 0-.002.914ZM200.28 75.223a.456.456 0 1 0 0-.912.456.456 0 0 0 0 .912ZM203.012 80.461a.457.457 0 1 0 .001-.915.457.457 0 0 0-.001.915ZM205.404 85.863a.456.456 0 1 0 0-.913.456.456 0 1 0 0 .913ZM207.446 91.408a.456.456 0 0 0 .455-.457.455.455 0 1 0-.913 0c0 .252.205.457.458.457ZM209.126 97.07a.456.456 0 1 0-.001-.91.456.456 0 0 0 .001.91ZM210.441 102.831a.458.458 0 0 0 0-.915.456.456 0 0 0-.456.457c0 .253.203.458.456.458ZM211.384 108.662a.456.456 0 1 0 0-.912.456.456 0 0 0 0 .912ZM211.951 114.543a.457.457 0 1 0-.003-.915.457.457 0 0 0 .003.915ZM218.723 120.337a.346.346 0 1 0 0-.693.346.346 0 1 0 0 .693ZM218.548 126.243c.19 0 .345-.154.345-.347a.346.346 0 1 0-.693 0c0 .193.156.347.348.347ZM218.017 132.126a.346.346 0 1 0 0-.693.347.347 0 0 0-.347.348c0 .192.155.345.347.345ZM217.138 137.969a.347.347 0 1 0-.003-.693.347.347 0 0 0 .003.693ZM215.909 143.746a.346.346 0 1 0-.001-.691.346.346 0 0 0 .001.691ZM214.336 149.443a.346.346 0 1 0 .002-.694.346.346 0 0 0-.002.694ZM212.427 155.033a.345.345 0 0 0 .345-.346.345.345 0 1 0-.691 0c0 .19.154.346.346.346ZM210.186 160.5a.347.347 0 1 0-.002-.694.347.347 0 0 0 .002.694ZM207.623 165.823a.347.347 0 1 0 0-.692.347.347 0 0 0-.348.345c0 .192.156.347.348.347ZM204.744 170.984a.348.348 0 1 0 0-.694.347.347 0 0 0 0 .694ZM201.564 175.963a.347.347 0 0 0 0-.695.347.347 0 0 0 0 .695ZM198.091 180.741a.347.347 0 1 0 .002-.692.347.347 0 0 0-.002.692ZM194.339 185.305a.347.347 0 1 0 0-.694.347.347 0 0 0 0 .694ZM190.321 189.635a.344.344 0 0 0 .345-.345.346.346 0 1 0-.693 0c0 .19.156.345.348.345ZM186.049 193.718a.346.346 0 1 0 .002-.692.346.346 0 0 0-.002.692ZM181.543 197.539a.347.347 0 1 0-.004-.694.347.347 0 0 0 .004.694ZM176.815 201.082a.347.347 0 1 0-.002-.694.347.347 0 0 0 .002.694ZM171.884 204.337a.347.347 0 0 0 0-.693.347.347 0 0 0 0 .693ZM166.766 207.29a.347.347 0 1 0 .002-.694.347.347 0 0 0-.002.694ZM161.483 209.934a.346.346 0 0 0 .346-.347.347.347 0 1 0-.693 0c0 .192.155.347.347.347ZM156.05 212.255a.347.347 0 1 0-.002-.694.347.347 0 0 0 .002.694ZM150.487 214.248a.347.347 0 1 0 .002-.694.347.347 0 0 0-.002.694ZM144.816 215.905a.347.347 0 1 0 0-.695.347.347 0 0 0 0 .695ZM139.056 217.219a.346.346 0 1 0 0-.693.347.347 0 1 0 0 .693ZM133.227 218.186a.345.345 0 1 0 0-.692.347.347 0 1 0 0 .692ZM127.351 218.805a.347.347 0 1 0-.001-.693.347.347 0 0 0 .001.693ZM121.449 219.07a.347.347 0 0 0 0-.693.347.347 0 0 0 0 .693ZM115.541 218.982a.346.346 0 1 0 0-.693.346.346 0 1 0 0 .693ZM109.649 218.54a.347.347 0 1 0-.003-.695.347.347 0 0 0 .003.695ZM103.794 217.729a.328.328 0 1 0 .001-.655.328.328 0 0 0-.001.655ZM97.996 216.605a.347.347 0 1 0 0-.695.347.347 0 0 0 0 .695ZM92.278 215.1a.328.328 0 1 0 .002-.657.328.328 0 0 0-.002.657ZM86.66 213.275a.327.327 0 0 0 .327-.329.328.328 0 1 0-.657 0c0 .183.147.329.33.329ZM81.159 211.118a.33.33 0 0 0 0-.659.33.33 0 0 0 0 .659ZM75.799 208.634a.328.328 0 1 0-.002-.657.328.328 0 0 0 .002.657ZM70.594 205.835a.33.33 0 0 0 0-.659.33.33 0 0 0 0 .659ZM65.57 202.728a.329.329 0 1 0 0-.658.329.329 0 0 0 0 .658ZM60.738 199.327a.328.328 0 1 0-.002-.657.328.328 0 0 0 .002.657ZM56.118 195.644a.328.328 0 1 0-.329-.327c0 .181.148.327.33.327ZM51.728 191.691a.33.33 0 1 0 0-.658.33.33 0 0 0 0 .658ZM47.58 187.481c.183 0 .329-.146.329-.327a.329.329 0 1 0-.657 0c0 .181.147.327.328.327ZM43.694 183.032a.328.328 0 1 0 0-.656.328.328 0 1 0 0 .656ZM40.078 178.361a.33.33 0 0 0 0-.659.33.33 0 0 0 0 .659ZM36.752 173.478a.327.327 0 0 0 .327-.328.328.328 0 1 0-.657 0c0 .182.147.328.33.328ZM33.72 168.408a.33.33 0 0 0 0-.659.33.33 0 0 0 0 .659ZM30.998 163.163a.329.329 0 1 0 .001-.657.329.329 0 0 0 0 .657ZM28.595 157.764a.328.328 0 1 0 0-.656.33.33 0 0 0-.329.329c0 .182.146.327.33.327ZM26.52 152.235a.33.33 0 0 0 .329-.329.329.329 0 1 0-.33.329ZM24.777 146.589a.328.328 0 1 0 0-.657.328.328 0 1 0 0 .657ZM23.378 140.849a.328.328 0 1 0-.002-.657.328.328 0 0 0 .002.657ZM22.32 135.037a.328.328 0 1 0 .003-.656.328.328 0 0 0-.002.656ZM21.617 129.172a.33.33 0 0 0 0-.659.33.33 0 0 0 0 .659ZM21.262 123.274a.329.329 0 1 0 0-.658.329.329 0 0 0 0 .658ZM21.262 117.366a.329.329 0 1 0-.327-.329c0 .183.146.329.327.329ZM21.617 111.469a.328.328 0 1 0-.002-.66.328.328 0 0 0 .002.66ZM22.32 105.603a.328.328 0 1 0 .002-.657.328.328 0 0 0-.001.657ZM23.378 99.79a.327.327 0 0 0 .327-.33.326.326 0 0 0-.327-.327.328.328 0 1 0 0 .656ZM24.777 94.05a.327.327 0 1 0 0-.657.329.329 0 1 0 0 .657ZM26.52 88.405a.33.33 0 1 0 0-.659.33.33 0 0 0 0 .659ZM28.595 82.873a.329.329 0 1 0 0-.656.329.329 0 0 0 0 .656ZM30.998 77.477a.33.33 0 1 0 0-.66.33.33 0 0 0 0 .66ZM33.72 72.233a.329.329 0 1 0 0-.658.329.329 0 0 0 0 .658ZM36.752 67.16a.327.327 0 0 0 .327-.329.327.327 0 0 0-.327-.327.328.328 0 1 0 0 .656ZM40.078 62.28a.329.329 0 1 0 0-.658.329.329 0 0 0 0 .658ZM43.694 57.606a.329.329 0 1 0 .001-.656.329.329 0 0 0-.001.656ZM47.58 53.157a.329.329 0 1 0 0-.658.329.329 0 0 0 0 .658ZM51.728 48.948a.329.329 0 1 0 0-.658.329.329 0 0 0 0 .658ZM56.118 44.996a.33.33 0 0 0 .33-.33.33.33 0 0 0-.33-.328.33.33 0 0 0-.329.329c0 .181.148.33.33.33ZM60.738 41.311a.327.327 0 0 0 .327-.329.329.329 0 1 0-.327.33ZM65.57 37.912a.329.329 0 1 0 0-.659.329.329 0 0 0 0 .66ZM70.594 34.805a.329.329 0 1 0 0-.657.329.329 0 0 0 0 .657ZM75.799 32.006a.329.329 0 1 0-.003-.658.329.329 0 0 0 .003.658ZM81.159 29.523a.329.329 0 1 0-.003-.658.329.329 0 0 0 .003.658ZM86.66 27.363a.329.329 0 1 0-.002-.656.329.329 0 0 0 .002.656ZM92.278 25.538a.328.328 0 1 0 .001-.656.328.328 0 0 0-.001.656ZM97.996 24.052a.329.329 0 1 0 0-.659.329.329 0 0 0 0 .659ZM103.794 22.91a.328.328 0 1 0 .001-.656.328.328 0 0 0-.001.656ZM109.649 22.117a.33.33 0 0 0 .33-.327.33.33 0 0 0-.659 0c0 .18.148.327.329.327ZM115.541 21.676a.328.328 0 1 0-.001-.657.328.328 0 0 0 .001.657ZM121.448 21.587a.328.328 0 1 0 0-.656.329.329 0 1 0 0 .655ZM127.351 21.852a.328.328 0 1 0-.003-.656.328.328 0 0 0 .003.656ZM133.227 22.47a.328.328 0 1 0 .001-.657.328.328 0 0 0-.001.657ZM139.056 23.439a.33.33 0 1 0 0-.659.33.33 0 0 0 0 .659ZM144.816 24.752a.328.328 0 1 0 .001-.657.328.328 0 0 0-.001.657ZM150.487 26.408a.328.328 0 1 0 0-.656.327.327 0 0 0-.327.327c0 .183.146.33.327.33ZM156.05 28.401a.329.329 0 1 0 0-.657.329.329 0 0 0 0 .657ZM161.483 30.724a.329.329 0 1 0-.001-.657.329.329 0 0 0 .001.657ZM166.766 33.366a.328.328 0 1 0 .001-.657.328.328 0 0 0-.001.657ZM171.883 36.32a.329.329 0 1 0 0-.656.329.329 0 0 0 0 .656ZM176.816 39.574a.328.328 0 1 0 .001-.657.328.328 0 0 0-.001.657ZM181.543 43.118a.328.328 0 1 0 0-.656.33.33 0 0 0-.33.329.33.33 0 0 0 .33.327ZM186.049 46.94a.33.33 0 0 0 0-.659.33.33 0 0 0 0 .659ZM190.321 51.021a.327.327 0 0 0 .327-.329.328.328 0 1 0-.327.33ZM194.339 55.353a.329.329 0 1 0 0-.657.329.329 0 0 0 0 .657ZM198.091 59.916a.328.328 0 1 0 .001-.657.328.328 0 0 0-.001.657ZM201.564 64.695a.329.329 0 1 0 0-.657.329.329 0 0 0 0 .657ZM204.744 69.675a.329.329 0 1 0 0-.658.329.329 0 0 0 0 .658ZM207.623 74.833a.328.328 0 1 0 .001-.657.328.328 0 0 0-.001.657ZM210.187 80.158a.33.33 0 1 0-.001-.66.33.33 0 0 0 .001.66ZM212.427 85.623a.328.328 0 1 0 .001-.656.328.328 0 0 0-.001.656ZM214.336 91.213a.327.327 0 0 0 .329-.327.33.33 0 1 0-.657 0c0 .18.147.327.328.327ZM215.909 96.91a.329.329 0 1 0 0-.658.329.329 0 0 0 0 .658ZM217.138 102.688a.327.327 0 0 0 .327-.328.329.329 0 1 0-.327.328ZM218.017 108.53a.329.329 0 1 0 0-.657.329.329 0 0 0 0 .657ZM218.548 114.433c.19 0 .345-.155.345-.347a.346.346 0 1 0-.693 0c0 .192.156.347.348.347ZM225.307 120.209a.219.219 0 1 0 0-.437.219.219 0 1 0 0 .437ZM225.142 126.116a.218.218 0 1 0 0-.437.218.218 0 0 0 0 .437ZM224.645 132.003a.22.22 0 0 0 .219-.219.219.219 0 1 0-.219.219ZM223.82 137.854a.22.22 0 0 0 0-.44.219.219 0 0 0-.219.22c0 .121.096.22.219.22ZM222.666 143.648a.22.22 0 0 0 0-.439.219.219 0 0 0-.218.22c0 .12.097.219.218.219ZM221.19 149.368a.22.22 0 1 0 0-.44.22.22 0 0 0 0 .44ZM219.396 154.997a.218.218 0 1 0 0-.437.219.219 0 1 0 0 .437ZM217.29 160.517a.219.219 0 1 0-.003-.437.219.219 0 0 0 .003.437ZM214.875 165.909a.22.22 0 0 0 .22-.22.22.22 0 0 0-.22-.219.22.22 0 0 0-.219.219c0 .121.099.22.219.22ZM212.164 171.159a.22.22 0 0 0 .219-.219.22.22 0 0 0-.219-.22.22.22 0 0 0-.22.22c0 .12.099.219.22.219ZM209.162 176.246a.216.216 0 0 0 .218-.217.218.218 0 0 0-.218-.22.218.218 0 0 0-.219.22c0 .121.097.217.219.217ZM205.878 181.16a.22.22 0 1 0-.218-.22c0 .121.099.22.218.22ZM202.326 185.879a.218.218 0 1 0 0-.436.218.218 0 1 0 0 .436ZM198.514 190.394a.218.218 0 0 0 .219-.219.22.22 0 1 0-.219.219ZM194.455 194.688a.22.22 0 0 0 .22-.22.22.22 0 0 0-.22-.219.22.22 0 0 0 0 .439ZM190.162 198.747a.22.22 0 1 0 0-.44.22.22 0 0 0 0 .44ZM185.647 202.558a.22.22 0 0 0 .219-.22.22.22 0 0 0-.219-.219.22.22 0 0 0-.22.219c0 .121.099.22.22.22ZM180.927 206.109a.219.219 0 1 0 0-.437.22.22 0 0 0-.22.219c0 .121.099.218.22.218ZM176.012 209.393a.22.22 0 0 0 .22-.22.219.219 0 1 0-.437 0c0 .121.097.22.217.22ZM170.925 212.393a.217.217 0 0 0 .218-.219.216.216 0 0 0-.218-.217.217.217 0 0 0-.219.217c0 .123.097.219.219.219ZM165.675 215.106a.219.219 0 1 0 0-.437.219.219 0 1 0 0 .437ZM160.281 217.52a.219.219 0 0 0 .218-.22.218.218 0 1 0-.437 0c0 .121.099.22.219.22ZM154.761 219.626a.22.22 0 0 0 0-.439.219.219 0 0 0-.218.219c0 .121.097.22.218.22ZM149.131 221.42a.218.218 0 1 0 0-.437.218.218 0 0 0-.219.217c0 .123.099.22.219.22ZM143.411 222.895a.218.218 0 1 0 0-.436.218.218 0 1 0 0 .436ZM137.616 224.049a.218.218 0 0 0 .218-.219.218.218 0 0 0-.218-.22.218.218 0 0 0-.219.22c0 .121.097.219.219.219ZM131.766 224.874a.22.22 0 1 0-.003-.44.22.22 0 0 0 .003.44ZM125.878 225.371a.22.22 0 1 0-.001-.44.22.22 0 0 0 .001.44ZM119.971 225.536a.219.219 0 1 0 0-.438.219.219 0 0 0 0 .438ZM114.066 225.371a.22.22 0 0 0 .219-.219c0-.12-.099-.22-.219-.22a.22.22 0 1 0 0 .439ZM108.177 224.874a.22.22 0 0 0 0-.439.22.22 0 0 0 0 .439ZM102.327 224.049a.219.219 0 0 0 .219-.219.22.22 0 1 0-.219.219ZM96.531 222.895a.218.218 0 1 0 0-.436.218.218 0 1 0 0 .436ZM90.811 221.42c.121 0 .218-.097.218-.22a.216.216 0 0 0-.218-.217c-.12 0-.22.096-.22.217 0 .123.1.22.22.22ZM85.18 219.626a.22.22 0 0 0 .22-.22.22.22 0 0 0-.22-.219.22.22 0 0 0-.22.219c0 .121.1.22.22.22ZM79.661 217.52a.22.22 0 1 0 0-.44.22.22 0 0 0 0 .44ZM74.269 215.106c.12 0 .217-.097.217-.219a.217.217 0 0 0-.217-.218.218.218 0 0 0-.22.218c0 .122.097.219.22.219ZM69.018 212.393a.218.218 0 1 0 0-.436.218.218 0 1 0 0 .436ZM63.929 209.393a.22.22 0 0 0 .22-.22.219.219 0 1 0-.437 0c-.001.121.096.22.217.22ZM59.017 206.109a.219.219 0 1 0 0 0ZM54.295 202.558a.22.22 0 1 0 0-.439.219.219 0 0 0-.218.219c0 .121.097.22.218.22ZM49.782 198.747a.22.22 0 1 0-.22-.222.22.22 0 0 0 .22.222ZM45.487 194.688a.22.22 0 0 0 .22-.22.22.22 0 0 0-.22-.219.22.22 0 0 0-.22.219c0 .121.1.22.22.22ZM41.428 190.394a.22.22 0 1 0 0-.439.219.219 0 0 0-.218.22c0 .122.097.219.218.219ZM37.617 185.879a.218.218 0 1 0 0-.436.218.218 0 1 0 0 .436ZM34.063 181.16a.22.22 0 0 0 .22-.22.22.22 0 0 0-.22-.219.22.22 0 0 0-.219.219c0 .121.099.22.22.22ZM30.78 176.246c.121 0 .22-.096.22-.217a.22.22 0 1 0-.439 0c0 .121.099.217.22.217ZM27.778 171.159a.219.219 0 1 0 0-.438.219.219 0 0 0 0 .438ZM25.066 165.909a.22.22 0 0 0 .222-.22.22.22 0 0 0-.222-.219.219.219 0 0 0-.217.219c0 .121.096.22.217.22ZM22.654 160.517a.219.219 0 1 0 0-.437.219.219 0 1 0 0 .437ZM20.547 154.997c.12 0 .217-.097.217-.218a.217.217 0 0 0-.217-.219.217.217 0 0 0-.22.219c0 .121.097.218.22.218ZM18.75 149.368a.22.22 0 1 0 0-.439.219.219 0 0 0-.217.221c0 .12.097.218.218.218ZM17.277 143.648c.12 0 .218-.099.218-.219a.219.219 0 1 0-.437 0c0 .12.097.219.22.219ZM16.123 137.854a.22.22 0 0 0 0-.44.22.22 0 0 0 0 .44ZM15.299 132.003c.12 0 .217-.098.217-.219a.219.219 0 0 0-.217-.219.22.22 0 0 0-.221.219.22.22 0 0 0 .22.219ZM14.801 126.116a.218.218 0 1 0 0-.437.218.218 0 1 0 0 .437ZM14.635 120.209c.122 0 .22-.097.22-.217a.218.218 0 0 0-.22-.22.218.218 0 0 0-.218.22c0 .12.097.217.218.217ZM14.801 114.305a.22.22 0 0 0 .22-.219.22.22 0 0 0-.22-.22.22.22 0 0 0-.22.22c0 .12.1.219.22.219ZM15.299 108.417c.12 0 .217-.099.217-.218a.22.22 0 1 0-.217.218ZM16.123 102.567a.22.22 0 1 0 0-.44.22.22 0 0 0 0 .44ZM17.277 96.773c.12 0 .218-.097.218-.22a.217.217 0 0 0-.218-.217.217.217 0 0 0-.22.217c0 .123.098.22.22.22ZM18.75 91.052a.219.219 0 1 0 .002-.437.219.219 0 0 0-.001.438ZM20.547 85.422c.12 0 .217-.097.217-.22a.217.217 0 0 0-.217-.217.218.218 0 1 0 0 .437ZM22.654 79.904c.12 0 .22-.1.22-.22a.22.22 0 0 0-.44 0c0 .12.099.22.22.22ZM25.066 74.511a.22.22 0 0 0 .222-.22.22.22 0 0 0-.222-.219.219.219 0 0 0-.217.22c0 .12.096.22.217.22ZM27.778 69.261a.219.219 0 1 0 0-.438.219.219 0 0 0 0 .439ZM30.78 64.172a.219.219 0 1 0 0-.437.219.219 0 1 0 0 .438ZM34.063 59.26a.22.22 0 0 0 .22-.218.22.22 0 0 0-.22-.22.22.22 0 0 0-.219.22c0 .12.099.219.22.219ZM37.617 54.54a.218.218 0 1 0 0-.438.219.219 0 1 0 0 .437ZM41.428 50.026a.219.219 0 1 0 0-.437.219.219 0 0 0 0 .438ZM45.487 45.733a.218.218 0 1 0 0-.437.219.219 0 1 0 0 .437ZM49.782 41.673a.219.219 0 1 0 0-.437.219.219 0 1 0 0 .437ZM54.295 37.863a.219.219 0 1 0 0-.438.219.219 0 0 0 0 .438ZM59.017 34.31c.12 0 .217-.097.217-.22a.218.218 0 1 0-.218.22ZM63.929 31.028a.219.219 0 1 0 0-.438.219.219 0 0 0 0 .438ZM69.018 28.025a.219.219 0 1 0 0-.437.218.218 0 1 0 0 .437ZM74.269 25.313a.218.218 0 1 0 0 0ZM79.661 22.901a.22.22 0 0 0 .22-.22.219.219 0 1 0-.22.22ZM85.18 20.795a.22.22 0 0 0 .22-.22.22.22 0 0 0-.22-.22.22.22 0 0 0-.22.22c0 .12.1.22.22.22ZM90.811 19c.121 0 .218-.098.218-.219a.219.219 0 1 0-.437 0c0 .121.099.22.22.22ZM96.531 17.525a.22.22 0 1 0 0-.438.22.22 0 0 0 0 .438ZM102.327 16.371a.22.22 0 1 0-.002-.438.22.22 0 0 0 .002.438ZM108.177 15.547a.219.219 0 0 0 .219-.22.219.219 0 1 0-.437 0c0 .12.097.22.218.22ZM114.066 15.05a.22.22 0 0 0 .219-.22.219.219 0 1 0-.219.22ZM119.971 14.883a.219.219 0 1 0 0-.437.219.219 0 0 0 0 .437ZM125.878 15.05a.22.22 0 1 0 0-.44.22.22 0 0 0 0 .44ZM131.766 15.547a.219.219 0 0 0 .218-.22c0-.12-.097-.22-.218-.22a.22.22 0 0 0-.221.22c0 .12.099.22.221.22ZM137.616 16.371a.217.217 0 0 0 .218-.217.219.219 0 0 0-.218-.222.22.22 0 0 0 0 .44ZM143.411 17.525a.219.219 0 1 0-.219-.221.22.22 0 0 0 .219.221ZM149.131 19a.22.22 0 0 0 .22-.219.22.22 0 0 0-.22-.22.22.22 0 0 0-.219.22c0 .121.099.22.219.22ZM154.761 20.795a.219.219 0 1 0 0-.44.219.219 0 0 0 0 .44ZM160.281 22.901a.219.219 0 0 0 .218-.22.219.219 0 1 0-.437 0c0 .121.099.22.219.22ZM165.675 25.313a.219.219 0 1 0 0-.437.219.219 0 1 0 0 .437ZM170.925 28.025a.219.219 0 1 0-.001-.437.219.219 0 0 0 .001.437ZM176.012 31.028a.219.219 0 1 0 .002-.437.219.219 0 0 0-.002.437ZM180.927 34.31a.219.219 0 1 0 0-.438.219.219 0 0 0 0 .438ZM185.647 37.863a.22.22 0 0 0 .219-.22.22.22 0 0 0-.219-.22.22.22 0 0 0-.22.22c0 .12.099.22.22.22ZM190.162 41.673a.218.218 0 0 0 .219-.217.22.22 0 0 0-.439 0c0 .12.099.217.22.217ZM194.455 45.733a.219.219 0 1 0 0-.437.219.219 0 1 0 0 .437ZM198.514 50.026a.219.219 0 1 0 0-.438.22.22 0 0 0-.22.219c0 .12.099.22.22.22ZM202.326 54.54a.219.219 0 1 0 0-.438.219.219 0 1 0 0 .437ZM205.878 59.26a.22.22 0 1 0 0-.438.22.22 0 0 0 0 .439ZM209.162 64.172a.217.217 0 0 0 .218-.217.218.218 0 0 0-.218-.22.218.218 0 0 0-.219.22c0 .12.097.218.219.218ZM212.164 69.261a.219.219 0 1 0 0-.437.219.219 0 1 0 0 .438ZM214.875 74.511a.22.22 0 0 0 .22-.22.22.22 0 0 0-.22-.219.22.22 0 0 0-.219.22c0 .12.099.22.219.22ZM217.29 79.904c.12 0 .217-.1.217-.22a.218.218 0 1 0-.437 0c0 .12.099.22.22.22ZM219.396 85.422a.219.219 0 1 0 0-.437.219.219 0 1 0 0 .437ZM221.19 91.052a.22.22 0 0 0 .22-.219.22.22 0 1 0-.22.22ZM222.666 96.773a.218.218 0 0 0 .219-.22.217.217 0 0 0-.219-.217.217.217 0 0 0-.218.217c0 .123.097.22.218.22ZM223.82 102.567a.22.22 0 0 0 0-.439.219.219 0 0 0-.219.22c0 .121.096.219.219.219ZM224.645 108.417a.22.22 0 0 0 0-.439.22.22 0 0 0 0 .439ZM225.142 114.305a.219.219 0 0 0 .218-.219.219.219 0 1 0-.437 0c0 .12.098.219.219.219ZM231.89 120.1a.11.11 0 0 0 .11-.108.11.11 0 0 0-.11-.11.11.11 0 0 0 0 .218ZM231.735 126.006a.11.11 0 0 0 .109-.11.109.109 0 0 0-.109-.107.11.11 0 0 0-.11.107c0 .06.049.11.11.11ZM231.267 131.896a.11.11 0 0 0 .11-.11.109.109 0 0 0-.218 0c0 .061.049.11.108.11ZM230.489 137.753a.11.11 0 0 0 .11-.11.11.11 0 0 0-.22 0c0 .061.05.11.11.11ZM229.405 143.56a.11.11 0 0 0 0-.219.11.11 0 1 0 0 .219ZM228.013 149.302a.11.11 0 1 0 0-.219.11.11 0 0 0-.11.109c0 .061.05.11.11.11ZM226.322 154.964a.11.11 0 0 0 0-.22.11.11 0 0 0-.11.11c0 .06.049.11.11.11ZM224.334 160.528a.11.11 0 0 0 .108-.11.11.11 0 1 0-.218 0c0 .06.049.11.11.11ZM222.054 165.977c.06 0 .109-.047.109-.108a.108.108 0 0 0-.109-.109.107.107 0 0 0-.108.109c0 .061.047.108.108.108ZM219.489 171.3a.11.11 0 1 0 0-.218.11.11 0 0 0-.108.111c0 .057.05.107.108.107ZM216.65 176.48a.11.11 0 0 0 .109-.11.109.109 0 0 0-.109-.107.11.11 0 0 0-.11.107c0 .061.049.11.11.11ZM213.539 181.504a.109.109 0 1 0 0-.218.11.11 0 1 0 0 .218ZM210.168 186.357a.11.11 0 0 0 .108-.11.11.11 0 1 0-.218 0c0 .06.048.11.11.11ZM206.546 191.023a.11.11 0 0 0 .108-.11.11.11 0 0 0-.108-.11.11.11 0 0 0-.11.11c0 .062.049.11.11.11ZM202.681 195.494a.108.108 0 0 0 .108-.11.108.108 0 0 0-.108-.109.11.11 0 0 0 0 .219ZM198.587 199.753a.11.11 0 0 0 .11-.109.11.11 0 0 0-.11-.11.11.11 0 0 0-.11.11c0 .06.048.109.11.109ZM194.273 203.79c.06 0 .109-.047.109-.11a.11.11 0 0 0-.109-.11.111.111 0 0 0-.11.11c0 .063.049.11.11.11ZM189.752 207.593c.06 0 .11-.047.11-.108a.11.11 0 0 0-.22 0c0 .061.05.108.11.108ZM185.036 211.156c.062 0 .112-.05.112-.109a.11.11 0 0 0-.112-.11c-.06 0-.11.047-.11.11 0 .059.05.109.11.109ZM180.14 214.462a.11.11 0 1 0 0-.22.11.11 0 0 0 0 .22ZM175.077 217.505a.109.109 0 1 0 0-.218.11.11 0 1 0 0 .218ZM169.859 220.277a.109.109 0 0 0 .108-.11.11.11 0 1 0-.108.11ZM164.501 222.771a.11.11 0 0 0 0-.22.11.11 0 0 0-.11.11c0 .06.049.11.11.11ZM159.02 224.978a.11.11 0 0 0 .11-.109.11.11 0 0 0-.11-.11.11.11 0 1 0 0 .219ZM153.429 226.893a.11.11 0 0 0 .11-.11.11.11 0 1 0-.218 0c0 .061.05.11.108.11ZM147.748 228.509a.11.11 0 0 0 .11-.109.111.111 0 0 0-.11-.111c-.06 0-.11.05-.11.111 0 .06.05.109.11.109ZM141.987 229.824c.06 0 .11-.05.11-.11s-.05-.11-.11-.11-.11.05-.11.11.05.11.11.11ZM136.165 230.831a.107.107 0 0 0 .109-.109.108.108 0 0 0-.109-.108.11.11 0 0 0-.11.108c0 .062.049.109.11.109ZM130.298 231.532c.06 0 .11-.05.11-.108a.11.11 0 0 0-.22 0c0 .058.05.108.11.108ZM124.402 231.923a.11.11 0 1 0 0-.219.11.11 0 1 0 0 .219ZM118.493 232a.11.11 0 0 0 .11-.11.109.109 0 1 0-.11.11ZM112.59 231.766a.11.11 0 0 0 .109-.11.108.108 0 0 0-.109-.108.109.109 0 0 0-.11.108c0 .061.049.11.11.11ZM106.707 231.221c.06 0 .11-.047.11-.109a.11.11 0 0 0-.11-.11.11.11 0 0 0-.11.11c0 .062.05.109.11.109ZM100.86 230.367a.11.11 0 0 0 .11-.11.11.11 0 0 0-.11-.11.11.11 0 0 0 0 .22ZM95.067 229.204a.11.11 0 1 0-.11-.11c0 .06.05.11.11.11ZM89.343 227.737a.11.11 0 1 0-.11-.108c0 .059.05.108.11.108ZM83.705 225.971a.11.11 0 0 0 .11-.109.108.108 0 0 0-.11-.108c-.06 0-.11.047-.11.108 0 .06.05.109.11.109ZM78.167 223.91a.11.11 0 1 0 0-.22.11.11 0 0 0 0 .22ZM72.747 221.561a.11.11 0 0 0 .11-.11.108.108 0 0 0-.11-.109c-.06 0-.11.047-.11.109 0 .061.05.11.11.11ZM67.458 218.926c.06 0 .11-.05.11-.11s-.05-.108-.11-.108a.108.108 0 0 0-.11.108c0 .06.048.11.11.11ZM62.316 216.016a.108.108 0 0 0 0-.217.11.11 0 0 0-.112.107c0 .063.05.11.112.11ZM57.332 212.842a.11.11 0 0 0 0-.221.11.11 0 0 0 0 .221ZM52.525 209.406a.11.11 0 0 0 .11-.109.108.108 0 0 0-.11-.108c-.06 0-.11.047-.11.108 0 .06.05.109.11.109ZM47.905 205.724a.11.11 0 1 0-.11-.11c0 .06.05.11.11.11ZM43.486 201.801a.11.11 0 1 0-.11-.11c0 .06.048.11.11.11ZM39.28 197.65a.11.11 0 0 0 .11-.109.11.11 0 0 0-.11-.111.11.11 0 0 0-.11.111c0 .06.05.109.11.109ZM35.301 193.283a.109.109 0 0 0 .108-.107.109.109 0 1 0-.108.107ZM31.556 188.713a.11.11 0 1 0 0-.22.11.11 0 0 0 0 .22ZM28.058 183.952a.11.11 0 0 0 .11-.109.108.108 0 0 0-.11-.108c-.06 0-.11.047-.11.108 0 .06.05.109.11.109ZM24.815 179.013a.11.11 0 1 0 0-.22.11.11 0 0 0 0 .22ZM21.838 173.91a.11.11 0 0 0 .11-.108.111.111 0 0 0-.11-.112.11.11 0 0 0-.11.112c0 .059.05.108.11.108ZM19.135 168.656a.11.11 0 1 0 0-.219.11.11 0 0 0 0 .219ZM16.714 163.267c.06 0 .11-.05.11-.11a.11.11 0 0 0-.222 0c0 .06.05.11.112.11ZM14.58 157.74a.09.09 0 0 0 .09-.092.09.09 0 0 0-.09-.09.092.092 0 0 0-.093.09c0 .051.042.092.093.092ZM12.738 152.125c.051 0 .09-.04.09-.091a.09.09 0 0 0-.09-.092.092.092 0 0 0-.092.092c0 .051.04.091.092.091ZM11.196 146.422c.05 0 .092-.04.092-.091a.094.094 0 0 0-.092-.092.092.092 0 0 0-.091.092c0 .051.04.091.091.091ZM9.957 140.646a.09.09 0 0 0 .091-.091c0-.05-.04-.092-.091-.092a.093.093 0 0 0-.092.092c0 .05.042.091.092.091ZM9.026 134.811c.05 0 .091-.041.091-.091 0-.05-.042-.09-.091-.09a.09.09 0 0 0-.092.09c0 .05.04.091.092.091ZM8.402 128.935a.09.09 0 0 0 .092-.089.091.091 0 0 0-.092-.092.092.092 0 0 0-.091.092c0 .049.042.089.091.089ZM8.091 123.036c.05 0 .09-.04.09-.091a.092.092 0 0 0-.09-.092.092.092 0 0 0-.091.092c0 .051.04.091.091.091ZM8.091 117.129a.09.09 0 0 0 .09-.092.09.09 0 1 0-.181 0c0 .051.04.092.091.092ZM8.402 111.229a.092.092 0 0 0 .092-.093.09.09 0 0 0-.092-.09c-.05 0-.091.04-.091.09 0 .051.042.093.091.093ZM9.026 105.352c.05 0 .091-.04.091-.089a.092.092 0 0 0-.091-.092.09.09 0 1 0 0 .181ZM9.957 99.52a.092.092 0 0 0 .091-.092.092.092 0 0 0-.183 0c0 .049.042.091.092.091ZM11.196 93.743c.05 0 .092-.043.092-.092a.091.091 0 1 0-.092.092ZM12.738 88.058a.11.11 0 0 0 0-.22.11.11 0 0 0-.11.11c0 .06.048.11.11.11ZM14.58 82.425c.05 0 .09-.042.09-.091a.09.09 0 0 0-.09-.091.092.092 0 0 0-.093.091c0 .05.042.091.093.091ZM16.714 76.916c.05 0 .09-.04.09-.091a.09.09 0 1 0-.181 0c0 .05.04.091.09.091ZM19.135 71.527a.092.092 0 0 0 .091-.092.09.09 0 0 0-.091-.091.09.09 0 0 0-.091.091c0 .05.04.092.09.092ZM21.838 66.273a.092.092 0 0 0 .091-.09.09.09 0 0 0-.091-.092c-.05 0-.092.04-.092.091 0 .05.043.091.092.091ZM24.815 61.17a.092.092 0 0 0 .092-.092.09.09 0 0 0-.092-.091.09.09 0 0 0-.091.091c0 .05.04.092.091.092ZM28.058 56.23c.049 0 .09-.041.09-.09a.092.092 0 0 0-.09-.092.09.09 0 0 0-.092.091c0 .05.04.092.091.092ZM31.556 51.47a.09.09 0 0 0 .091-.092.09.09 0 0 0-.091-.092.09.09 0 0 0-.091.092c0 .051.04.091.091.091ZM35.301 46.9c.05 0 .09-.042.09-.092a.09.09 0 0 0-.09-.091.092.092 0 0 0-.093.091c0 .05.042.092.093.092ZM39.281 42.533a.092.092 0 0 0 .092-.092.09.09 0 0 0-.092-.091c-.05 0-.091.04-.091.091 0 .05.042.092.091.092ZM43.487 38.382c.05 0 .09-.04.09-.09a.092.092 0 0 0-.09-.093.092.092 0 0 0-.092.093c0 .05.04.09.092.09ZM47.905 34.46c.05 0 .091-.04.091-.09a.092.092 0 0 0-.091-.091.09.09 0 1 0 0 .18ZM52.525 30.777a.09.09 0 0 0 .091-.092c0-.049-.04-.091-.091-.091a.093.093 0 0 0-.092.091c0 .052.042.092.092.092ZM57.332 27.341a.09.09 0 1 0 0-.18c-.049 0-.091.04-.091.089 0 .05.042.091.091.091ZM62.316 24.165c.049 0 .09-.04.09-.09a.09.09 0 0 0-.09-.091.092.092 0 0 0-.094.091c0 .05.042.09.093.09ZM67.458 21.257c.05 0 .09-.042.09-.091a.09.09 0 1 0-.181 0c0 .05.04.091.091.091ZM72.746 18.624c.05 0 .09-.042.09-.093a.09.09 0 0 0-.09-.09.09.09 0 0 0-.091.09c0 .051.04.093.091.093ZM78.167 16.273a.092.092 0 0 0 0-.183c-.05 0-.091.04-.091.091s.042.091.091.091ZM83.705 14.212a.092.092 0 0 0 .091-.092.09.09 0 0 0-.091-.091.09.09 0 0 0-.092.091c0 .05.04.092.092.092ZM89.343 12.445a.092.092 0 0 0 .092-.091.09.09 0 0 0-.092-.092c-.05 0-.091.04-.091.092 0 .05.042.091.091.091ZM95.067 10.979a.09.09 0 0 0 .09-.092.09.09 0 0 0-.09-.091.09.09 0 0 0-.092.091c0 .051.04.092.092.092ZM100.86 9.816a.09.09 0 1 0 0-.181.09.09 0 0 0-.091.09c0 .05.04.09.091.09ZM106.707 8.962a.092.092 0 1 0-.001-.183.092.092 0 0 0 .001.183ZM112.59 8.417a.091.091 0 0 0 0-.183.091.091 0 0 0 0 .183ZM118.493 8.183a.093.093 0 0 0 .093-.092.093.093 0 0 0-.093-.091.093.093 0 0 0-.092.091c0 .05.042.092.092.092ZM124.402 8.278a.11.11 0 0 0 .11-.11.11.11 0 0 0-.22 0c0 .062.05.11.11.11ZM130.297 8.65a.092.092 0 0 0 .092-.09.092.092 0 0 0-.183 0c0 .049.042.09.091.09ZM136.165 9.35a.09.09 0 0 0 .091-.09.09.09 0 1 0-.181 0c0 .05.04.09.09.09ZM141.987 10.377a.11.11 0 0 0 .11-.11.11.11 0 0 0-.11-.11.11.11 0 0 0-.11.11c0 .063.05.11.11.11ZM147.747 11.674c.049 0 .092-.04.092-.092a.094.094 0 0 0-.092-.091.093.093 0 0 0-.091.091c0 .051.042.092.091.092ZM153.43 13.29c.051 0 .093-.04.093-.091 0-.05-.042-.09-.093-.09-.05 0-.092.04-.092.09 0 .051.042.091.092.091ZM159.02 15.207a.092.092 0 0 0 0-.185.093.093 0 0 0-.091.091c0 .051.042.094.091.094ZM164.501 17.412a.09.09 0 0 0 .091-.091c0-.05-.04-.092-.091-.092a.093.093 0 0 0-.092.091c0 .052.042.092.092.092ZM169.859 19.924a.11.11 0 0 0 .108-.11.108.108 0 0 0-.108-.11.108.108 0 0 0-.11.11c0 .06.048.11.11.11ZM175.077 22.697a.11.11 0 0 0 .109-.11.108.108 0 0 0-.109-.11.11.11 0 1 0 0 .22ZM180.14 25.739a.11.11 0 1 0 0-.22.11.11 0 0 0 0 .22ZM185.036 29.045a.11.11 0 0 0 .112-.11.11.11 0 0 0-.222 0c0 .063.05.11.11.11ZM189.752 32.606a.109.109 0 1 0 0-.218.109.109 0 1 0 0 .218ZM194.273 36.41a.11.11 0 1 0-.001-.218.11.11 0 0 0 .001.219ZM198.587 40.448c.06 0 .11-.05.11-.11a.11.11 0 0 0-.11-.11.11.11 0 0 0-.11.11c0 .06.048.11.11.11ZM202.681 44.707c.061 0 .108-.05.108-.11a.108.108 0 0 0-.108-.108.11.11 0 0 0-.109.108c0 .06.049.11.109.11ZM206.546 49.178a.11.11 0 0 0 .108-.11.11.11 0 0 0-.108-.11.11.11 0 1 0 0 .22ZM210.168 53.844a.11.11 0 0 0 .108-.11.11.11 0 0 0-.108-.109.11.11 0 0 0-.11.11c0 .06.048.11.11.11ZM213.539 58.698a.11.11 0 0 0 .109-.11.109.109 0 0 0-.109-.11.11.11 0 1 0 0 .22ZM216.65 63.72a.11.11 0 1 0-.001-.219.11.11 0 0 0 .001.22ZM219.489 68.9c.062 0 .11-.048.11-.109a.11.11 0 0 0-.11-.11.109.109 0 0 0 0 .218ZM222.054 74.222c.06 0 .109-.047.109-.108a.11.11 0 0 0-.109-.11.108.108 0 0 0-.108.11c0 .06.047.108.108.108ZM224.334 79.673a.109.109 0 0 0 0-.218.11.11 0 0 0-.11.11c0 .06.049.108.11.108ZM226.322 85.238a.11.11 0 1 0 0-.22.11.11 0 0 0 0 .22ZM228.013 90.9a.11.11 0 1 0 0-.22.11.11 0 0 0 0 .22ZM229.405 96.64a.11.11 0 0 0 .108-.109.11.11 0 0 0-.108-.11.11.11 0 1 0 0 .22ZM230.489 102.448a.11.11 0 0 0 .11-.11.11.11 0 0 0-.22 0c0 .061.05.11.11.11ZM231.267 108.306c.06 0 .11-.05.11-.11a.11.11 0 0 0-.11-.11.11.11 0 0 0-.108.11c0 .06.049.11.108.11ZM231.735 114.195a.11.11 0 1 0 0-.22.11.11 0 0 0 0 .22Z" fill="#000"/></svg>