<svg width="240" height="240" fill="none" xmlns="http://www.w3.org/2000/svg"><path d="M113.771 8.033c.009 0 .017-.007.017-.016a.017.017 0 0 0-.017-.017c-.01 0-.018.007-.018.017 0 .009.008.016.018.016ZM119.991 8.033c.011 0 .018-.007.018-.016 0-.01-.007-.017-.018-.017-.009 0-.016.007-.016.017 0 .009.007.016.016.016ZM126.212 8.033c.01 0 .018-.007.018-.016 0-.01-.008-.017-.018-.017a.017.017 0 0 0-.017.017c0 .009.008.016.017.016ZM132.433 8.033c.009 0 .017-.007.017-.016a.017.017 0 0 0-.017-.017c-.01 0-.017.007-.017.017 0 .009.007.016.017.016ZM82.667 14.253c.01 0 .017-.007.017-.015 0-.01-.008-.02-.017-.02-.01 0-.018.01-.018.02 0 .008.007.015.018.015ZM88.886 14.288a.052.052 0 0 0 .053-.05.052.052 0 0 0-.052-.052.052.052 0 0 0-.052.052c0 .028.024.05.052.05ZM95.108 14.342a.105.105 0 0 0 0-.21.104.104 0 0 0-.103.106c0 .057.046.104.103.104ZM101.329 14.392a.155.155 0 1 0 0-.31.155.155 0 0 0 0 .31ZM107.55 14.444a.205.205 0 0 0 .206-.206.206.206 0 0 0-.206-.207.206.206 0 0 0-.207.207c0 .114.092.206.207.206ZM113.771 14.46a.224.224 0 1 0 0-.447.224.224 0 0 0 0 .448ZM119.99 14.46a.224.224 0 1 0 .003-.447.224.224 0 0 0-.003.448ZM126.212 14.46a.224.224 0 1 0 0-.447.224.224 0 1 0 0 .447ZM132.433 14.444a.206.206 0 0 0 .207-.206.206.206 0 0 0-.207-.207.206.206 0 0 0-.206.207c0 .114.092.206.206.206ZM138.654 14.392a.155.155 0 1 0 0-.31.155.155 0 0 0 0 .31ZM144.874 14.357a.12.12 0 1 0 0-.24.12.12 0 0 0 0 .24ZM151.095 14.288a.05.05 0 1 0 0-.102.052.052 0 0 0-.052.052c0 .028.024.05.052.05ZM157.316 14.253c.01 0 .017-.007.017-.015 0-.01-.007-.02-.017-.02-.009 0-.017.01-.017.02 0 .008.008.015.017.015ZM70.225 20.494c.02 0 .034-.018.034-.035a.034.034 0 0 0-.034-.035.034.034 0 0 0-.034.035c0 .017.014.035.034.035ZM76.446 20.56a.104.104 0 0 0 .104-.101.103.103 0 0 0-.104-.104.103.103 0 1 0 0 .206ZM82.666 20.664a.206.206 0 1 0 0-.413.206.206 0 1 0 0 .413ZM88.887 20.751a.293.293 0 1 0 .001-.586.293.293 0 0 0-.001.586ZM95.108 20.82a.361.361 0 1 0 0-.724.363.363 0 0 0 0 .724ZM101.329 20.889a.432.432 0 1 0-.002-.864.432.432 0 0 0 .002.864ZM107.55 20.924a.466.466 0 1 0-.002-.931.466.466 0 0 0 .002.93ZM113.77 20.958a.5.5 0 1 0 0-1.001.5.5 0 0 0 0 1.001ZM119.99 20.958a.5.5 0 1 0 .002-1 .5.5 0 0 0-.002 1ZM126.212 20.958a.5.5 0 1 0 0-1 .5.5 0 0 0 0 1ZM132.433 20.924a.465.465 0 1 0 .002-.93.465.465 0 0 0-.002.93ZM138.654 20.889a.431.431 0 1 0 0-.862.431.431 0 0 0 0 .862ZM144.874 20.837a.38.38 0 1 0 .002-.758.38.38 0 0 0-.002.758ZM151.095 20.768c.172 0 .31-.138.31-.31a.31.31 0 1 0-.31.31ZM157.316 20.664a.206.206 0 1 0 0-.413.207.207 0 1 0 0 .413ZM163.537 20.578a.12.12 0 1 0 0-.24.121.121 0 0 0-.121.121c0 .066.055.12.121.12ZM169.757 20.494a.036.036 0 0 0 .035-.035.035.035 0 0 0-.035-.035.034.034 0 0 0-.034.035c0 .017.015.035.034.035ZM57.783 26.697c.01 0 .018-.009.018-.019a.018.018 0 0 0-.018-.017c-.009 0-.016.008-.016.017 0 .01.007.019.016.019ZM64.004 26.782a.104.104 0 0 0 .104-.104.104.104 0 0 0-.207 0c0 .057.046.104.103.104ZM70.225 26.903a.224.224 0 1 0 0-.448.224.224 0 0 0 0 .448ZM76.446 27.023a.344.344 0 1 0 .001-.688.344.344 0 0 0-.001.688ZM82.666 27.144a.466.466 0 1 0 0-.932.466.466 0 0 0 0 .932ZM88.887 27.231a.552.552 0 1 0 0-1.105.552.552 0 0 0 0 1.105ZM95.108 27.317a.64.64 0 0 0 0-1.277.638.638 0 0 0 0 1.277ZM101.329 27.369a.69.69 0 1 0-.001-1.381.69.69 0 0 0 .001 1.381ZM107.55 27.42a.742.742 0 1 0-.001-1.482.742.742 0 0 0 .001 1.483ZM113.77 27.438a.76.76 0 0 0 0-1.519.759.759 0 0 0 0 1.52ZM119.991 27.454a.775.775 0 1 0 0-1.552.776.776 0 1 0 0 1.552ZM126.212 27.438a.76.76 0 0 0 0-1.519c-.42 0-.758.34-.758.759 0 .42.338.76.758.76ZM132.433 27.42a.742.742 0 1 0 0-1.483.742.742 0 0 0 0 1.484ZM138.654 27.369a.691.691 0 1 0-.002-1.382.691.691 0 0 0 .002 1.382ZM144.875 27.317a.64.64 0 1 0-.003-1.278.64.64 0 0 0 .003 1.278ZM151.095 27.231a.552.552 0 1 0 .001-1.105.552.552 0 0 0-.001 1.105ZM157.316 27.144a.467.467 0 1 0-.001-.933.467.467 0 0 0 .001.933ZM163.537 27.04a.362.362 0 1 0 .002-.723.362.362 0 0 0-.002.724ZM169.757 26.92a.242.242 0 1 0 0-.482.24.24 0 0 0-.24.24.24.24 0 0 0 .24.242ZM175.978 26.782a.104.104 0 0 0 .104-.104.104.104 0 0 0-.104-.102.103.103 0 0 0 0 .206ZM182.199 26.697c.011 0 .018-.009.018-.019a.018.018 0 0 0-.018-.017c-.008 0-.017.008-.017.017 0 .01.009.019.017.019ZM51.562 32.933c.02 0 .035-.015.035-.032a.037.037 0 0 0-.035-.037c-.018 0-.034.018-.034.037 0 .017.016.032.034.032ZM57.783 33.073a.173.173 0 0 0 .173-.173.172.172 0 0 0-.173-.172.173.173 0 0 0 0 .346ZM64.004 33.227a.328.328 0 1 0 0-.656.328.328 0 0 0 0 .656ZM70.225 33.365a.466.466 0 1 0 0-.932.466.466 0 0 0 0 .932ZM76.446 33.486a.586.586 0 1 0 0-1.172.586.586 0 0 0 0 1.172ZM82.667 33.605a.707.707 0 1 0 .002-1.413.707.707 0 0 0-.002 1.413ZM88.887 33.711a.812.812 0 0 0 0-1.622.811.811 0 0 0 0 1.622ZM95.108 33.796a.897.897 0 1 0 .001-1.794.897.897 0 0 0-.001 1.794ZM101.329 33.865a.966.966 0 1 0 0-1.931.966.966 0 0 0 0 1.93ZM107.55 33.916a1.017 1.017 0 1 0 .002-2.033 1.017 1.017 0 0 0-.002 2.033ZM113.771 33.934a1.035 1.035 0 1 0 0-2.07 1.035 1.035 0 0 0 0 2.07ZM119.99 33.934a1.034 1.034 0 1 0 .003-2.069 1.034 1.034 0 0 0-.003 2.069ZM126.212 33.934a1.034 1.034 0 1 0 .002-2.069 1.034 1.034 0 0 0-.002 2.069ZM132.433 33.916a1.017 1.017 0 1 0-1.018-1.016c0 .562.456 1.016 1.018 1.016ZM138.654 33.865a.966.966 0 1 0 0-1.931.966.966 0 0 0 0 1.93ZM144.874 33.796a.897.897 0 1 0 .003-1.794.897.897 0 0 0-.003 1.794ZM151.095 33.711a.812.812 0 0 0 0-1.622.812.812 0 0 0 0 1.622ZM157.316 33.624a.725.725 0 1 0-.002-1.45.725.725 0 0 0 .002 1.45ZM163.537 33.504a.606.606 0 0 0 .605-.603.604.604 0 1 0-.605.603ZM169.757 33.383a.483.483 0 1 0 .003-.966.483.483 0 0 0-.003.966ZM175.978 33.244a.346.346 0 1 0 0-.69.346.346 0 0 0 0 .69ZM182.199 33.089a.19.19 0 0 0 0-.38.19.19 0 0 0-.188.191c0 .104.083.189.188.189ZM188.42 32.952a.053.053 0 0 0 0-.105.053.053 0 0 0 0 .105ZM45.342 39.171a.05.05 0 0 0 .051-.05.05.05 0 0 0-.051-.052.051.051 0 1 0 0 .102ZM51.563 39.344c.123 0 .224-.1.224-.223 0-.124-.1-.226-.224-.226a.226.226 0 0 0-.224.226c0 .123.1.223.224.223ZM57.782 39.517a.397.397 0 1 0 .002-.793.397.397 0 0 0-.002.793ZM64.004 39.672a.551.551 0 1 0 0-1.102.551.551 0 0 0 0 1.102ZM70.225 39.826a.706.706 0 1 0 .001-1.412.706.706 0 0 0-.001 1.412ZM76.445 39.966a.847.847 0 0 0 0-1.691.846.846 0 0 0 0 1.691ZM82.666 40.085a.966.966 0 1 0 .002-1.932.966.966 0 0 0-.002 1.932ZM88.887 40.191a1.072 1.072 0 0 0 0-2.14 1.07 1.07 0 0 0 0 2.14ZM95.108 40.276a1.157 1.157 0 1 0-.002-2.311 1.157 1.157 0 0 0 .002 2.31ZM101.329 40.345a1.225 1.225 0 1 0 0-2.45 1.225 1.225 0 0 0 0 2.45ZM107.55 40.396a1.276 1.276 0 1 0 .001-2.552 1.276 1.276 0 0 0-.001 2.552ZM113.771 40.431a1.31 1.31 0 1 0 0-2.62 1.31 1.31 0 0 0 0 2.62ZM119.991 40.431a1.31 1.31 0 1 0 .001-2.62 1.31 1.31 0 0 0-.001 2.62ZM126.212 40.431a1.311 1.311 0 1 0 0-2.622 1.311 1.311 0 0 0 0 2.622ZM132.433 40.396a1.276 1.276 0 1 0 .002-2.551 1.276 1.276 0 0 0-.002 2.551ZM138.654 40.345a1.223 1.223 0 1 0 0-2.449 1.224 1.224 0 1 0 0 2.449ZM144.875 40.276a1.156 1.156 0 1 0-.003-2.311 1.156 1.156 0 0 0 .003 2.31ZM151.095 40.191a1.071 1.071 0 0 0 0-2.14 1.07 1.07 0 0 0 0 2.14ZM157.316 40.085a.965.965 0 1 0 .002-1.93.965.965 0 0 0-.002 1.93ZM163.537 39.966a.847.847 0 0 0 0-1.691.845.845 0 0 0 0 1.691ZM169.758 39.826a.706.706 0 1 0 0-1.411.706.706 0 0 0 0 1.411ZM175.978 39.69a.568.568 0 1 0 .001-1.14.568.568 0 0 0-.001 1.14ZM182.199 39.534a.415.415 0 1 0 0-.83.415.415 0 0 0 0 .83ZM188.42 39.361a.242.242 0 0 0 .242-.24.242.242 0 1 0-.242.24ZM194.641 39.189a.069.069 0 0 0 .069-.068.07.07 0 0 0-.069-.07.07.07 0 0 0-.069.07c0 .037.031.068.069.068ZM39.12 45.392a.05.05 0 0 0 .052-.05.051.051 0 0 0-.051-.052.05.05 0 0 0-.052.052c0 .028.023.05.052.05ZM45.342 45.582a.24.24 0 1 0 0-.482.242.242 0 0 0-.241.242c0 .133.108.24.24.24ZM51.563 45.773a.431.431 0 1 0 0-.863.431.431 0 0 0 0 .863ZM57.783 45.945a.604.604 0 1 0 0-1.207.604.604 0 0 0 0 1.207ZM64.004 46.118a.776.776 0 1 0 0-1.552.776.776 0 0 0 0 1.552ZM70.225 46.273a.932.932 0 1 0-.001-1.864.932.932 0 0 0 .001 1.864ZM76.446 46.41a1.069 1.069 0 1 0 0-2.138 1.069 1.069 0 0 0 0 2.138ZM82.667 46.548a1.207 1.207 0 1 0 0-2.415 1.207 1.207 0 0 0 0 2.415ZM88.887 46.652a1.31 1.31 0 1 0 .003-2.62 1.31 1.31 0 0 0-.003 2.62ZM95.108 46.756a1.414 1.414 0 1 0 .001-2.829 1.414 1.414 0 0 0-.001 2.829ZM101.329 46.825a1.483 1.483 0 1 0 0-2.966 1.483 1.483 0 0 0 0 2.966ZM107.55 46.894a1.552 1.552 0 1 0 0-3.104 1.552 1.552 0 0 0 0 3.104ZM113.771 46.928a1.587 1.587 0 1 0 0-3.174 1.587 1.587 0 0 0 0 3.174ZM119.991 46.928a1.586 1.586 0 1 0 .001-3.172 1.586 1.586 0 0 0-.001 3.172ZM126.212 46.928a1.587 1.587 0 1 0 0-3.174 1.587 1.587 0 0 0 0 3.174ZM132.433 46.894a1.553 1.553 0 1 0 0-3.106 1.553 1.553 0 0 0 0 3.106ZM138.654 46.842a1.5 1.5 0 1 0 0-3.002 1.5 1.5 0 0 0 0 3.002ZM144.875 46.756a1.413 1.413 0 1 0 .001-2.827 1.413 1.413 0 0 0-.001 2.827ZM151.094 46.67a1.328 1.328 0 1 0 .003-2.658 1.328 1.328 0 0 0-.003 2.657ZM157.316 46.548a1.208 1.208 0 1 0 0-2.415 1.208 1.208 0 0 0 0 2.415ZM163.537 46.428a1.086 1.086 0 1 0 0-2.172 1.086 1.086 0 0 0 0 2.172ZM169.757 46.289a.948.948 0 1 0 .003-1.896.948.948 0 0 0-.003 1.896ZM175.978 46.133a.793.793 0 1 0 0-1.586.793.793 0 0 0 0 1.586ZM182.199 45.962a.62.62 0 0 0 .62-.62.62.62 0 1 0-1.24 0c0 .342.278.62.62.62ZM188.42 45.79a.449.449 0 1 0 0-.898.449.449 0 0 0 0 .898ZM194.641 45.601a.259.259 0 1 0 0-.519.259.259 0 0 0 0 .52ZM200.862 45.411a.07.07 0 0 0 .069-.069.07.07 0 0 0-.139 0c0 .036.031.07.07.07ZM32.9 51.597a.036.036 0 0 0 .035-.034.035.035 0 0 0-.035-.035.035.035 0 0 0-.035.035c0 .017.016.034.035.034ZM39.12 51.786a.224.224 0 1 0 0-.448.224.224 0 1 0 0 .448ZM45.342 51.993a.431.431 0 1 0 0-.863.431.431 0 0 0 0 .863ZM51.563 52.183a.622.622 0 1 0 0-1.243.622.622 0 0 0 0 1.243ZM57.783 52.373a.812.812 0 0 0 0-1.622.811.811 0 0 0 0 1.622ZM64.004 52.546a.984.984 0 1 0 0-1.967.984.984 0 0 0 0 1.967ZM70.225 52.717a1.155 1.155 0 1 0 .002-2.31 1.155 1.155 0 0 0-.002 2.31ZM76.446 52.873a1.31 1.31 0 1 0 .002-2.62 1.31 1.31 0 0 0-.002 2.62ZM82.666 53.01a1.45 1.45 0 1 0 0-2.899 1.45 1.45 0 0 0 0 2.9ZM88.886 53.132a1.57 1.57 0 1 0 .002-3.14 1.57 1.57 0 0 0-.002 3.14ZM95.108 53.236a1.674 1.674 0 1 0 0-3.348 1.674 1.674 0 0 0 0 3.348ZM101.329 53.322a1.759 1.759 0 1 0 0-3.518 1.759 1.759 0 0 0 0 3.518ZM107.55 53.374c.999 0 1.812-.812 1.812-1.811a1.812 1.812 0 1 0-1.812 1.811ZM113.771 53.407a1.845 1.845 0 1 0-1.846-1.844c0 1.018.826 1.844 1.846 1.844ZM119.991 53.426a1.863 1.863 0 1 0 0-3.727 1.863 1.863 0 0 0 0 3.727ZM126.212 53.407a1.846 1.846 0 1 0 0-3.691 1.846 1.846 0 0 0 0 3.69ZM132.433 53.374a1.813 1.813 0 0 0 0-3.624 1.813 1.813 0 0 0 0 3.624ZM138.654 53.322a1.76 1.76 0 1 0 0-3.52 1.76 1.76 0 0 0 0 3.52ZM144.875 53.236a1.674 1.674 0 1 0-.001-3.347 1.674 1.674 0 0 0 .001 3.347ZM151.094 53.132a1.57 1.57 0 1 0 .003-3.14 1.57 1.57 0 0 0-.003 3.14ZM157.316 53.01c.8 0 1.45-.649 1.45-1.447a1.45 1.45 0 1 0-1.45 1.448ZM163.537 52.873a1.31 1.31 0 1 0 0-2.622 1.31 1.31 0 1 0 0 2.621ZM169.757 52.734a1.174 1.174 0 1 0 0-2.347 1.174 1.174 0 0 0 0 2.347ZM175.978 52.562a1 1 0 1 0 .002-2 1 1 0 0 0-.002 2ZM182.199 52.39a.828.828 0 1 0 0-1.656.828.828 0 0 0 0 1.657ZM188.42 52.2a.64.64 0 1 0 0-1.278.64.64 0 0 0 0 1.279ZM194.641 52.01a.448.448 0 1 0 0-.896.45.45 0 0 0 0 .897ZM200.861 51.803a.241.241 0 1 0 .002-.482.241.241 0 0 0-.002.482ZM207.083 51.613a.05.05 0 0 0 .051-.05.052.052 0 0 0-.051-.054.053.053 0 0 0-.052.054c0 .028.024.05.052.05ZM26.679 57.801c.01 0 .018-.009.018-.019a.018.018 0 0 0-.018-.017c-.009 0-.017.008-.017.017 0 .01.008.019.017.019ZM32.9 57.957c.095 0 .173-.08.173-.175a.172.172 0 0 0-.173-.17.17.17 0 0 0-.172.17c0 .095.076.175.172.175ZM39.12 58.18a.396.396 0 1 0 0-.794.396.396 0 0 0 0 .793ZM45.342 58.387a.604.604 0 1 0-.002-1.209.604.604 0 0 0 .002 1.209ZM51.563 58.594a.812.812 0 0 0 0-1.623.812.812 0 0 0 0 1.623ZM57.782 58.782a1 1 0 1 0 .002-2 1 1 0 0 0-.002 2ZM64.004 58.973a1.19 1.19 0 1 0 .001-2.38 1.19 1.19 0 0 0 0 2.38ZM70.225 59.145a1.363 1.363 0 1 0 0-2.725 1.363 1.363 0 0 0 0 2.725ZM76.446 59.318a1.535 1.535 0 1 0-.001-3.07 1.535 1.535 0 0 0 0 3.07ZM82.666 59.456a1.674 1.674 0 1 0-.001-3.348 1.674 1.674 0 0 0 .001 3.349ZM88.886 59.595a1.812 1.812 0 0 0 0-3.624 1.812 1.812 0 0 0 0 3.624ZM95.108 59.698a1.915 1.915 0 1 0 0-3.83 1.915 1.915 0 0 0 0 3.83ZM101.329 59.8a2.017 2.017 0 1 0 .001-4.034 2.017 2.017 0 0 0-.001 4.034ZM107.55 59.87a2.086 2.086 0 1 0 0-4.174 2.086 2.086 0 1 0 0 4.173ZM113.77 59.904a2.121 2.121 0 1 0 .002-4.242 2.121 2.121 0 0 0-.002 4.242ZM119.991 59.921a2.138 2.138 0 1 0 .001-4.277 2.138 2.138 0 0 0-.001 4.277ZM126.212 59.904a2.121 2.121 0 1 0 .002-4.242 2.121 2.121 0 0 0-.002 4.242ZM132.433 59.87a2.087 2.087 0 1 0 0-4.174 2.087 2.087 0 0 0 0 4.173ZM138.654 59.8a2.017 2.017 0 1 0 .001-4.034 2.017 2.017 0 0 0-.001 4.034ZM144.875 59.714a1.932 1.932 0 1 0 0-3.864 1.932 1.932 0 0 0 0 3.864ZM151.094 59.612a1.83 1.83 0 1 0 .001-3.658 1.83 1.83 0 0 0-.001 3.658ZM157.316 59.474a1.691 1.691 0 1 0 .002-3.383 1.691 1.691 0 0 0-.002 3.383ZM163.537 59.336a1.553 1.553 0 1 0 0-3.107 1.553 1.553 0 0 0 0 3.107ZM169.758 59.163a1.38 1.38 0 1 0 0-2.76 1.38 1.38 0 0 0 0 2.76ZM175.978 58.99a1.208 1.208 0 1 0 0-2.416 1.208 1.208 0 0 0 0 2.416ZM182.199 58.801a1.018 1.018 0 1 0 0-2.036 1.018 1.018 0 0 0 0 2.036ZM188.42 58.611a.83.83 0 1 0 0-1.658.83.83 0 0 0 0 1.658ZM194.641 58.402a.62.62 0 1 0-.621-.62c0 .344.279.62.621.62ZM200.862 58.197a.414.414 0 1 0 0-.828.414.414 0 0 0 0 .828ZM207.082 57.972a.19.19 0 1 0 0-.378.19.19 0 1 0 0 .378ZM213.303 57.801c.011 0 .018-.009.018-.019a.018.018 0 0 0-.018-.017c-.008 0-.017.008-.017.017 0 .01.009.019.017.019ZM26.679 64.106a.103.103 0 1 0 0-.206.103.103 0 0 0-.103.104c0 .057.047.102.103.102ZM32.9 64.331a.328.328 0 1 0 0-.656.328.328 0 0 0 0 .656ZM39.121 64.556a.552.552 0 1 0 0-1.104.552.552 0 0 0 0 1.104ZM45.342 64.78a.776.776 0 1 0 0-1.552.776.776 0 0 0 0 1.552ZM51.563 64.988a.984.984 0 1 0-.001-1.968.984.984 0 0 0 0 1.968ZM57.783 65.194a1.189 1.189 0 1 0 0-2.38 1.19 1.19 0 0 0 0 2.38ZM64.004 65.4a1.397 1.397 0 1 0 0-2.794 1.397 1.397 0 0 0 0 2.795ZM70.225 65.573a1.57 1.57 0 1 0 0-3.138 1.57 1.57 0 0 0 0 3.138ZM76.446 65.746a1.742 1.742 0 1 0 0-3.483 1.742 1.742 0 0 0 0 3.483ZM82.667 65.92a1.915 1.915 0 1 0 0-3.83 1.915 1.915 0 0 0 0 3.83ZM88.886 66.056a2.051 2.051 0 0 0 2.054-2.051 2.054 2.054 0 0 0-2.053-2.055 2.055 2.055 0 0 0-2.052 2.055c0 1.133.919 2.05 2.052 2.05ZM95.108 66.177a2.173 2.173 0 1 0 0-4.347 2.173 2.173 0 0 0 0 4.347ZM101.329 66.28a2.276 2.276 0 1 0 .001-4.553 2.276 2.276 0 0 0-.001 4.553ZM107.55 66.35a2.346 2.346 0 1 0-.002-4.691 2.346 2.346 0 0 0 .002 4.69ZM113.77 66.401a2.397 2.397 0 1 0 .002-4.794 2.397 2.397 0 0 0-.002 4.794ZM119.991 66.401a2.397 2.397 0 1 0 .002-4.794 2.397 2.397 0 0 0-.002 4.794ZM126.212 66.401a2.397 2.397 0 1 0 0-4.795 2.398 2.398 0 1 0 0 4.795ZM132.433 66.35a2.345 2.345 0 1 0 0-4.693 2.345 2.345 0 0 0 0 4.692ZM138.654 66.28a2.277 2.277 0 1 0 0-4.554 2.277 2.277 0 0 0 0 4.554ZM144.874 66.194a2.19 2.19 0 1 0 0-4.38 2.191 2.191 0 1 0 0 4.38ZM151.095 66.075a2.072 2.072 0 0 0 0-4.142 2.071 2.071 0 0 0 0 4.142ZM157.316 65.92a1.915 1.915 0 1 0-.001-3.833 1.915 1.915 0 0 0 .001 3.832ZM163.537 65.764c.973 0 1.759-.788 1.759-1.76a1.759 1.759 0 1 0-3.518 0c0 .972.788 1.76 1.759 1.76ZM169.758 65.59a1.587 1.587 0 1 0 .002-3.173 1.587 1.587 0 0 0-.002 3.174ZM175.978 65.418a1.415 1.415 0 1 0 0-2.83 1.415 1.415 0 0 0 0 2.83ZM182.199 65.21a1.208 1.208 0 1 0 0-2.415 1.208 1.208 0 0 0 0 2.416ZM188.42 65.003a1.001 1.001 0 1 0-.002-2 1.001 1.001 0 0 0 .002 2ZM194.641 64.798a.793.793 0 1 0 0-1.586.793.793 0 0 0 0 1.586ZM200.862 64.573a.57.57 0 1 0 .001-1.139.57.57 0 0 0-.001 1.14ZM207.082 64.348a.346.346 0 1 0 0-.69.346.346 0 0 0 0 .69ZM213.303 64.124a.12.12 0 0 0 .121-.12.121.121 0 0 0-.242 0c0 .066.054.12.121.12ZM20.458 70.258c.02 0 .036-.014.036-.033a.036.036 0 0 0-.036-.036.035.035 0 0 0-.034.036c0 .02.016.033.034.033ZM26.678 70.448c.125 0 .225-.1.225-.222 0-.125-.1-.227-.224-.227a.226.226 0 0 0-.224.227c0 .122.1.222.224.222ZM32.9 70.69a.466.466 0 1 0 0-.932.466.466 0 0 0 0 .932ZM39.12 70.93a.706.706 0 1 0 .003-1.411.706.706 0 0 0-.002 1.411ZM45.342 71.156a.932.932 0 1 0 0-1.863.932.932 0 0 0 0 1.863ZM51.563 71.38a1.155 1.155 0 1 0 0-2.31 1.155 1.155 0 0 0 0 2.31ZM57.783 71.587a1.363 1.363 0 1 0 .002-2.727 1.363 1.363 0 0 0-.002 2.727ZM64.004 71.794a1.57 1.57 0 1 0 0-3.14 1.57 1.57 0 0 0 0 3.14ZM70.225 72.002a1.777 1.777 0 1 0-.001-3.555 1.777 1.777 0 0 0 0 3.555ZM76.445 72.192a1.967 1.967 0 1 0 0-3.935 1.967 1.967 0 0 0 0 3.935ZM82.666 72.363a2.139 2.139 0 1 0 .001-4.277 2.139 2.139 0 0 0 0 4.277ZM88.887 72.501a2.277 2.277 0 1 0 .001-4.553 2.277 2.277 0 0 0-.001 4.553ZM95.108 72.64a2.415 2.415 0 1 0 0-4.83 2.415 2.415 0 0 0 0 4.83ZM101.329 72.76a2.535 2.535 0 1 0 0-5.07 2.535 2.535 0 0 0 0 5.07ZM107.55 72.83a2.605 2.605 0 1 0 0-5.211 2.605 2.605 0 0 0 0 5.21ZM113.77 72.881a2.657 2.657 0 1 0 0-5.313 2.657 2.657 0 0 0 0 5.313ZM119.991 72.899a2.674 2.674 0 1 0 0-5.348 2.674 2.674 0 0 0 0 5.348ZM126.212 72.881a2.657 2.657 0 1 0 0-5.313 2.657 2.657 0 0 0 0 5.313ZM132.433 72.847a2.623 2.623 0 1 0-.001-5.246 2.623 2.623 0 0 0 .001 5.246ZM138.654 72.76a2.535 2.535 0 1 0 0-5.07 2.535 2.535 0 0 0 0 5.07ZM144.875 72.657a2.431 2.431 0 1 0 0-4.865 2.432 2.432 0 0 0 0 4.865ZM151.095 72.518a2.294 2.294 0 1 0 .002-4.588 2.294 2.294 0 0 0-.002 4.588ZM157.316 72.363a2.138 2.138 0 1 0 .002-4.276 2.138 2.138 0 0 0-.002 4.276ZM163.537 72.209a1.985 1.985 0 1 0-.003-3.97 1.985 1.985 0 0 0 .003 3.97ZM169.758 72.017a1.794 1.794 0 1 0-.002-3.586 1.794 1.794 0 0 0 .002 3.586ZM175.978 71.829a1.605 1.605 0 1 0 .001-3.21 1.605 1.605 0 0 0-.001 3.21ZM182.199 71.604a1.38 1.38 0 1 0 .002-2.76 1.38 1.38 0 0 0-.002 2.76ZM188.42 71.397a1.172 1.172 0 1 0 0-2.345 1.173 1.173 0 0 0 0 2.345ZM194.641 71.172a.947.947 0 1 0 .001-1.895.947.947 0 0 0-.001 1.895ZM200.861 70.95a.725.725 0 1 0 .001-1.452.725.725 0 0 0-.001 1.451ZM207.082 70.707a.483.483 0 1 0 .003-.965.483.483 0 0 0-.003.965ZM213.303 70.484a.259.259 0 1 0 0-.518.257.257 0 0 0-.257.26c0 .141.114.258.257.258ZM219.524 70.258c.019 0 .035-.014.035-.033a.035.035 0 0 0-.035-.036.035.035 0 0 0-.035.036c0 .02.016.033.035.033ZM20.459 76.55a.104.104 0 0 0 .103-.104.104.104 0 0 0-.104-.105.104.104 0 0 0-.103.105c0 .057.046.104.104.104ZM26.679 76.79a.344.344 0 1 0 .002-.69.344.344 0 0 0-.002.69ZM32.9 77.032a.587.587 0 1 0 0-1.173.587.587 0 0 0 0 1.173ZM39.12 77.291a.847.847 0 0 0 0-1.692.847.847 0 0 0 0 1.692ZM45.342 77.514a1.069 1.069 0 1 0 0-2.138 1.069 1.069 0 0 0 0 2.138ZM51.563 77.756a1.31 1.31 0 1 0 0-2.621 1.312 1.312 0 0 0 0 2.621ZM57.782 77.98a1.536 1.536 0 1 0 .001-3.071 1.536 1.536 0 0 0 0 3.072ZM64.004 78.188a1.742 1.742 0 1 0 0-3.485 1.742 1.742 0 0 0 0 3.485ZM70.225 78.413a1.968 1.968 0 1 0-.001-3.935 1.968 1.968 0 0 0 .001 3.935ZM76.446 78.6a2.157 2.157 0 1 0-.002-4.312 2.157 2.157 0 0 0 .002 4.313ZM82.666 78.791a2.346 2.346 0 1 0 0-4.692 2.346 2.346 0 0 0 0 4.692ZM88.887 78.964a2.519 2.519 0 1 0 0-5.038 2.519 2.519 0 0 0 0 5.038ZM95.108 79.102a2.656 2.656 0 1 0 0-5.313 2.656 2.656 0 0 0 0 5.313ZM101.329 79.223a2.778 2.778 0 1 0 0-5.556 2.778 2.778 0 0 0 0 5.556ZM107.55 79.31a2.864 2.864 0 1 0 0-5.73 2.864 2.864 0 0 0 0 5.73ZM113.771 79.377a2.933 2.933 0 1 0-.002-5.864 2.933 2.933 0 0 0 .002 5.864Z" fill="#000"/><path d="M119.991 79.396a2.95 2.95 0 1 0-.002-5.9 2.95 2.95 0 0 0 .002 5.9ZM126.212 79.377a2.931 2.931 0 1 0 0-5.865 2.933 2.933 0 0 0 0 5.865ZM132.433 79.327a2.88 2.88 0 1 0-.001-5.762 2.88 2.88 0 0 0 .001 5.762ZM138.654 79.24a2.795 2.795 0 1 0-.003-5.59 2.795 2.795 0 0 0 .003 5.59ZM144.874 79.12a2.675 2.675 0 1 0 0-5.35 2.675 2.675 0 0 0 0 5.35ZM151.095 78.964a2.519 2.519 0 1 0 0-5.037 2.519 2.519 0 0 0 0 5.037ZM157.316 78.808a2.363 2.363 0 1 0 .001-4.727 2.363 2.363 0 0 0-.001 4.727ZM163.537 78.618a2.172 2.172 0 1 0 0-4.346 2.173 2.173 0 1 0 0 4.346ZM169.758 78.43a1.985 1.985 0 1 0-.003-3.97 1.985 1.985 0 0 0 .003 3.97ZM175.978 78.222a1.777 1.777 0 1 0 0-3.554 1.777 1.777 0 0 0 0 3.554ZM182.199 77.998a1.552 1.552 0 1 0 0-3.104 1.552 1.552 0 0 0 0 3.104ZM188.42 77.773a1.328 1.328 0 1 0 .002-2.656 1.328 1.328 0 0 0-.002 2.656ZM194.641 77.549a1.103 1.103 0 1 0 .001-2.207 1.103 1.103 0 0 0-.001 2.207ZM200.861 77.308a.863.863 0 1 0 0-1.726.863.863 0 0 0 0 1.726ZM207.082 77.066a.622.622 0 1 0 .002-1.244.622.622 0 0 0-.002 1.244ZM213.303 76.825a.38.38 0 1 0 0-.76.38.38 0 0 0 0 .76ZM219.524 76.565a.12.12 0 1 0 0-.24.12.12 0 1 0 0 .24ZM14.238 82.683c.01 0 .017-.007.017-.016 0-.01-.008-.019-.017-.019-.01 0-.018.009-.018.02 0 .008.008.015.018.015ZM20.458 82.872a.206.206 0 1 0 0-.413.206.206 0 1 0 0 .413ZM26.679 83.132a.466.466 0 1 0 0-.93.466.466 0 0 0 0 .93ZM32.9 83.374a.708.708 0 1 0-.002-1.415.708.708 0 0 0 .002 1.415ZM39.12 83.631a.965.965 0 1 0 .002-1.93.965.965 0 0 0-.001 1.93ZM45.342 83.873a1.207 1.207 0 1 0 0-2.415 1.207 1.207 0 0 0 0 2.415ZM51.563 84.115a1.45 1.45 0 1 0-.002-2.9 1.45 1.45 0 0 0 .002 2.9ZM57.782 84.34a1.672 1.672 0 1 0 0-3.345 1.674 1.674 0 0 0 0 3.345ZM64.004 84.582a1.915 1.915 0 1 0 0-3.83 1.915 1.915 0 0 0 0 3.83ZM70.225 84.804a2.139 2.139 0 1 0 .001-4.277 2.139 2.139 0 0 0-.001 4.277ZM76.446 85.012a2.346 2.346 0 1 0 0-4.692 2.346 2.346 0 0 0 0 4.692ZM82.666 85.202a2.536 2.536 0 1 0 0-5.072 2.536 2.536 0 0 0 0 5.072ZM88.886 85.392a2.726 2.726 0 1 0 .001-5.452 2.726 2.726 0 0 0 0 5.452ZM95.108 85.547a2.881 2.881 0 1 0-.002-5.762 2.881 2.881 0 0 0 .002 5.762ZM101.329 85.684a3.019 3.019 0 1 0 0-6.037 3.019 3.019 0 0 0 0 6.037Z" fill="#000"/><path d="M107.55 85.807a3.14 3.14 0 1 0-.001-6.28 3.14 3.14 0 0 0 .001 6.28Z" fill="#000"/><path d="M113.771 85.857a3.19 3.19 0 1 0 0-6.381 3.19 3.19 0 0 0 0 6.38Z" fill="#000"/><path d="M119.99 85.891a3.226 3.226 0 1 0 .002-6.451 3.226 3.226 0 0 0-.002 6.451Z" fill="#000"/><path d="M126.212 85.874a3.207 3.207 0 1 0 .001-6.415 3.207 3.207 0 0 0-.001 6.415Z" fill="#000"/><path d="M132.433 85.807a3.14 3.14 0 1 0-.001-6.28 3.14 3.14 0 0 0 .001 6.28Z" fill="#000"/><path d="M138.654 85.703a3.037 3.037 0 1 0-.002-6.074 3.037 3.037 0 0 0 .002 6.074Z" fill="#000"/><path d="M144.875 85.563a2.895 2.895 0 0 0 2.897-2.896 2.897 2.897 0 1 0-2.897 2.896ZM151.095 85.41a2.742 2.742 0 1 0 .001-5.486 2.742 2.742 0 0 0-.001 5.485ZM157.316 85.22a2.553 2.553 0 1 0 .002-5.107 2.553 2.553 0 0 0-.002 5.106ZM163.537 85.029a2.364 2.364 0 1 0 0-4.728 2.364 2.364 0 0 0 0 4.728ZM169.758 84.822a2.156 2.156 0 1 0 0-4.313 2.158 2.158 0 0 0 0 4.313ZM175.978 84.597a1.931 1.931 0 1 0 .002-3.862 1.931 1.931 0 0 0-.002 3.862ZM182.199 84.374a1.707 1.707 0 1 0 0-3.414 1.707 1.707 0 0 0 0 3.414ZM188.42 84.132a1.467 1.467 0 1 0 0-2.933 1.467 1.467 0 0 0 0 2.933ZM194.641 83.89a1.224 1.224 0 1 0 .002-2.448 1.224 1.224 0 0 0-.002 2.448ZM200.862 83.65a.984.984 0 1 0-.002-1.968.984.984 0 0 0 .002 1.968ZM207.082 83.391a.724.724 0 1 0 0-1.45.724.724 0 0 0 0 1.45ZM213.303 83.149a.483.483 0 1 0 .003-.965.483.483 0 0 0-.003.965ZM219.524 82.89c.124 0 .225-.1.225-.223a.225.225 0 0 0-.45 0c0 .123.101.223.225.223ZM225.745 82.683c.008 0 .017-.007.017-.016 0-.01-.009-.019-.017-.019-.009 0-.018.009-.018.02 0 .008.009.015.018.015ZM14.238 88.94a.052.052 0 0 0 .051-.054.052.052 0 0 0-.051-.052.052.052 0 0 0-.052.052c0 .03.023.053.052.053ZM20.458 89.18a.293.293 0 1 0 .001-.586.293.293 0 0 0 0 .586ZM26.679 89.44a.552.552 0 1 0 0-1.106.552.552 0 0 0 0 1.105ZM32.9 89.698a.812.812 0 0 0 0-1.622.812.812 0 0 0 0 1.622ZM39.12 89.956a1.069 1.069 0 1 0 0-2.138 1.068 1.068 0 1 0 0 2.138ZM45.342 90.198a1.31 1.31 0 1 0 .001-2.622 1.31 1.31 0 0 0-.001 2.622ZM51.563 90.457a1.57 1.57 0 1 0-.002-3.14 1.57 1.57 0 0 0 .002 3.14ZM57.782 90.699a1.812 1.812 0 0 0 0-3.624 1.812 1.812 0 0 0 0 3.624ZM64.004 90.939a2.053 2.053 0 1 0 0-4.105 2.053 2.053 0 0 0 0 4.105ZM70.225 91.163a2.277 2.277 0 1 0 0-4.554 2.277 2.277 0 0 0 0 4.555ZM76.446 91.405a2.52 2.52 0 1 0-.002-5.038 2.52 2.52 0 0 0 .002 5.038ZM82.667 91.613a2.727 2.727 0 0 0 0-5.452 2.725 2.725 0 1 0 0 5.452ZM88.887 91.819a2.932 2.932 0 1 0 .002-5.865 2.932 2.932 0 0 0-.002 5.865Z" fill="#000"/><path d="M95.108 91.991a3.104 3.104 0 1 0 0-6.21 3.106 3.106 0 0 0 0 6.21Z" fill="#000"/><path d="M101.329 92.147a3.26 3.26 0 1 0-.002-6.522 3.26 3.26 0 0 0 .002 6.522Z" fill="#000"/><path d="M107.55 92.268a3.38 3.38 0 1 0 0-6.762 3.38 3.38 0 0 0 0 6.762Z" fill="#000"/><path d="M113.77 92.354a3.468 3.468 0 1 0 0-6.935 3.468 3.468 0 0 0 0 6.935Z" fill="#000"/><path d="M119.99 92.371a3.484 3.484 0 1 0 .002-6.968 3.484 3.484 0 0 0-.002 6.968Z" fill="#000"/><path d="M126.212 92.354a3.468 3.468 0 1 0 0-6.935 3.468 3.468 0 0 0 0 6.935Z" fill="#000"/><path d="M132.433 92.285a3.398 3.398 0 1 0 .001-6.797 3.398 3.398 0 0 0-.001 6.797Z" fill="#000"/><path d="M138.654 92.164a3.277 3.277 0 1 0 0-6.554 3.277 3.277 0 0 0 0 6.554Z" fill="#000"/><path d="M144.874 92.01a3.124 3.124 0 0 0 0-6.247 3.124 3.124 0 0 0 0 6.247Z" fill="#000"/><path d="M151.095 91.836a2.949 2.949 0 1 0 0-5.898 2.949 2.949 0 0 0 0 5.898ZM157.316 91.63a2.743 2.743 0 1 0-.001-5.485 2.743 2.743 0 0 0 .001 5.485ZM163.537 91.423a2.535 2.535 0 1 0 0-5.07 2.535 2.535 0 0 0 0 5.07ZM169.757 91.198a2.311 2.311 0 1 0 0-4.622 2.31 2.31 0 1 0 0 4.622ZM175.978 90.958a2.072 2.072 0 1 0-.001-4.143 2.072 2.072 0 0 0 .001 4.143ZM182.199 90.716c1.009 0 1.83-.82 1.83-1.83a1.829 1.829 0 1 0-1.83 1.83ZM188.42 90.474a1.586 1.586 0 1 0 0-3.173 1.586 1.586 0 0 0 0 3.173ZM194.641 90.232a1.345 1.345 0 1 0 .002-2.69 1.345 1.345 0 0 0-.002 2.69ZM200.861 89.973a1.087 1.087 0 1 0 .001-2.173 1.087 1.087 0 0 0-.001 2.173ZM207.082 89.715a.828.828 0 1 0 0-1.656.828.828 0 0 0 0 1.656ZM213.303 89.456a.57.57 0 1 0 .002-1.138.57.57 0 0 0-.002 1.138ZM219.524 89.197a.31.31 0 1 0 0-.622.31.31 0 0 0 0 .622ZM225.745 88.955c.038 0 .069-.03.069-.07a.068.068 0 0 0-.069-.067.068.068 0 0 0-.069.068c0 .04.031.069.069.069ZM14.238 95.21a.103.103 0 1 0 0-.206.103.103 0 1 0 0 .206ZM20.459 95.47a.362.362 0 1 0 0-.724.362.362 0 0 0 0 .724ZM26.679 95.746a.64.64 0 1 0 0-1.279.64.64 0 0 0 0 1.279ZM32.9 96.004a.897.897 0 1 0 .001-1.794.897.897 0 0 0-.001 1.794ZM39.12 96.263a1.155 1.155 0 1 0 .003-2.31 1.155 1.155 0 0 0-.002 2.31ZM45.342 96.522a1.414 1.414 0 1 0 0-2.828 1.414 1.414 0 0 0 0 2.828ZM51.563 96.78a1.672 1.672 0 1 0 .002-3.345 1.672 1.672 0 0 0-.002 3.344ZM57.782 97.023a1.915 1.915 0 1 0 .002-3.83 1.915 1.915 0 0 0-.002 3.83ZM64.004 97.28a2.173 2.173 0 1 0 0-4.346 2.173 2.173 0 0 0 0 4.347ZM70.225 97.523a2.415 2.415 0 1 0 0-4.83 2.415 2.415 0 0 0 0 4.83ZM76.446 97.764a2.657 2.657 0 1 0-.002-5.313 2.657 2.657 0 0 0 .002 5.313ZM82.667 97.987a2.88 2.88 0 1 0 .001-5.76 2.88 2.88 0 0 0-.001 5.76Z" fill="#000"/><path d="M88.887 98.212a3.104 3.104 0 1 0 0-6.209 3.105 3.105 0 1 0 0 6.21Z" fill="#000"/><path d="M95.108 98.42a3.312 3.312 0 1 0 .001-6.624 3.312 3.312 0 0 0-.001 6.623Z" fill="#000"/><path d="M101.329 98.592a3.484 3.484 0 1 0 0-6.969 3.484 3.484 0 0 0 0 6.97Z" fill="#000"/><path d="M107.55 98.748a3.64 3.64 0 1 0 0-7.28 3.64 3.64 0 0 0 0 7.28Z" fill="#000"/><path d="M113.77 98.834a3.727 3.727 0 0 0 0-7.453 3.726 3.726 0 0 0 0 7.453Z" fill="#000"/><path d="M119.991 98.869a3.762 3.762 0 1 0-.001-7.523 3.762 3.762 0 0 0 .001 7.523Z" fill="#000"/><path d="M126.212 98.834a3.727 3.727 0 1 0-.001-7.453 3.727 3.727 0 0 0 .001 7.453Z" fill="#000"/><path d="M132.433 98.748a3.64 3.64 0 1 0 0-7.28 3.64 3.64 0 0 0 0 7.28Z" fill="#000"/><path d="M138.654 98.61a3.501 3.501 0 1 0 .001-7.003 3.501 3.501 0 0 0-.001 7.002Z" fill="#000"/><path d="M144.875 98.437a3.33 3.33 0 1 0-.001-6.66 3.33 3.33 0 0 0 .001 6.66Z" fill="#000"/><path d="M151.095 98.231a3.123 3.123 0 1 0 0-6.245 3.123 3.123 0 0 0 0 6.245Z" fill="#000"/><path d="M157.316 98.022a2.916 2.916 0 1 0-.001-5.83 2.916 2.916 0 0 0 .001 5.83ZM163.537 97.782a2.673 2.673 0 1 0 0-5.35 2.673 2.673 0 0 0 0 5.35ZM169.758 97.54a2.432 2.432 0 1 0 .002-4.864 2.432 2.432 0 0 0-.002 4.864ZM175.978 97.298c1.212 0 2.191-.98 2.191-2.19a2.191 2.191 0 1 0-2.191 2.19ZM182.199 97.056a1.949 1.949 0 1 0 0-3.899 1.949 1.949 0 0 0 0 3.899ZM188.42 96.798a1.69 1.69 0 1 0 .002-3.381 1.69 1.69 0 0 0-.002 3.381ZM194.641 96.54a1.432 1.432 0 1 0 0-2.864 1.432 1.432 0 0 0 0 2.863ZM200.861 96.28a1.172 1.172 0 1 0-1.173-1.171c0 .648.525 1.171 1.173 1.171ZM207.082 96.023a.914.914 0 1 0 0-1.829.914.914 0 0 0 0 1.829ZM213.303 95.763a.655.655 0 1 0 0-1.313.655.655 0 0 0 0 1.313ZM219.524 95.504a.397.397 0 1 0 0-.794.397.397 0 0 0 0 .794ZM225.745 95.245a.137.137 0 1 0 0-.275.137.137 0 1 0 0 .275ZM14.238 101.483a.155.155 0 0 0 .155-.154.155.155 0 0 0-.31 0c0 .085.07.154.155.154ZM20.459 101.76a.432.432 0 1 0-.001-.863.432.432 0 0 0 0 .863ZM26.678 102.019a.69.69 0 1 0 0-1.382.69.69 0 0 0 0 1.382ZM32.9 102.293a.965.965 0 1 0 0-1.93.966.966 0 1 0 0 1.93ZM39.12 102.553a1.225 1.225 0 1 0 .002-2.45 1.225 1.225 0 0 0-.001 2.45ZM45.342 102.812a1.483 1.483 0 1 0 0-2.967 1.483 1.483 0 0 0 0 2.967ZM51.563 103.087a1.76 1.76 0 1 0 0-3.518 1.76 1.76 0 0 0 0 3.518ZM57.782 103.346a2.018 2.018 0 1 0 .002-4.036 2.018 2.018 0 0 0-.002 4.036ZM64.004 103.605a2.277 2.277 0 1 0 .001-4.554 2.277 2.277 0 0 0 0 4.554ZM70.225 103.864a2.535 2.535 0 1 0 0-5.07 2.535 2.535 0 0 0 0 5.07ZM76.445 104.106a2.777 2.777 0 1 0 0-5.554 2.777 2.777 0 0 0 0 5.554ZM82.666 104.346a3.02 3.02 0 1 0-.002-6.036 3.02 3.02 0 0 0 .002 6.036Z" fill="#000"/><path d="M88.887 104.588a3.26 3.26 0 1 0 0-6.52 3.26 3.26 0 0 0 0 6.52Z" fill="#000"/><path d="M95.108 104.813a3.484 3.484 0 1 0 0-6.968 3.484 3.484 0 0 0 0 6.968Z" fill="#000"/><path d="M101.329 105.02a3.692 3.692 0 1 0 0-7.385 3.692 3.692 0 0 0 0 7.385Z" fill="#000"/><path d="M107.55 105.193a3.865 3.865 0 1 0-.001-7.73 3.865 3.865 0 0 0 .001 7.73Z" fill="#000"/><path d="M113.77 105.314a3.985 3.985 0 1 0 0-7.97 3.985 3.985 0 0 0 0 7.97Z" fill="#000"/><path d="M119.991 105.364a4.036 4.036 0 1 0 .002-8.072 4.036 4.036 0 0 0-.002 8.072Z" fill="#000"/><path d="M126.212 105.331a4.002 4.002 0 0 0 4.002-4.002 4.002 4.002 0 1 0-4.002 4.002Z" fill="#000"/><path d="M132.433 105.21a3.881 3.881 0 1 0 0-7.764 3.881 3.881 0 0 0 0 7.764Z" fill="#000"/><path d="M138.654 105.038a3.709 3.709 0 1 0-.001-7.417 3.709 3.709 0 0 0 .001 7.417Z" fill="#000"/><path d="M144.874 104.83a3.501 3.501 0 1 0 .001-7.003 3.501 3.501 0 0 0-.001 7.003Z" fill="#000"/><path d="M151.095 104.606a3.277 3.277 0 1 0 .002-6.554 3.277 3.277 0 0 0-.002 6.554Z" fill="#000"/><path d="M157.316 104.383a3.055 3.055 0 0 0 0-6.109 3.055 3.055 0 0 0 0 6.109ZM163.537 104.141a2.812 2.812 0 1 0 .002-5.622 2.812 2.812 0 0 0-.002 5.622ZM169.757 103.881a2.552 2.552 0 1 0 .003-5.105 2.552 2.552 0 0 0-.003 5.105ZM175.978 103.622a2.294 2.294 0 1 0 .002-4.588 2.294 2.294 0 0 0-.002 4.588ZM182.199 103.365a2.037 2.037 0 1 0-.001-4.073 2.037 2.037 0 0 0 .001 4.073ZM188.42 103.106a1.777 1.777 0 1 0-.001-3.553 1.777 1.777 0 0 0 .001 3.553ZM194.641 102.847a1.52 1.52 0 0 0 0-3.037 1.517 1.517 0 0 0 0 3.037ZM200.862 102.57a1.242 1.242 0 1 0 0-2.483 1.242 1.242 0 0 0 0 2.483ZM207.082 102.311a.983.983 0 1 0 .002-1.966.983.983 0 0 0-.002 1.966ZM213.303 102.053a.724.724 0 1 0 0-1.448.724.724 0 0 0 0 1.448ZM219.524 101.777a.448.448 0 1 0 .002-.896.448.448 0 0 0-.002.896ZM225.745 101.518a.19.19 0 1 0 0-.38.19.19 0 0 0 0 .38ZM14.238 107.756a.206.206 0 1 0 0-.413.205.205 0 0 0-.207.207c0 .114.092.206.207.206ZM20.458 108.015a.466.466 0 1 0 0-.931.466.466 0 0 0 0 .931ZM26.678 108.292a.743.743 0 0 0 0-1.485.742.742 0 0 0 0 1.485ZM32.9 108.568a1.018 1.018 0 1 0-.001-2.036 1.018 1.018 0 0 0 .001 2.036ZM39.121 108.825a1.276 1.276 0 1 0 0-2.552 1.276 1.276 0 0 0 0 2.552ZM45.342 109.102a1.553 1.553 0 1 0 0-3.105 1.553 1.553 0 0 0 0 3.105ZM51.562 109.361a1.812 1.812 0 1 0 0-3.624 1.812 1.812 0 0 0 0 3.624ZM57.782 109.638a2.088 2.088 0 1 0 0-4.175 2.088 2.088 0 0 0 0 4.175ZM64.004 109.895a2.346 2.346 0 1 0 0-4.692 2.346 2.346 0 0 0 0 4.692ZM70.225 110.154a2.605 2.605 0 1 0 0-5.21 2.605 2.605 0 0 0 0 5.21ZM76.446 110.413a2.864 2.864 0 1 0 0-5.727 2.864 2.864 0 0 0 0 5.727Z" fill="#000"/><path d="M82.667 110.688a3.14 3.14 0 1 0 .001-6.278 3.14 3.14 0 0 0-.001 6.278Z" fill="#000"/><path d="M88.887 110.93a3.38 3.38 0 1 0 .001-6.762 3.38 3.38 0 0 0-.001 6.762Z" fill="#000"/><path d="M95.108 111.189a3.64 3.64 0 1 0 0-7.28 3.64 3.64 0 0 0 0 7.28Z" fill="#000"/><path d="M101.329 111.412a3.863 3.863 0 1 0 0-7.727 3.864 3.864 0 1 0 0 7.727Z" fill="#000"/><path d="M107.55 111.62a4.07 4.07 0 1 0 0-8.141 4.07 4.07 0 1 0 0 8.141Z" fill="#000"/><path d="M113.771 111.792a4.244 4.244 0 1 0-.002-8.488 4.244 4.244 0 0 0 .002 8.488Z" fill="#000"/><path d="M119.991 111.844a4.295 4.295 0 1 0 .002-8.59 4.295 4.295 0 0 0-.002 8.59Z" fill="#000"/><path d="M126.212 111.792a4.244 4.244 0 1 0 0-8.488 4.244 4.244 0 0 0 0 8.488Z" fill="#000"/><path d="M132.433 111.637a4.09 4.09 0 0 0 0-8.177 4.09 4.09 0 0 0 0 8.177Z" fill="#000"/><path d="M138.654 111.431a3.882 3.882 0 1 0-.001-7.763 3.882 3.882 0 0 0 .001 7.763Z" fill="#000"/><path d="M144.875 111.207a3.657 3.657 0 1 0 0-7.315 3.657 3.657 0 0 0 0 7.315Z" fill="#000"/><path d="M151.094 110.965a3.416 3.416 0 1 0 .001-6.83 3.416 3.416 0 0 0-.001 6.83Z" fill="#000"/><path d="M157.316 110.705a3.157 3.157 0 1 0 0-6.313 3.157 3.157 0 0 0 0 6.313Z" fill="#000"/><path d="M163.537 110.448a2.899 2.899 0 1 0-.001-5.797 2.899 2.899 0 0 0 .001 5.797ZM169.758 110.189a2.641 2.641 0 0 0 2.64-2.639 2.639 2.639 0 1 0-2.64 2.639ZM175.978 109.912a2.362 2.362 0 1 0 0-4.726 2.363 2.363 0 0 0 0 4.726ZM182.199 109.653a2.104 2.104 0 1 0 .002-4.208 2.104 2.104 0 0 0-.002 4.208ZM188.42 109.394a1.845 1.845 0 1 0 0-3.69 1.845 1.845 0 0 0 0 3.69ZM194.641 109.119a1.569 1.569 0 1 0 0-3.138 1.569 1.569 0 0 0 0 3.138ZM200.861 108.843a1.294 1.294 0 1 0 .003-2.587 1.294 1.294 0 0 0-.003 2.587ZM207.082 108.585a1.036 1.036 0 1 0-.002-2.072 1.036 1.036 0 0 0 .002 2.072ZM213.303 108.309a.76.76 0 1 0 0-1.518.76.76 0 0 0 0 1.518ZM219.524 108.049a.5.5 0 1 0 0-1.002.5.5 0 0 0 0 1.002ZM225.745 107.773a.224.224 0 1 0-.001-.447.224.224 0 0 0 .001.447ZM231.966 107.566c.01 0 .017-.007.017-.016 0-.01-.007-.019-.017-.019-.009 0-.018.009-.018.019 0 .009.009.016.018.016ZM8.017 113.787c.01 0 .017-.007.017-.016 0-.01-.008-.019-.017-.019-.01 0-.017.009-.017.019 0 .009.007.016.017.016ZM14.238 113.994a.224.224 0 1 0-.224-.223c0 .123.1.223.224.223ZM20.458 114.27a.5.5 0 1 0 0-1.001.5.5 0 0 0 0 1.001ZM26.678 114.529a.76.76 0 1 0 .002-1.519.76.76 0 0 0-.002 1.519ZM32.9 114.804a1.034 1.034 0 1 0 .002-2.068 1.034 1.034 0 0 0-.002 2.068ZM39.12 115.081a1.31 1.31 0 1 0 0-2.622 1.311 1.311 0 0 0 0 2.622ZM45.342 115.357a1.587 1.587 0 1 0 .001-3.174 1.587 1.587 0 0 0-.001 3.174ZM51.563 115.615a1.845 1.845 0 1 0 0-3.69 1.845 1.845 0 0 0 0 3.69ZM57.783 115.891a2.121 2.121 0 1 0 .002-4.243 2.121 2.121 0 0 0-.002 4.243ZM64.004 116.168a2.398 2.398 0 1 0 0-4.795 2.398 2.398 0 0 0 0 4.795ZM70.225 116.427a2.658 2.658 0 1 0-.001-5.315 2.658 2.658 0 0 0 .001 5.315ZM76.446 116.702a2.932 2.932 0 1 0 0-5.865 2.933 2.933 0 0 0 0 5.865Z" fill="#000"/><path d="M82.666 116.961a3.19 3.19 0 1 0 0-6.382 3.192 3.192 0 0 0 0 6.382Z" fill="#000"/><path d="M88.887 117.237a3.467 3.467 0 1 0 0-6.934 3.467 3.467 0 0 0 0 6.934Z" fill="#000"/><path d="M95.108 117.496a3.725 3.725 0 1 0 0-7.452 3.725 3.725 0 1 0 0 7.452Z" fill="#000"/><path d="M101.329 117.754a3.984 3.984 0 1 0-3.985-3.983c0 2.2 1.784 3.983 3.985 3.983Z" fill="#000"/><path d="M107.55 118.013a4.243 4.243 0 1 0 0-8.486 4.243 4.243 0 1 0 0 8.486Z" fill="#000"/><path d="M113.771 118.151a4.382 4.382 0 1 0 0-8.763 4.382 4.382 0 0 0 0 8.763Z" fill="#000"/><path d="M119.991 118.169a4.399 4.399 0 1 0 0-8.798 4.399 4.399 0 0 0 0 8.798Z" fill="#000"/><path d="M126.212 118.169a4.399 4.399 0 1 0 0-8.798 4.399 4.399 0 0 0 0 8.798Z" fill="#000"/><path d="M132.433 118.031a4.26 4.26 0 1 0 0-8.521 4.26 4.26 0 1 0 0 8.521Z" fill="#000"/><path d="M138.654 117.788a4.02 4.02 0 1 0-.001-8.037 4.02 4.02 0 0 0 .001 8.037Z" fill="#000"/><path d="M144.874 117.531a3.762 3.762 0 0 0 3.762-3.76 3.761 3.761 0 1 0-3.762 3.76Z" fill="#000"/><path d="M151.094 117.254a3.484 3.484 0 1 0 0-6.969 3.485 3.485 0 0 0 0 6.969Z" fill="#000"/><path d="M157.316 116.995a3.226 3.226 0 1 0 0-6.452 3.226 3.226 0 0 0 0 6.452Z" fill="#000"/><path d="M163.537 116.721a2.95 2.95 0 1 0-.003-5.903 2.95 2.95 0 0 0 .003 5.903ZM169.757 116.461a2.69 2.69 0 1 0-2.69-2.69 2.69 2.69 0 0 0 2.69 2.69ZM175.978 116.185a2.416 2.416 0 1 0 0-4.832 2.416 2.416 0 0 0 0 4.832ZM182.199 115.908a2.138 2.138 0 1 0 0-4.276 2.138 2.138 0 1 0 0 4.276ZM188.42 115.649a1.88 1.88 0 1 0 .001-3.759 1.88 1.88 0 0 0-.001 3.759ZM194.641 115.375a1.604 1.604 0 1 0-.001-3.207 1.604 1.604 0 0 0 .001 3.207ZM200.861 115.098a1.327 1.327 0 1 0 .003-2.655 1.327 1.327 0 0 0-.003 2.655ZM207.082 114.839a1.07 1.07 0 1 0 .001-2.139 1.07 1.07 0 0 0-.001 2.139ZM213.303 114.562a.793.793 0 1 0 0-1.585.793.793 0 0 0 0 1.585ZM219.524 114.288a.517.517 0 1 0 .001-1.035.517.517 0 0 0-.001 1.035ZM225.745 114.011a.241.241 0 1 0 0-.482.241.241 0 1 0 0 .482ZM231.966 113.787c.01 0 .017-.007.017-.016 0-.01-.007-.019-.017-.019-.009 0-.018.009-.018.019 0 .009.009.016.018.016ZM8.017 120.009c.01 0 .017-.009.017-.019a.017.017 0 0 0-.017-.017.017.017 0 0 0-.017.017c0 .01.007.019.017.019ZM14.238 120.215a.224.224 0 1 0 0-.448.224.224 0 1 0 0 .448ZM20.458 120.491a.501.501 0 1 0 0-1.002.501.501 0 0 0 0 1.002ZM26.678 120.766a.775.775 0 1 0-.776-.776c0 .43.349.776.777.776ZM32.9 121.025a1.035 1.035 0 1 0 0-2.07 1.035 1.035 0 0 0 0 2.07ZM39.12 121.302a1.31 1.31 0 1 0 0-2.622 1.311 1.311 0 1 0 0 2.622ZM45.342 121.578a1.587 1.587 0 1 0 0-3.175 1.587 1.587 0 0 0 0 3.175ZM51.562 121.853a1.863 1.863 0 1 0 .002-3.725 1.863 1.863 0 0 0-.002 3.725ZM57.783 122.129a2.138 2.138 0 1 0 .002-4.277 2.138 2.138 0 0 0-.002 4.277ZM64.004 122.388a2.397 2.397 0 1 0 0-4.795 2.397 2.397 0 0 0 0 4.795ZM70.225 122.663a2.673 2.673 0 1 0 0-5.346 2.673 2.673 0 0 0 0 5.346ZM76.446 122.94a2.95 2.95 0 1 0 0-5.9 2.95 2.95 0 0 0 0 5.9Z" fill="#000"/><path d="M82.666 123.216a3.226 3.226 0 1 0 0-6.452 3.226 3.226 0 0 0 0 6.452Z" fill="#000"/><path d="M88.886 123.475a3.485 3.485 0 1 0 .001-6.97 3.485 3.485 0 0 0 0 6.97Z" fill="#000"/><path d="M95.108 123.75a3.76 3.76 0 1 0 .001-7.52 3.76 3.76 0 0 0 0 7.52Z" fill="#000"/><path d="M101.329 124.027a4.036 4.036 0 1 0 0-8.074 4.036 4.036 0 0 0 0 8.074Z" fill="#000"/><path d="M107.55 124.286a4.296 4.296 0 1 0 0-8.592 4.296 4.296 0 0 0 0 8.592Z" fill="#000"/><path d="M113.771 124.389a4.399 4.399 0 1 0-.002-8.798 4.399 4.399 0 0 0 .002 8.798Z" fill="#000"/><path d="M119.991 124.389a4.399 4.399 0 1 0 0-8.798 4.399 4.399 0 0 0 0 8.798Z" fill="#000"/><path d="M126.212 124.389a4.399 4.399 0 1 0 0-8.798 4.399 4.399 0 0 0 0 8.798Z" fill="#000"/><path d="M132.433 124.32a4.33 4.33 0 1 0 0-8.66 4.33 4.33 0 0 0 0 8.66Z" fill="#000"/><path d="M138.654 124.046a4.055 4.055 0 0 0 0-8.11 4.055 4.055 0 0 0 0 8.11Z" fill="#000"/><path d="M144.874 123.786a3.795 3.795 0 1 0 0-7.592 3.795 3.795 0 0 0 0 7.592Z" fill="#000"/><path d="M151.095 123.51a3.52 3.52 0 1 0 0-7.038 3.52 3.52 0 0 0 0 7.038Z" fill="#000"/><path d="M157.316 123.234a3.243 3.243 0 1 0 0-6.485 3.243 3.243 0 0 0 0 6.485Z" fill="#000"/><path d="M163.537 122.974a2.983 2.983 0 1 0 0-5.966 2.983 2.983 0 1 0 0 5.966ZM169.758 122.699a2.71 2.71 0 1 0 0-5.418 2.71 2.71 0 0 0 0 5.418ZM175.978 122.423a2.431 2.431 0 1 0 .003-4.863 2.431 2.431 0 0 0-.003 4.863ZM182.199 122.164a2.174 2.174 0 1 0 0-4.347 2.174 2.174 0 0 0 0 4.347ZM188.42 121.889a1.898 1.898 0 1 0-.003-3.797 1.898 1.898 0 0 0 .003 3.797ZM194.641 121.613a1.623 1.623 0 1 0-.001-3.245 1.623 1.623 0 0 0 .001 3.245ZM200.861 121.336a1.345 1.345 0 1 0 0-2.69 1.345 1.345 0 1 0 0 2.69ZM207.082 121.077a1.087 1.087 0 1 0 0-2.174 1.087 1.087 0 0 0 0 2.174ZM213.303 120.802a.812.812 0 0 0 0-1.622.811.811 0 0 0 0 1.622ZM219.524 120.526a.536.536 0 1 0 0-1.069.536.536 0 0 0 0 1.069ZM225.745 120.249a.26.26 0 1 0 0-.518.26.26 0 0 0 0 .518ZM231.965 120.025a.035.035 0 0 0 .035-.035c0-.017-.016-.033-.035-.033a.034.034 0 0 0-.034.033c0 .019.015.035.034.035ZM8.017 126.23c.01 0 .017-.009.017-.017 0-.011-.008-.018-.017-.018-.01 0-.017.007-.017.018 0 .008.007.017.017.017ZM14.238 126.436a.225.225 0 1 0 0-.45.225.225 0 0 0 0 .45ZM20.458 126.712a.5.5 0 1 0 .002-1 .5.5 0 0 0-.002 1ZM26.678 126.971a.76.76 0 1 0 .002-1.519.76.76 0 0 0-.002 1.519ZM32.9 127.246a1.034 1.034 0 1 0 .002-2.068 1.034 1.034 0 0 0-.002 2.068ZM39.12 127.522a1.31 1.31 0 1 0 .002-2.62 1.31 1.31 0 0 0-.001 2.62ZM45.342 127.799a1.587 1.587 0 1 0 .001-3.174 1.587 1.587 0 0 0-.001 3.174ZM51.563 128.058a1.846 1.846 0 1 0-.002-3.693 1.846 1.846 0 0 0 .002 3.693ZM57.783 128.333a2.121 2.121 0 1 0 .002-4.242 2.121 2.121 0 0 0-.002 4.242ZM64.004 128.609a2.397 2.397 0 1 0 0-4.795 2.398 2.398 0 1 0 0 4.795ZM70.225 128.868a2.657 2.657 0 1 0 0-5.314 2.657 2.657 0 0 0 0 5.314ZM76.446 129.145a2.932 2.932 0 1 0 0-5.865 2.932 2.932 0 0 0 0 5.865Z" fill="#000"/><path d="M82.666 129.42a3.208 3.208 0 1 0 0-6.416 3.208 3.208 0 0 0 0 6.416Z" fill="#000"/><path d="M88.887 129.679a3.467 3.467 0 1 0 .002-6.934 3.467 3.467 0 0 0-.002 6.934Z" fill="#000"/><path d="M95.108 129.938a3.727 3.727 0 1 0 0-7.453 3.727 3.727 0 0 0 0 7.453Z" fill="#000"/><path d="M101.329 130.213a4.003 4.003 0 1 0-.001-8.003 4.003 4.003 0 0 0 .001 8.003Z" fill="#000"/><path d="M107.55 130.455a4.243 4.243 0 1 0 0-8.486 4.243 4.243 0 1 0 0 8.486Z" fill="#000"/><path d="M113.771 130.61a4.399 4.399 0 1 0-.002-8.796 4.399 4.399 0 0 0 .002 8.796Z" fill="#000"/><path d="M119.991 130.61a4.399 4.399 0 1 0 0-8.796 4.399 4.399 0 0 0 0 8.796Z" fill="#000"/><path d="M126.212 130.61a4.399 4.399 0 1 0 0-8.796 4.399 4.399 0 0 0 0 8.796Z" fill="#000"/><path d="M132.433 130.472a4.261 4.261 0 1 0 0-8.522 4.261 4.261 0 0 0 0 8.522Z" fill="#000"/><path d="M138.654 130.232a4.02 4.02 0 1 0-.002-8.04 4.02 4.02 0 0 0 .002 8.04Z" fill="#000"/><path d="M144.874 129.973a3.762 3.762 0 1 0-3.76-3.76 3.76 3.76 0 0 0 3.76 3.76Z" fill="#000"/><path d="M151.094 129.696a3.484 3.484 0 1 0 0-6.969 3.484 3.484 0 0 0 0 6.969Z" fill="#000"/><path d="M157.316 129.437a3.225 3.225 0 1 0-3.226-3.224 3.225 3.225 0 0 0 3.226 3.224Z" fill="#000"/><path d="M163.537 129.179a2.967 2.967 0 1 0 0-5.934 2.967 2.967 0 0 0 0 5.934ZM169.757 128.903a2.691 2.691 0 1 0 0-5.384 2.691 2.691 0 0 0 0 5.384ZM175.978 128.627a2.416 2.416 0 1 0 0-4.832 2.416 2.416 0 0 0 0 4.832ZM182.199 128.369a2.157 2.157 0 1 0 0-4.314 2.157 2.157 0 0 0 0 4.314ZM188.42 128.093a1.882 1.882 0 0 0 0-3.761 1.88 1.88 0 1 0 0 3.761ZM194.641 127.816a1.604 1.604 0 1 0-.001-3.207 1.604 1.604 0 0 0 .001 3.207ZM200.861 127.539a1.327 1.327 0 1 0 .003-2.655 1.327 1.327 0 0 0-.003 2.655ZM207.082 127.282a1.07 1.07 0 1 0 0-2.14 1.07 1.07 0 0 0 0 2.14ZM213.303 127.006a.793.793 0 1 0 0-1.586.793.793 0 0 0 0 1.586ZM219.524 126.729a.516.516 0 1 0 0-1.035.518.518 0 0 0 0 1.035ZM225.745 126.47a.259.259 0 1 0 0-.517.26.26 0 0 0-.26.26.26.26 0 0 0 .26.257ZM231.966 126.23c.01 0 .017-.009.017-.017 0-.011-.007-.018-.017-.018a.018.018 0 0 0-.018.018c0 .008.009.017.018.017ZM8.017 132.449c.01 0 .017-.007.017-.016a.016.016 0 0 0-.017-.017.016.016 0 0 0-.017.017c0 .009.007.016.017.016ZM14.238 132.639a.206.206 0 1 0 0-.412.206.206 0 0 0 0 .412ZM20.458 132.898a.466.466 0 1 0 0-.931.466.466 0 0 0 0 .931ZM26.678 133.175a.742.742 0 1 0 .002-1.484.742.742 0 0 0-.002 1.484ZM32.9 133.449a1.018 1.018 0 1 0-.002-2.034 1.018 1.018 0 0 0 .002 2.034ZM39.121 133.709a1.275 1.275 0 1 0 0-2.552 1.275 1.275 0 1 0 0 2.552ZM45.342 133.985a1.553 1.553 0 1 0 0-3.105 1.553 1.553 0 0 0 0 3.105ZM51.562 134.244a1.812 1.812 0 1 0 0-3.624 1.812 1.812 0 0 0 0 3.624ZM57.782 134.519a2.087 2.087 0 1 0 .002-4.174 2.087 2.087 0 0 0-.002 4.174ZM64.004 134.778a2.345 2.345 0 1 0 0-4.691 2.346 2.346 0 0 0 0 4.691ZM70.225 135.055a2.623 2.623 0 1 0-.002-5.246 2.623 2.623 0 0 0 .002 5.246ZM76.446 135.312a2.88 2.88 0 1 0 0-5.76 2.88 2.88 0 0 0 0 5.76Z" fill="#000"/><path d="M82.667 135.571a3.139 3.139 0 1 0 0-6.277 3.14 3.14 0 1 0 0 6.277Z" fill="#000"/><path d="M88.887 135.831a3.399 3.399 0 1 0 0-6.798 3.399 3.399 0 0 0 0 6.798Z" fill="#000"/><path d="M95.108 136.072a3.64 3.64 0 1 0-.001-7.28 3.64 3.64 0 0 0 .001 7.28Z" fill="#000"/><path d="M101.329 136.314a3.882 3.882 0 1 0-.002-7.764 3.882 3.882 0 0 0 .002 7.764Z" fill="#000"/><path d="M107.55 136.52a4.09 4.09 0 1 0-.003-8.175 4.09 4.09 0 0 0 .003 8.175Z" fill="#000"/><path d="M113.77 136.693a4.262 4.262 0 0 0 0-8.523 4.262 4.262 0 0 0 0 8.523Z" fill="#000"/><path d="M119.991 136.762a4.33 4.33 0 1 0 .001-8.661 4.33 4.33 0 0 0-.001 8.661Z" fill="#000"/><path d="M126.212 136.693a4.261 4.261 0 1 0 0-8.522 4.261 4.261 0 0 0 0 8.522Z" fill="#000"/><path d="M132.433 136.537a4.106 4.106 0 1 0-.002-8.21 4.106 4.106 0 0 0 .002 8.21Z" fill="#000"/><path d="M138.654 136.332a3.898 3.898 0 1 0 0-7.797 3.898 3.898 0 1 0 0 7.797Z" fill="#000"/><path d="M144.875 136.107a3.674 3.674 0 1 0 0-7.348 3.674 3.674 0 0 0 0 7.348Z" fill="#000"/><path d="M151.094 135.848a3.416 3.416 0 1 0 .001-6.83 3.416 3.416 0 0 0-.001 6.83Z" fill="#000"/><path d="M157.316 135.589a3.158 3.158 0 1 0-.001-6.315 3.158 3.158 0 0 0 .001 6.315Z" fill="#000"/><path d="M163.537 135.331a2.898 2.898 0 1 0 0-5.796 2.898 2.898 0 0 0 0 5.796ZM169.758 135.072a2.641 2.641 0 0 0 2.64-2.639 2.639 2.639 0 1 0-2.64 2.639ZM175.978 134.813a2.382 2.382 0 1 0 0-4.763 2.382 2.382 0 0 0 0 4.763ZM182.199 134.536a2.104 2.104 0 1 0 .002-4.208 2.104 2.104 0 0 0-.002 4.208ZM188.42 134.279a1.846 1.846 0 1 0-.003-3.693 1.846 1.846 0 0 0 .003 3.693ZM194.641 134.002a1.569 1.569 0 1 0 0-3.138 1.569 1.569 0 0 0 0 3.138ZM200.861 133.743a1.312 1.312 0 1 0 0-2.623 1.312 1.312 0 0 0 0 2.623ZM207.082 133.468a1.036 1.036 0 1 0-.002-2.072 1.036 1.036 0 0 0 .002 2.072ZM213.303 133.192a.76.76 0 1 0 0-1.518.76.76 0 0 0 0 1.518ZM219.524 132.933a.502.502 0 1 0-.001-1.003.502.502 0 0 0 .001 1.003ZM225.745 132.656c.124 0 .224-.1.224-.222 0-.125-.1-.227-.224-.227a.226.226 0 0 0-.225.227c0 .122.1.222.225.222ZM231.966 132.449c.01 0 .017-.007.017-.016a.016.016 0 0 0-.017-.017c-.009 0-.018.007-.018.017 0 .009.009.016.018.016ZM14.238 138.808a.155.155 0 0 0 .155-.154.155.155 0 0 0-.31 0c0 .085.07.154.155.154ZM20.459 139.085a.432.432 0 1 0-.001-.863.432.432 0 0 0 0 .863ZM26.678 139.344a.69.69 0 1 0 0-1.382.69.69 0 0 0 0 1.382ZM32.9 139.618a.965.965 0 1 0 0-1.93.966.966 0 1 0 0 1.93ZM39.12 139.877a1.224 1.224 0 1 0-1.224-1.223c0 .676.548 1.223 1.225 1.223ZM45.342 140.154a1.501 1.501 0 1 0 0-3.002 1.501 1.501 0 0 0 0 3.002ZM51.563 140.412a1.76 1.76 0 1 0 0-3.518 1.76 1.76 0 0 0 0 3.518ZM57.782 140.671a2.018 2.018 0 1 0 .002-4.036 2.018 2.018 0 0 0-.002 4.036ZM64.004 140.93a2.278 2.278 0 1 0 0-4.555 2.278 2.278 0 0 0 0 4.555ZM70.225 141.189a2.535 2.535 0 1 0 0-5.07 2.535 2.535 0 0 0 0 5.07ZM76.446 141.448a2.795 2.795 0 1 0 0-5.59 2.795 2.795 0 0 0 0 5.59ZM82.666 141.69a3.037 3.037 0 1 0 0-6.074 3.037 3.037 0 0 0 0 6.074Z" fill="#000"/><path d="M88.887 141.93a3.277 3.277 0 1 0 .002-6.554 3.277 3.277 0 0 0-.002 6.554Z" fill="#000"/><path d="M95.108 142.155a3.502 3.502 0 1 0-.001-7.005 3.502 3.502 0 0 0 .001 7.005Z" fill="#000"/><path d="M101.329 142.363a3.709 3.709 0 1 0 0-7.418 3.709 3.709 0 0 0 0 7.418Z" fill="#000"/><path d="M107.55 142.535a3.882 3.882 0 1 0-.001-7.763 3.882 3.882 0 0 0 .001 7.763Z" fill="#000"/><path d="M113.77 142.672a4.02 4.02 0 1 0-.002-8.038 4.02 4.02 0 0 0 .002 8.038Z" fill="#000"/><path d="M119.991 142.706a4.055 4.055 0 1 0-.002-8.106 4.055 4.055 0 0 0 .002 8.106Z" fill="#000"/><path d="M126.212 142.672a4.02 4.02 0 1 0 .002-8.038 4.02 4.02 0 0 0-.002 8.038Z" fill="#000"/><path d="M132.433 142.551a3.898 3.898 0 1 0 0-7.797 3.898 3.898 0 0 0 0 7.797Z" fill="#000"/><path d="M138.654 142.38a3.726 3.726 0 1 0 0-7.453 3.726 3.726 0 1 0 0 7.453Z" fill="#000"/><path d="M144.875 142.172a3.519 3.519 0 1 0-.001-7.037 3.519 3.519 0 0 0 .001 7.037Z" fill="#000"/><path d="M151.095 141.948a3.295 3.295 0 1 0 0-6.59 3.295 3.295 0 0 0 0 6.59Z" fill="#000"/><path d="M157.316 141.708a3.055 3.055 0 0 0 0-6.109 3.054 3.054 0 0 0 0 6.109ZM163.537 141.464a2.812 2.812 0 1 0 .002-5.624 2.812 2.812 0 0 0-.002 5.624ZM169.757 141.206a2.552 2.552 0 1 0 0-5.106 2.552 2.552 0 0 0-2.552 2.554 2.551 2.551 0 0 0 2.552 2.552ZM175.978 140.965a2.312 2.312 0 1 0 0-4.623 2.312 2.312 0 0 0 0 4.623ZM182.199 140.688a2.035 2.035 0 1 0 .002-4.07 2.035 2.035 0 0 0-.002 4.07ZM188.42 140.431a1.777 1.777 0 1 0-.001-3.553 1.777 1.777 0 0 0 .001 3.553ZM194.641 140.171a1.52 1.52 0 1 0 0-3.038 1.52 1.52 0 0 0 0 3.038ZM200.861 139.912a1.258 1.258 0 1 0 0-2.517 1.26 1.26 0 0 0 0 2.517ZM207.082 139.636a.983.983 0 1 0 .002-1.966.983.983 0 0 0-.002 1.966ZM213.303 139.378a.724.724 0 1 0 0-1.45.724.724 0 0 0 0 1.45ZM219.524 139.102a.45.45 0 1 0 0-.899.45.45 0 0 0 0 .899ZM225.745 138.842a.189.189 0 1 0 0-.378.19.19 0 0 0-.19.19.19.19 0 0 0 .19.188ZM14.238 144.994a.12.12 0 1 0-.12-.119.12.12 0 0 0 .12.119ZM20.458 145.253a.379.379 0 1 0 .002-.758.379.379 0 0 0-.002.758ZM26.679 145.513a.64.64 0 0 0 0-1.277.639.639 0 0 0 0 1.277ZM32.9 145.772a.897.897 0 1 0 0-1.794.897.897 0 0 0 0 1.794ZM39.12 146.029a1.155 1.155 0 1 0-1.155-1.154c0 .638.518 1.154 1.156 1.154ZM45.342 146.288a1.414 1.414 0 1 0 0-2.827 1.414 1.414 0 0 0 0 2.827ZM51.563 146.548a1.674 1.674 0 1 0-.001-3.348 1.674 1.674 0 0 0 0 3.348ZM57.782 146.805a1.93 1.93 0 1 0 .004-3.862 1.93 1.93 0 0 0-.004 3.862ZM64.004 147.064a2.19 2.19 0 1 0-2.19-2.189c0 1.21.98 2.189 2.19 2.189ZM70.225 147.306a2.432 2.432 0 1 0-2.433-2.431 2.432 2.432 0 0 0 2.433 2.431ZM76.446 147.548a2.674 2.674 0 1 0 0-5.348 2.674 2.674 0 0 0 0 5.348ZM82.666 147.771a2.896 2.896 0 1 0 0-5.794 2.897 2.897 0 1 0 0 5.794Z" fill="#000"/><path d="M88.886 147.996a3.122 3.122 0 1 0 .003-6.245 3.122 3.122 0 0 0-.002 6.245Z" fill="#000"/><path d="M95.108 148.203a3.329 3.329 0 1 0 0-6.658 3.329 3.329 0 0 0 0 6.658Z" fill="#000"/><path d="M101.329 148.376a3.501 3.501 0 1 0 0-7.004 3.502 3.502 0 0 0 0 7.004Z" fill="#000"/><path d="M107.55 148.531a3.657 3.657 0 1 0 0-7.314 3.657 3.657 0 0 0 0 7.314Z" fill="#000"/><path d="M113.77 148.635a3.762 3.762 0 0 0 3.762-3.76 3.761 3.761 0 1 0-3.762 3.76Z" fill="#000"/><path d="M119.991 148.67a3.796 3.796 0 1 0-.001-7.591 3.796 3.796 0 0 0 .001 7.591Z" fill="#000"/><path d="M126.212 148.635a3.762 3.762 0 1 0-.001-7.523 3.762 3.762 0 0 0 .001 7.523Z" fill="#000"/><path d="M132.433 148.549a3.675 3.675 0 1 0 0-7.35 3.675 3.675 0 0 0 0 7.35Z" fill="#000"/><path d="M138.654 148.393a3.52 3.52 0 1 0 0-7.039 3.52 3.52 0 0 0 0 7.039Z" fill="#000"/><path d="M144.875 148.22a3.346 3.346 0 1 0 0-6.691 3.346 3.346 0 0 0 0 6.691Z" fill="#000"/><path d="M151.094 148.015a3.141 3.141 0 0 0 0-6.28 3.14 3.14 0 0 0 0 6.28Z" fill="#000"/><path d="M157.316 147.79a2.915 2.915 0 1 0 0-5.83 2.915 2.915 0 0 0 0 5.83ZM163.537 147.565a2.69 2.69 0 0 0 2.69-2.69 2.69 2.69 0 1 0-5.381 0 2.69 2.69 0 0 0 2.691 2.69ZM169.758 147.323a2.45 2.45 0 1 0 0-4.9 2.45 2.45 0 0 0 0 4.9ZM175.978 147.083a2.208 2.208 0 1 0 .002-4.416 2.208 2.208 0 0 0-.002 4.416ZM182.199 146.824a1.95 1.95 0 1 0 0-3.901 1.95 1.95 0 0 0 0 3.901ZM188.42 146.582a1.707 1.707 0 1 0 0-3.415 1.707 1.707 0 0 0 0 3.415ZM194.641 146.323a1.449 1.449 0 1 0-.002-2.898 1.449 1.449 0 0 0 .002 2.898ZM200.862 146.064a1.189 1.189 0 1 0 0-2.38 1.19 1.19 0 1 0 0 2.38ZM207.082 145.806a.932.932 0 1 0 0-1.864.932.932 0 0 0 0 1.864ZM213.303 145.53a.655.655 0 1 0 0-1.314.655.655 0 0 0 0 1.314ZM219.524 145.271a.397.397 0 1 0 0-.794.397.397 0 0 0 0 .794ZM225.745 145.011c.076 0 .138-.06.138-.136a.139.139 0 0 0-.138-.14.139.139 0 0 0-.138.14c0 .076.062.136.138.136ZM14.238 151.148c.029 0 .051-.025.051-.054a.052.052 0 0 0-.051-.052.052.052 0 0 0-.052.052c0 .029.023.054.052.054ZM20.458 151.405a.311.311 0 0 0 0-.622.31.31 0 0 0 0 .622ZM26.679 151.647a.552.552 0 1 0 .001-1.105.552.552 0 0 0-.001 1.105ZM32.9 151.906a.812.812 0 0 0 0-1.622.811.811 0 0 0 0 1.622ZM39.12 152.164a1.069 1.069 0 1 0 .003-2.138 1.069 1.069 0 0 0-.002 2.138ZM45.342 152.423a1.329 1.329 0 1 0 0-2.657 1.329 1.329 0 0 0 0 2.657ZM51.563 152.665a1.57 1.57 0 1 0-.003-3.141 1.57 1.57 0 0 0 .003 3.141ZM57.782 152.924a1.829 1.829 0 1 0 .001-3.658 1.829 1.829 0 0 0 0 3.658ZM64.004 153.166a2.072 2.072 0 0 0 0-4.142 2.07 2.07 0 0 0 0 4.142ZM70.225 153.389a2.294 2.294 0 1 0 0-4.589 2.294 2.294 0 0 0 0 4.589ZM76.446 153.613a2.519 2.519 0 1 0-.002-5.038 2.519 2.519 0 0 0 .002 5.038ZM82.666 153.838a2.743 2.743 0 1 0-.001-5.487 2.743 2.743 0 0 0 .001 5.487ZM88.886 154.044a2.95 2.95 0 1 0 0-5.9 2.95 2.95 0 0 0 0 5.9Z" fill="#000"/><path d="M95.108 154.216a3.122 3.122 0 1 0 0-6.245 3.122 3.122 0 0 0 0 6.245Z" fill="#000"/><path d="M101.329 154.372a3.278 3.278 0 1 0 0-6.556 3.278 3.278 0 0 0 0 6.556Z" fill="#000"/><path d="M107.55 154.51a3.415 3.415 0 1 0 0-6.83 3.415 3.415 0 0 0 0 6.83Z" fill="#000"/><path d="M113.771 154.579a3.485 3.485 0 1 0-.002-6.97 3.485 3.485 0 0 0 .002 6.97Z" fill="#000"/><path d="M119.991 154.614a3.52 3.52 0 1 0 0-7.038 3.52 3.52 0 0 0 0 7.038Z" fill="#000"/><path d="M126.212 154.579a3.484 3.484 0 1 0 0-6.968 3.484 3.484 0 0 0 0 6.968Z" fill="#000"/><path d="M132.433 154.51a3.415 3.415 0 1 0 0-6.83 3.415 3.415 0 0 0 0 6.83Z" fill="#000"/><path d="M138.654 154.389a3.294 3.294 0 1 0 0-6.588 3.294 3.294 0 0 0 0 6.588Z" fill="#000"/><path d="M144.875 154.234a3.14 3.14 0 1 0 0-6.28 3.14 3.14 0 0 0 0 6.28Z" fill="#000"/><path d="M151.094 154.063a2.968 2.968 0 1 0 0-5.936 2.968 2.968 0 0 0 0 5.936ZM157.316 153.855a2.76 2.76 0 1 0 0-5.52 2.76 2.76 0 0 0 0 5.52ZM163.537 153.648a2.553 2.553 0 1 0 .001-5.107 2.553 2.553 0 0 0-.001 5.107ZM169.757 153.406a2.311 2.311 0 1 0 0-4.622 2.31 2.31 0 1 0 0 4.622ZM175.978 153.181a2.087 2.087 0 1 0 .003-4.173 2.087 2.087 0 0 0-.003 4.173ZM182.199 152.939c1.02 0 1.845-.824 1.845-1.845 0-1.02-.825-1.844-1.845-1.844s-1.845.824-1.845 1.844c0 1.021.825 1.845 1.845 1.845ZM188.42 152.699a1.606 1.606 0 1 0-.001-3.211 1.606 1.606 0 0 0 .001 3.211ZM194.641 152.44a1.345 1.345 0 1 0 0-2.69 1.345 1.345 0 1 0 0 2.69ZM200.862 152.2a1.105 1.105 0 1 0-.003-2.21 1.105 1.105 0 0 0 .003 2.21ZM207.082 151.941a.846.846 0 1 0-.001-1.691.846.846 0 0 0 .001 1.691ZM213.303 151.682a.589.589 0 0 0 .588-.588.587.587 0 1 0-.588.588ZM219.524 151.422a.328.328 0 1 0 0-.655.328.328 0 0 0 0 .655ZM225.745 151.163a.068.068 0 0 0 .069-.069.067.067 0 0 0-.069-.067.067.067 0 0 0-.069.067c0 .04.031.069.069.069ZM14.238 157.334c.01 0 .017-.009.017-.019 0-.009-.008-.016-.017-.016-.01 0-.018.007-.018.016 0 .01.008.019.018.019ZM20.458 157.522a.206.206 0 1 0 0-.413.206.206 0 1 0 0 .413ZM26.679 157.781a.466.466 0 1 0 0-.931.466.466 0 0 0 0 .931ZM32.9 158.04a.725.725 0 1 0 0-1.45.725.725 0 0 0 0 1.45ZM39.12 158.281a.966.966 0 1 0 .001-1.932.966.966 0 0 0 0 1.932ZM45.342 158.523a1.207 1.207 0 1 0 .002-2.413 1.207 1.207 0 0 0-.002 2.413ZM51.563 158.765a1.45 1.45 0 1 0 0-2.898 1.45 1.45 0 0 0 0 2.898ZM57.783 159.006a1.69 1.69 0 1 0 .001-3.38 1.69 1.69 0 0 0-.001 3.38ZM64.004 159.231a1.915 1.915 0 1 0 0-3.83 1.915 1.915 0 0 0 0 3.83ZM70.225 159.454a2.139 2.139 0 1 0 0-4.277 2.139 2.139 0 0 0 0 4.277ZM76.446 159.679a2.364 2.364 0 1 0 0-4.727 2.364 2.364 0 0 0 0 4.727ZM82.666 159.869a2.554 2.554 0 1 0-.001-5.108 2.554 2.554 0 0 0 .001 5.108ZM88.887 160.059a2.743 2.743 0 1 0 0-5.486 2.743 2.743 0 0 0 0 5.486ZM95.108 160.23a2.915 2.915 0 1 0 0-5.83 2.915 2.915 0 0 0 0 5.83Z" fill="#000"/><path d="M101.329 160.368a3.053 3.053 0 1 0 .001-6.107 3.053 3.053 0 0 0-.001 6.107Z" fill="#000"/><path d="M107.55 160.474a3.158 3.158 0 1 0-.002-6.316 3.158 3.158 0 0 0 .002 6.316Z" fill="#000"/><path d="M113.771 160.541a3.225 3.225 0 1 0 0-6.451 3.226 3.226 0 0 0 0 6.451Z" fill="#000"/><path d="M119.99 160.558a3.244 3.244 0 1 0 .003-6.487 3.244 3.244 0 0 0-.003 6.487Z" fill="#000"/><path d="M126.212 160.541a3.225 3.225 0 1 0 0-6.452 3.225 3.225 0 0 0 0 6.452Z" fill="#000"/><path d="M132.433 160.474a3.157 3.157 0 0 0 0-6.315 3.156 3.156 0 0 0-3.156 3.156 3.157 3.157 0 0 0 3.156 3.159Z" fill="#000"/><path d="M138.654 160.368a3.053 3.053 0 1 0 0-6.106 3.053 3.053 0 0 0 0 6.106ZM144.874 160.23a2.916 2.916 0 1 0 0-5.831 2.916 2.916 0 0 0 0 5.831ZM151.095 160.076a2.76 2.76 0 1 0 .002-5.52 2.76 2.76 0 0 0-.002 5.52ZM157.316 159.903a2.588 2.588 0 1 0 .002-5.176 2.588 2.588 0 0 0-.002 5.176ZM163.537 159.696a2.381 2.381 0 1 0 0-4.762 2.381 2.381 0 0 0 0 4.762ZM169.758 159.471a2.156 2.156 0 1 0 0-4.311 2.156 2.156 0 0 0 0 4.311ZM175.978 159.264a1.95 1.95 0 1 0 0-3.9 1.95 1.95 0 0 0 0 3.9ZM182.199 159.024a1.708 1.708 0 1 0-.001-3.415 1.708 1.708 0 0 0 .001 3.415ZM188.42 158.799a1.484 1.484 0 1 0-.002-2.968 1.484 1.484 0 0 0 .002 2.968ZM194.641 158.557a1.242 1.242 0 1 0 0-2.484 1.242 1.242 0 0 0 0 2.484ZM200.862 158.3a.985.985 0 1 0-.003-1.97.985.985 0 0 0 .003 1.97ZM207.082 158.058a.743.743 0 1 0 0-1.486.743.743 0 0 0 0 1.486ZM213.303 157.799a.483.483 0 1 0 .002-.966.483.483 0 0 0-.002.966ZM219.524 157.557a.242.242 0 1 0 0-.483.242.242 0 0 0 0 .483ZM225.745 157.349a.033.033 0 0 0 .034-.034c0-.017-.015-.035-.034-.035a.037.037 0 0 0-.035.035c0 .021.016.034.035.034ZM20.458 163.657a.12.12 0 1 0 0-.241.12.12 0 0 0 0 .241ZM26.678 163.898a.362.362 0 1 0 .002-.724.362.362 0 0 0-.002.724ZM32.9 164.14a.605.605 0 1 0 0-1.21.605.605 0 0 0 0 1.21ZM39.12 164.382a.846.846 0 1 0-.846-.846c.001.466.38.846.847.846ZM45.342 164.623a1.086 1.086 0 1 0 0-2.173 1.086 1.086 0 0 0 0 2.173ZM51.563 164.847a1.31 1.31 0 1 0 0-2.621 1.31 1.31 0 0 0 0 2.621ZM57.782 165.089a1.552 1.552 0 1 0 .002-3.105 1.552 1.552 0 0 0-.002 3.105ZM64.004 165.296a1.76 1.76 0 1 0 0-3.52 1.76 1.76 0 0 0 0 3.52ZM70.225 165.519a1.982 1.982 0 1 0 0-3.965 1.983 1.983 0 1 0 0 3.965ZM76.446 165.71a2.173 2.173 0 1 0 0-4.347 2.173 2.173 0 0 0 0 4.347ZM82.666 165.899a2.363 2.363 0 1 0 .002-4.726 2.363 2.363 0 0 0-.002 4.726ZM88.887 166.072a2.536 2.536 0 1 0 .001-5.072 2.536 2.536 0 0 0-.001 5.072ZM95.108 166.211a2.675 2.675 0 1 0-.002-5.35 2.675 2.675 0 0 0 .002 5.35ZM101.329 166.349a2.81 2.81 0 1 0 0-5.623 2.81 2.81 0 1 0 0 5.623ZM107.55 166.435a2.898 2.898 0 1 0 0-5.797 2.898 2.898 0 0 0 0 5.797ZM113.771 166.485a2.95 2.95 0 1 0 0-5.898 2.95 2.95 0 0 0 0 5.898Z" fill="#000"/><path d="M119.991 166.522a2.986 2.986 0 0 0 0-5.971 2.985 2.985 0 0 0 0 5.971ZM126.212 166.504a2.968 2.968 0 1 0-.002-5.936 2.968 2.968 0 0 0 .002 5.936ZM132.433 166.435a2.898 2.898 0 1 0 0-5.796 2.898 2.898 0 0 0 0 5.796ZM138.654 166.349a2.81 2.81 0 1 0 0-5.623 2.81 2.81 0 1 0 0 5.623ZM144.874 166.228a2.692 2.692 0 1 0 0-5.385 2.692 2.692 0 0 0 0 5.385ZM151.095 166.089a2.553 2.553 0 1 0 0-5.106 2.553 2.553 0 0 0 0 5.106ZM157.316 165.917a2.381 2.381 0 1 0 0-4.762 2.381 2.381 0 0 0 0 4.762ZM163.537 165.728a2.192 2.192 0 0 0 0-4.382 2.19 2.19 0 0 0 0 4.382ZM169.757 165.538a2.001 2.001 0 1 0 0-4.003 2.001 2.001 0 0 0 0 4.003ZM175.978 165.314a1.778 1.778 0 1 0-.001-3.555 1.778 1.778 0 0 0 .001 3.555ZM182.199 165.106a1.57 1.57 0 1 0 .001-3.14 1.57 1.57 0 0 0-.001 3.14ZM188.42 164.882a1.346 1.346 0 1 0 0-2.692 1.346 1.346 0 0 0 0 2.692ZM194.641 164.64a1.104 1.104 0 1 0 0-2.207 1.104 1.104 0 0 0 0 2.207ZM200.861 164.398a.862.862 0 1 0 .003-1.723.862.862 0 0 0-.003 1.723ZM207.082 164.158a.622.622 0 1 0 .002-1.244.622.622 0 0 0-.002 1.244ZM213.303 163.916a.38.38 0 0 0 0-.759.379.379 0 0 0 0 .759ZM219.524 163.676a.14.14 0 0 0 0-.279.14.14 0 0 0 0 .279ZM20.458 169.793a.037.037 0 0 0 .036-.035c0-.021-.017-.034-.036-.034-.018 0-.034.013-.034.034 0 .017.016.035.034.035ZM26.678 169.998a.24.24 0 1 0 0-.482.24.24 0 1 0 0 .482ZM32.9 170.24a.483.483 0 1 0 0-.966.483.483 0 0 0 0 .966ZM39.12 170.465a.706.706 0 1 0-.707-.707c0 .391.317.707.708.707ZM45.342 170.705a.949.949 0 1 0-.001-1.896.949.949 0 0 0 0 1.896ZM51.562 170.93a1.173 1.173 0 1 0 .002-2.345 1.173 1.173 0 0 0-.002 2.345ZM57.782 171.137a1.38 1.38 0 1 0 .002-2.76 1.38 1.38 0 0 0-.002 2.76ZM64.004 171.344a1.587 1.587 0 1 0 0-3.173 1.587 1.587 0 0 0 0 3.173ZM70.225 171.552a1.794 1.794 0 1 0 0-3.588 1.794 1.794 0 0 0 0 3.588ZM76.446 171.742a1.985 1.985 0 0 0 0-3.968 1.984 1.984 0 0 0 0 3.968ZM82.666 171.913a2.155 2.155 0 1 0 0-4.311 2.155 2.155 0 1 0 0 4.311ZM88.886 172.069a2.311 2.311 0 1 0 .001-4.623 2.311 2.311 0 0 0 0 4.623ZM95.108 172.189a2.431 2.431 0 1 0 0-4.864 2.432 2.432 0 0 0 0 4.864ZM101.329 172.31a2.553 2.553 0 1 0 0-5.107 2.553 2.553 0 0 0 0 5.107ZM107.55 172.397a2.64 2.64 0 1 0-.001-5.28 2.64 2.64 0 0 0 .001 5.28ZM113.77 172.449a2.693 2.693 0 0 0 0-5.383 2.69 2.69 0 1 0 0 5.383ZM119.991 172.466a2.709 2.709 0 1 0 0-5.418 2.709 2.709 0 0 0 0 5.418ZM126.212 172.449a2.693 2.693 0 0 0 0-5.383 2.692 2.692 0 0 0 0 5.383ZM132.433 172.397a2.639 2.639 0 1 0 0-5.278 2.639 2.639 0 0 0 0 5.278ZM138.654 172.31a2.553 2.553 0 1 0 0-5.107 2.553 2.553 0 0 0 0 5.107ZM144.874 172.207a2.45 2.45 0 0 0 0-4.899 2.449 2.449 0 0 0 0 4.899ZM151.095 172.069a2.31 2.31 0 1 0 0-4.622 2.31 2.31 0 0 0 0 4.622ZM157.316 171.913a2.156 2.156 0 1 0 .003-4.311 2.156 2.156 0 0 0-.003 4.311ZM163.537 171.757a2.002 2.002 0 1 0-.001-4 2.002 2.002 0 0 0 .001 4ZM169.758 171.569a1.813 1.813 0 1 0-.001-3.625 1.813 1.813 0 0 0 .001 3.625ZM175.978 171.362a1.606 1.606 0 1 0 0-3.209 1.605 1.605 0 0 0 0 3.209ZM182.199 171.154a1.396 1.396 0 1 0 0-2.794 1.398 1.398 0 1 0 0 2.794ZM188.42 170.949a1.19 1.19 0 1 0 .001-2.381 1.19 1.19 0 0 0-.001 2.381ZM194.641 170.724a.967.967 0 1 0-.001-1.933.967.967 0 0 0 .001 1.933ZM200.862 170.5a.743.743 0 0 0 0-1.485.742.742 0 1 0 0 1.485ZM207.082 170.258a.501.501 0 1 0 0-1.002.501.501 0 0 0 0 1.002ZM213.303 170.016a.259.259 0 1 0 0-.517.257.257 0 0 0-.257.259c0 .142.114.258.257.258ZM219.524 169.808a.05.05 0 0 0 .052-.05.052.052 0 0 0-.052-.052.052.052 0 0 0-.052.052c0 .028.023.05.052.05ZM26.679 176.081a.103.103 0 1 0 .002-.206.103.103 0 0 0-.002.206ZM32.9 176.323a.344.344 0 1 0 0-.689.344.344 0 0 0 0 .689ZM39.121 176.547a.57.57 0 1 0 0-1.139.57.57 0 0 0 0 1.139ZM45.342 176.772a.794.794 0 1 0-.001-1.587.794.794 0 0 0 0 1.587ZM51.562 176.978a1 1 0 1 0 .001-2 1 1 0 0 0 0 2ZM57.782 177.185a1.208 1.208 0 1 0 .002-2.415 1.208 1.208 0 0 0-.002 2.415ZM64.004 177.392a1.414 1.414 0 1 0 .002-2.828 1.414 1.414 0 0 0-.002 2.828ZM70.225 177.583a1.605 1.605 0 1 0-.001-3.21 1.605 1.605 0 0 0 .001 3.21ZM76.446 177.754a1.776 1.776 0 1 0 0-3.553 1.777 1.777 0 0 0 0 3.553ZM82.667 177.909a1.931 1.931 0 1 0 .001-3.862 1.931 1.931 0 0 0-.001 3.862ZM88.887 178.047a2.07 2.07 0 1 0 .002-4.14 2.07 2.07 0 0 0-.002 4.14ZM95.108 178.168a2.19 2.19 0 1 0 0-4.38 2.19 2.19 0 1 0 0 4.38ZM101.329 178.272a2.293 2.293 0 1 0 0-4.588 2.294 2.294 0 1 0 0 4.588ZM107.55 178.341a2.363 2.363 0 1 0-2.364-2.362 2.362 2.362 0 0 0 2.364 2.362ZM113.77 178.393a2.416 2.416 0 1 0 0-4.832 2.416 2.416 0 0 0 0 4.832ZM119.99 178.41a2.43 2.43 0 1 0 0-4.864 2.432 2.432 0 0 0 0 4.864ZM126.212 178.393a2.415 2.415 0 1 0 0-4.83 2.415 2.415 0 0 0 0 4.83ZM132.433 178.358a2.38 2.38 0 1 0 0-4.76 2.38 2.38 0 0 0 0 4.76ZM138.654 178.289a2.31 2.31 0 1 0 0-4.621 2.31 2.31 0 0 0 0 4.621ZM144.875 178.186a2.208 2.208 0 1 0 0-4.417 2.208 2.208 0 0 0 0 4.417ZM151.094 178.065a2.087 2.087 0 1 0 .003-4.173 2.087 2.087 0 0 0-.003 4.173ZM157.316 177.928a1.949 1.949 0 1 0 0-3.9 1.95 1.95 0 0 0 0 3.9ZM163.537 177.754a1.777 1.777 0 1 0-.002-3.552 1.777 1.777 0 0 0 .002 3.552ZM169.757 177.583a1.604 1.604 0 1 0 0-3.208 1.604 1.604 0 0 0 0 3.208ZM175.978 177.41a1.432 1.432 0 1 0 .001-2.865 1.432 1.432 0 0 0-.001 2.865ZM182.199 177.202a1.224 1.224 0 1 0-1.225-1.223c0 .676.549 1.223 1.225 1.223ZM188.42 176.997a1.02 1.02 0 0 0 0-2.038 1.02 1.02 0 0 0 0 2.038ZM194.641 176.789a.811.811 0 1 0-.002-1.622.811.811 0 0 0 .002 1.622ZM200.861 176.565a.587.587 0 1 0 .002-1.174.587.587 0 0 0-.002 1.174ZM207.082 176.34a.362.362 0 1 0 0-.724.364.364 0 0 0-.363.363c0 .199.164.361.363.361ZM213.303 176.115a.137.137 0 1 0 0-.274.137.137 0 1 0 0 .274ZM26.679 182.217c.01 0 .018-.009.018-.019 0-.009-.007-.016-.018-.016-.009 0-.017.007-.017.016 0 .01.008.019.017.019ZM32.9 182.388a.19.19 0 1 0 0-.378.19.19 0 1 0 0 .378ZM39.121 182.613a.414.414 0 1 0 0-.829.414.414 0 0 0 0 .829ZM45.342 182.82a.621.621 0 1 0 0-1.243.621.621 0 0 0 0 1.243ZM51.562 183.027a.828.828 0 1 0 0-1.657.828.828 0 0 0 0 1.657ZM57.783 183.218a1.02 1.02 0 0 0 0-2.038 1.018 1.018 0 0 0 0 2.038ZM64.004 183.406a1.206 1.206 0 1 0 0-2.414 1.207 1.207 0 1 0 0 2.414ZM70.225 183.579a1.38 1.38 0 1 0 0-2.76 1.38 1.38 0 0 0 0 2.76ZM76.446 183.752a1.553 1.553 0 1 0 0-3.106 1.553 1.553 0 0 0 0 3.106ZM82.666 183.907a1.709 1.709 0 1 0 0-3.415 1.709 1.709 0 0 0 0 3.415ZM88.886 184.028a1.83 1.83 0 1 0 0-3.659 1.83 1.83 0 0 0 0 3.659ZM95.108 184.149a1.95 1.95 0 1 0-.002-3.9 1.95 1.95 0 0 0 .002 3.9ZM101.329 184.234a2.035 2.035 0 1 0 0-4.07 2.035 2.035 0 0 0 0 4.07ZM107.55 184.304a2.105 2.105 0 1 0-.002-4.21 2.105 2.105 0 0 0 .002 4.21ZM113.77 184.339a2.14 2.14 0 0 0 0-4.28 2.14 2.14 0 0 0 0 4.28ZM119.991 184.372a2.173 2.173 0 1 0 0-4.347 2.173 2.173 0 0 0 0 4.347ZM126.212 184.355a2.156 2.156 0 1 0 .002-4.312 2.156 2.156 0 0 0-.002 4.312ZM132.433 184.304a2.105 2.105 0 1 0 0-4.21 2.105 2.105 0 0 0 0 4.21ZM138.654 184.234a2.035 2.035 0 1 0 0-4.07 2.035 2.035 0 0 0 0 4.07ZM144.875 184.149a1.95 1.95 0 1 0-.002-3.9 1.95 1.95 0 0 0 .002 3.9ZM151.094 184.045a1.846 1.846 0 1 0 .002-3.692 1.846 1.846 0 0 0-.002 3.692ZM157.316 183.907a1.708 1.708 0 1 0-.003-3.417 1.708 1.708 0 0 0 .003 3.417ZM163.537 183.769a1.57 1.57 0 1 0-.002-3.14 1.57 1.57 0 0 0 .002 3.14ZM169.758 183.596a1.4 1.4 0 0 0 1.398-1.398 1.398 1.398 0 0 0-2.795 0c0 .772.624 1.398 1.397 1.398ZM175.978 183.423a1.225 1.225 0 1 0 0-2.45 1.225 1.225 0 0 0 0 2.45ZM182.199 183.233a1.035 1.035 0 1 0 .001-2.069 1.035 1.035 0 0 0-.001 2.069ZM188.42 183.045a.845.845 0 1 0 0-1.69.845.845 0 0 0 0 1.69ZM194.641 182.837a.638.638 0 1 0-.003-1.277.638.638 0 0 0 .003 1.277ZM200.862 182.63a.432.432 0 1 0 0-.86.432.432 0 0 0 0 .86ZM207.082 182.405a.207.207 0 0 0 .208-.207.207.207 0 0 0-.415 0c0 .116.093.207.207.207ZM213.303 182.233a.034.034 0 0 0 .035-.035c0-.017-.016-.033-.035-.033a.034.034 0 0 0-.034.033c0 .021.015.035.034.035ZM32.9 188.472a.053.053 0 0 0 .052-.053.051.051 0 0 0-.052-.05.05.05 0 0 0-.052.05c0 .029.023.053.052.053ZM39.12 188.661a.24.24 0 1 0 0-.482.24.24 0 1 0 0 .482ZM45.342 188.868a.448.448 0 1 0 0-.896.448.448 0 0 0 0 .896ZM51.563 189.058a.64.64 0 1 0-.003-1.278.64.64 0 0 0 .002 1.278ZM57.783 189.248a.829.829 0 1 0 0-1.658.829.829 0 0 0 0 1.658ZM64.004 189.419a1 1 0 1 0 .001-2 1 1 0 0 0 0 2ZM70.225 189.592a1.172 1.172 0 1 0 0-2.345 1.172 1.172 0 0 0 0 2.345ZM76.446 189.748a1.33 1.33 0 1 0-.002-2.658 1.33 1.33 0 0 0 .002 2.658ZM82.666 189.886a1.467 1.467 0 1 0-.001-2.934 1.467 1.467 0 0 0 .001 2.934ZM88.887 190.007a1.587 1.587 0 1 0 0-3.174 1.587 1.587 0 0 0 0 3.174ZM95.108 190.11a1.69 1.69 0 1 0 .001-3.38 1.69 1.69 0 0 0 0 3.38ZM101.329 190.197a1.778 1.778 0 1 0-.003-3.557 1.778 1.778 0 0 0 .003 3.557ZM107.55 190.266a1.847 1.847 0 1 0-.003-3.693 1.847 1.847 0 0 0 .003 3.693ZM113.77 190.301a1.881 1.881 0 0 0 0-3.762 1.881 1.881 0 0 0 0 3.762ZM119.99 190.318a1.899 1.899 0 1 0 0-3.796c-1.047 0-1.895.85-1.895 1.897 0 1.049.848 1.899 1.895 1.899ZM126.212 190.301a1.882 1.882 0 0 0 0-3.762 1.881 1.881 0 0 0 0 3.762ZM132.433 190.266a1.848 1.848 0 0 0 0-3.693 1.847 1.847 0 0 0 0 3.693ZM138.654 190.197a1.778 1.778 0 0 0 0-3.555 1.778 1.778 0 0 0 0 3.555ZM144.874 190.128a1.71 1.71 0 0 0 0-3.416 1.708 1.708 0 0 0 0 3.416ZM151.095 190.024a1.605 1.605 0 1 0 0-3.21 1.605 1.605 0 0 0 0 3.21ZM157.316 189.903a1.484 1.484 0 1 0-.002-2.968 1.484 1.484 0 0 0 .002 2.968ZM163.537 189.765a1.345 1.345 0 1 0 .002-2.69 1.345 1.345 0 0 0-.002 2.69ZM169.758 189.61a1.19 1.19 0 1 0 0-2.38 1.19 1.19 0 0 0 0 2.38ZM175.978 189.436a1.016 1.016 0 1 0 0-2.033 1.016 1.016 0 1 0 0 2.033ZM182.199 189.266a.846.846 0 1 0-.001-1.691.846.846 0 0 0 .001 1.691ZM188.42 189.075a.656.656 0 1 0-.001-1.311.656.656 0 0 0 .001 1.311ZM194.641 188.885a.466.466 0 1 0 0-.933.466.466 0 0 0 0 .933ZM200.861 188.678a.26.26 0 1 0 .002-.516.26.26 0 0 0-.002.516ZM207.082 188.488a.07.07 0 0 0 .07-.069.07.07 0 0 0-.07-.069.07.07 0 0 0 0 .138ZM39.12 194.71a.07.07 0 0 0 0-.14.07.07 0 0 0 0 .14ZM45.342 194.899a.26.26 0 0 0 .259-.259.26.26 0 0 0-.518 0 .26.26 0 0 0 .259.259ZM51.563 195.089a.449.449 0 1 0-.001-.897.449.449 0 0 0 0 .897ZM57.782 195.262a.62.62 0 1 0 .001-1.241.62.62 0 0 0 0 1.241ZM64.004 195.433a.793.793 0 1 0 .001-1.586.793.793 0 0 0 0 1.586ZM70.225 195.588a.947.947 0 1 0 0-1.895.947.947 0 1 0 0 1.895ZM76.446 195.744a1.104 1.104 0 1 0 0-2.207 1.104 1.104 0 0 0 0 2.207ZM82.666 195.865a1.224 1.224 0 1 0 0-2.449 1.224 1.224 0 0 0 0 2.449ZM88.887 195.986a1.345 1.345 0 1 0 .001-2.69 1.345 1.345 0 0 0-.001 2.69ZM95.108 196.072a1.432 1.432 0 1 0 0-2.864 1.432 1.432 0 0 0 0 2.864ZM101.329 196.159a1.518 1.518 0 1 0 0-3.036 1.518 1.518 0 0 0 0 3.036ZM107.55 196.21a1.57 1.57 0 1 0-.002-3.14 1.57 1.57 0 0 0 .002 3.14ZM113.77 196.245a1.605 1.605 0 1 0 0-3.21 1.605 1.605 0 0 0 0 3.21ZM119.99 196.262a1.621 1.621 0 1 0 .003-3.243 1.621 1.621 0 0 0-.003 3.243ZM126.212 196.245a1.606 1.606 0 1 0-.001-3.211 1.606 1.606 0 0 0 .001 3.211ZM132.433 196.21a1.57 1.57 0 1 0 0-3.139 1.57 1.57 0 0 0 0 3.139ZM138.654 196.159a1.519 1.519 0 1 0-.001-3.037 1.519 1.519 0 0 0 .001 3.037ZM144.874 196.09a1.45 1.45 0 1 0 0-2.9 1.45 1.45 0 0 0 0 2.9ZM151.095 195.986a1.345 1.345 0 1 0 .002-2.69 1.345 1.345 0 0 0-.002 2.69ZM157.316 195.882a1.242 1.242 0 1 0 0-2.484 1.242 1.242 0 0 0 0 2.484ZM163.537 195.744a1.104 1.104 0 1 0 0-2.207 1.104 1.104 0 0 0 0 2.207ZM169.758 195.607a.966.966 0 1 0 0-1.932.966.966 0 0 0 0 1.932ZM175.978 195.452a.812.812 0 1 0 0-1.624.812.812 0 0 0 0 1.624ZM182.199 195.279a.64.64 0 1 0 .002-1.278.64.64 0 0 0-.002 1.278ZM188.42 195.106a.466.466 0 1 0 0-.933.466.466 0 0 0 0 .933ZM194.641 194.916a.276.276 0 1 0 0-.552.276.276 0 0 0 0 .552ZM200.861 194.726a.086.086 0 0 0 .087-.087.085.085 0 0 0-.087-.084.086.086 0 1 0 0 .171ZM45.342 200.931a.07.07 0 0 0 .07-.069.07.07 0 0 0-.139 0 .07.07 0 0 0 .069.069ZM51.562 201.102a.24.24 0 1 0 0-.482.241.241 0 1 0 0 .482ZM57.782 201.275a.414.414 0 1 0 .002-.828.414.414 0 0 0-.002.828ZM64.004 201.431a.57.57 0 1 0-.001-1.14.57.57 0 0 0 .001 1.14ZM70.225 201.586a.725.725 0 1 0 0-1.45.725.725 0 0 0 0 1.45ZM76.446 201.724a.862.862 0 1 0 .001-1.724.862.862 0 0 0-.001 1.724ZM82.666 201.844a.983.983 0 1 0 .002-1.965.983.983 0 0 0-.002 1.965ZM88.887 201.947a1.086 1.086 0 1 0-1.087-1.085c0 .6.487 1.085 1.087 1.085ZM95.108 202.034a1.172 1.172 0 1 0 0-2.345 1.173 1.173 0 1 0 0 2.345ZM101.329 202.103a1.241 1.241 0 1 0 .002-2.482 1.241 1.241 0 0 0-.002 2.482ZM107.55 202.155a1.292 1.292 0 1 0 0-2.587 1.293 1.293 0 1 0 0 2.587ZM113.771 202.189a1.328 1.328 0 1 0 0-2.655 1.328 1.328 0 0 0 0 2.655ZM119.991 202.207a1.346 1.346 0 1 0 0-2.691 1.346 1.346 0 0 0 0 2.691ZM126.212 202.189a1.327 1.327 0 1 0 0-2.656 1.328 1.328 0 0 0 0 2.656ZM132.433 202.172a1.31 1.31 0 1 0 0-2.622 1.311 1.311 0 1 0 0 2.622ZM138.654 202.12a1.258 1.258 0 1 0 0-2.517 1.259 1.259 0 1 0 0 2.517ZM144.874 202.053a1.191 1.191 0 0 0 0-2.381 1.19 1.19 0 0 0 0 2.381ZM151.095 201.965a1.105 1.105 0 1 0 0-2.21 1.105 1.105 0 0 0 0 2.21ZM157.316 201.844a.983.983 0 1 0 0-1.965.983.983 0 0 0 0 1.965ZM163.537 201.724a.863.863 0 1 0-.001-1.725.863.863 0 0 0 .001 1.725ZM169.758 201.604a.743.743 0 0 0 0-1.485.742.742 0 1 0 0 1.485ZM175.978 201.448a.587.587 0 1 0 .002-1.174.587.587 0 0 0-.002 1.174ZM182.199 201.293a.432.432 0 1 0 0-.864.432.432 0 0 0 0 .864ZM188.42 201.12a.259.259 0 1 0 0-.518.259.259 0 0 0 0 .518ZM194.641 200.947a.086.086 0 0 0 .086-.085.086.086 0 0 0-.086-.086.087.087 0 0 0-.087.086c0 .047.04.085.087.085ZM51.562 207.133a.05.05 0 0 0 .052-.05.053.053 0 0 0-.052-.054.054.054 0 0 0-.052.054c0 .028.024.05.052.05ZM57.783 207.273a.19.19 0 1 0 0-.38.19.19 0 0 0 0 .38ZM64.004 207.427a.344.344 0 1 0 0-.689.344.344 0 0 0 0 .689ZM70.225 207.565a.482.482 0 1 0 0-.965.482.482 0 0 0 0 .965ZM76.446 207.703a.62.62 0 1 0 0-1.242.62.62 0 0 0 0 1.242ZM82.666 207.807a.725.725 0 1 0 0-1.449.725.725 0 0 0 0 1.449ZM88.887 207.911a.83.83 0 1 0-.001-1.659.83.83 0 0 0 0 1.659ZM95.108 207.995a.913.913 0 0 0 .915-.912.915.915 0 1 0-1.829 0c0 .505.41.912.914.912ZM101.329 208.066a.983.983 0 1 0 0-1.966.983.983 0 0 0 0 1.966ZM107.55 208.116a1.034 1.034 0 1 0 0-2.068 1.035 1.035 0 1 0 0 2.068ZM113.771 208.151a1.07 1.07 0 1 0 0-2.139 1.07 1.07 0 0 0 0 2.139ZM119.991 208.17a1.086 1.086 0 1 0 0-2.172 1.086 1.086 0 0 0 0 2.172ZM126.212 208.151a1.07 1.07 0 1 0 .001-2.139 1.07 1.07 0 0 0-.001 2.139ZM132.433 208.116a1.034 1.034 0 1 0 .002-2.068 1.034 1.034 0 0 0-.002 2.068ZM138.654 208.066a.984.984 0 1 0-.001-1.967.984.984 0 0 0 .001 1.967ZM144.874 208.014a.932.932 0 1 0 .003-1.86.932.932 0 0 0-.003 1.86ZM151.095 207.926a.846.846 0 1 0-.001-1.689.846.846 0 0 0 .001 1.689ZM157.316 207.824a.742.742 0 1 0-.002-1.484.742.742 0 0 0 .002 1.484ZM163.537 207.703a.62.62 0 0 0 .62-.62.62.62 0 1 0-1.241 0c0 .342.279.62.621.62ZM169.757 207.582a.501.501 0 1 0 .002-1.002.501.501 0 0 0-.002 1.002ZM175.978 207.444a.362.362 0 1 0 0-.724.364.364 0 0 0-.363.363c0 .199.164.361.363.361ZM182.199 207.288a.207.207 0 1 0 0-.413.207.207 0 1 0 0 .413ZM188.42 207.15a.067.067 0 0 0 .069-.067.068.068 0 0 0-.069-.069.068.068 0 0 0-.069.069c0 .038.031.067.069.067ZM57.783 213.321c.01 0 .018-.009.018-.019 0-.009-.007-.016-.018-.016a.016.016 0 0 0-.016.016c0 .01.007.019.016.019ZM64.004 213.425c.067 0 .12-.055.12-.123a.12.12 0 0 0-.12-.121.122.122 0 0 0 0 .244ZM70.225 213.561a.26.26 0 0 0 .26-.259.259.259 0 0 0-.26-.257.259.259 0 0 0-.26.257.26.26 0 0 0 .26.259ZM76.446 213.682a.38.38 0 1 0 0-.76.38.38 0 0 0 0 .76ZM82.666 213.786a.483.483 0 1 0 0-.966.483.483 0 0 0 0 .966ZM88.886 213.872a.57.57 0 1 0 .001-1.138.57.57 0 0 0 0 1.138ZM95.108 213.959a.656.656 0 1 0-.001-1.312.656.656 0 0 0 .001 1.312ZM101.329 214.028a.726.726 0 1 0-.001-1.451.726.726 0 0 0 .001 1.451ZM107.55 214.062a.759.759 0 1 0-.001-1.517.759.759 0 0 0 .001 1.517ZM113.77 214.097a.794.794 0 1 0-.002-1.588.794.794 0 0 0 .002 1.588ZM119.991 214.114a.811.811 0 1 0 0-1.622.811.811 0 0 0 0 1.622ZM126.212 214.097a.794.794 0 1 0 0-1.588.794.794 0 0 0 0 1.588ZM132.433 214.062a.76.76 0 1 0 0-1.519.76.76 0 0 0 0 1.519ZM138.654 214.028a.726.726 0 1 0-.001-1.451.726.726 0 0 0 .001 1.451ZM144.874 213.959a.656.656 0 1 0 0-1.312.656.656 0 0 0 0 1.312ZM151.095 213.89a.588.588 0 1 0 0-1.172.588.588 0 0 0 0 1.172ZM157.316 213.786a.484.484 0 1 0 0-.964.484.484 0 0 0 0 .964ZM163.537 213.682a.38.38 0 1 0 0-.76.38.38 0 0 0 0 .76ZM169.757 213.561a.258.258 0 1 0 0-.516.258.258 0 1 0 0 .516ZM175.978 213.44a.137.137 0 1 0 0-.274.137.137 0 1 0 0 .274ZM182.199 213.337a.034.034 0 0 0 .035-.035c0-.017-.016-.033-.035-.033a.034.034 0 0 0-.034.033c0 .021.015.035.034.035ZM70.225 219.557c.02 0 .034-.013.034-.034 0-.017-.014-.035-.034-.035-.02 0-.034.018-.034.035 0 .021.014.034.034.034ZM76.446 219.644a.12.12 0 0 0 .12-.121.12.12 0 0 0-.12-.119.12.12 0 0 0 0 .24ZM82.667 219.748a.225.225 0 0 0 0-.45.226.226 0 0 0 0 .45ZM88.887 219.834a.31.31 0 0 0 .31-.311.31.31 0 1 0-.31.311ZM95.108 219.92a.396.396 0 1 0 0-.793.396.396 0 0 0 0 .793ZM101.329 219.972a.448.448 0 1 0 .001-.897.448.448 0 0 0-.001.897ZM107.55 220.024a.5.5 0 1 0 0-1.001.5.5 0 0 0 0 1.001ZM113.771 220.041a.517.517 0 1 0 0-1.035.517.517 0 0 0 0 1.035ZM119.99 220.059a.534.534 0 1 0 .003-1.071.534.534 0 0 0-.003 1.071ZM126.212 220.041a.517.517 0 1 0 .001-1.035.517.517 0 0 0-.001 1.035ZM132.433 220.024a.5.5 0 1 0 0-1 .5.5 0 0 0 0 1ZM138.654 219.972a.447.447 0 1 0 0-.897.449.449 0 1 0 0 .897ZM144.874 219.92a.397.397 0 1 0 0-.795.397.397 0 0 0 0 .795ZM151.094 219.851a.328.328 0 1 0 .002-.654.328.328 0 0 0-.002.654ZM157.316 219.765a.242.242 0 1 0 0-.483.242.242 0 0 0 0 .483ZM163.537 219.661a.137.137 0 1 0 0-.275.137.137 0 1 0 0 .275ZM169.758 219.576a.052.052 0 0 0 .051-.053.05.05 0 0 0-.051-.05.051.051 0 0 0-.052.05c0 .029.024.053.052.053ZM82.667 225.761c.01 0 .017-.007.017-.017 0-.009-.008-.016-.017-.016-.01 0-.018.007-.018.016 0 .01.007.017.018.017ZM88.886 225.814a.07.07 0 0 0 .07-.07.07.07 0 0 0-.07-.07.07.07 0 0 0-.068.07c0 .038.03.07.069.07ZM95.108 225.884a.14.14 0 0 0 .138-.14.14.14 0 0 0-.138-.139.14.14 0 0 0 0 .279ZM101.329 225.934a.19.19 0 1 0 0-.38.19.19 0 0 0 0 .38ZM107.55 225.968c.124 0 .225-.1.225-.225a.224.224 0 0 0-.225-.222.223.223 0 1 0 0 .447ZM113.77 225.986a.242.242 0 1 0 0-.483.242.242 0 0 0 0 .483ZM119.991 226.003a.26.26 0 1 0 0-.518.26.26 0 0 0 0 .518ZM126.212 226.003a.258.258 0 1 0 0-.516.258.258 0 0 0 0 .516ZM132.433 225.968a.224.224 0 1 0 0-.447c-.124 0-.225.1-.225.222 0 .125.101.225.225.225ZM138.654 225.934a.19.19 0 0 0 .19-.19.19.19 0 0 0-.38 0c0 .105.085.19.19.19ZM144.874 225.884a.14.14 0 0 0 0-.279.14.14 0 0 0 0 .279ZM151.094 225.814a.07.07 0 0 0 .07-.07.07.07 0 0 0-.07-.07.07.07 0 0 0-.068.07c0 .038.031.07.068.07ZM157.316 225.778a.034.034 0 0 0 .035-.034.035.035 0 0 0-.035-.035.035.035 0 0 0-.035.035c0 .02.016.034.035.034ZM107.55 231.982c.009 0 .017-.007.017-.016 0-.01-.008-.019-.017-.019-.01 0-.018.009-.018.019 0 .009.008.016.018.016ZM113.771 231.982c.009 0 .017-.007.017-.016 0-.01-.008-.019-.017-.019-.01 0-.018.009-.018.019 0 .009.008.016.018.016ZM119.991 232.001a.037.037 0 0 0 .035-.035c0-.021-.016-.034-.035-.034-.019 0-.033.013-.033.034 0 .017.014.035.033.035ZM126.212 231.982c.01 0 .018-.007.018-.016 0-.01-.008-.019-.018-.019-.009 0-.017.009-.017.019 0 .009.008.016.017.016ZM132.433 231.982c.009 0 .017-.007.017-.016 0-.01-.008-.019-.017-.019-.01 0-.017.009-.017.019 0 .009.007.016.017.016Z" fill="#000"/></svg>