<svg width="1152" height="346" fill="none" xmlns="http://www.w3.org/2000/svg"><g clip-path="url(#a)"><mask id="c" style="mask-type:alpha" maskUnits="userSpaceOnUse" x="0" y="-19" width="1152" height="384"><path d="M0-19h1152v384H0V-19Z" fill="url(#b)"/></mask><g mask="url(#c)"><path d="M69 8.428V-19h27.448M69 8.428h27.448M69 8.428v27.429M96.448-19V8.428m0-27.428h27.448M96.448 8.428h27.448m-27.448 0v27.429M123.895-19V8.428m0-27.428h27.448M123.896 8.428h27.448m-27.448 0v27.429M151.344-19V8.428m0-27.428h27.447M151.344 8.428h27.447m-27.447 0v27.429M178.791-19V8.428m0-27.428h27.448M178.791 8.428h27.448m-27.448 0v27.429M206.239-19V8.428m0-27.428h27.447M206.239 8.428h27.447m-27.447 0v27.429M233.686-19V8.428m0-27.428h27.448M233.686 8.428h27.448m-27.448 0v27.429M261.134-19V8.428m0-27.428h27.448M261.134 8.428h27.448m-27.448 0v27.429M288.582-19V8.428m0-27.428h27.448M288.582 8.428h27.448m-27.448 0-.001 27.429M316.03-19V8.428m0-27.428h27.447M316.03 8.428h27.447m-27.447 0-.001 27.429M343.477-19V8.428m0-27.428h27.448M343.477 8.428h27.448m-27.448 0-.001 27.429M370.925-19V8.428m0-27.428h27.447M370.925 8.428h27.447m-27.447 0v27.429M398.372-19V8.428m0-27.428h27.449M398.372 8.428h27.449m-27.449 0v27.429M425.821-19V8.428m0-27.428h27.447M425.821 8.428h27.447m-27.447 0v27.429M453.268-19V8.428m0-27.428h27.448M453.268 8.428h27.448m-27.448 0v27.429M480.716-19V8.428m0-27.428h27.447M480.716 8.428h27.447m-27.447 0v27.429M508.163-19V8.428m0-27.428h27.448M508.163 8.428h27.448m-27.448 0v27.429M535.611-19V8.428m0-27.428h27.447M535.611 8.428h27.447m-27.447 0v27.429M563.058-19V8.428m0-27.428h27.448M563.058 8.428h27.448m-27.448 0v27.429M590.506-19V8.428m0-27.428h27.447M590.506 8.428h27.447m-27.447 0v27.429M617.953-19V8.428m0-27.428h27.448M617.953 8.428h27.448m-27.448 0v27.429M645.401-19V8.428m0-27.428h27.447M645.401 8.428h27.447m-27.447 0v27.429M672.848-19V8.428m0-27.428h27.448M672.848 8.428h27.448m-27.448 0v27.429M700.296-19V8.428m0-27.428h27.448M700.296 8.428h27.448m-27.448 0v27.429M727.744-19V8.428m0-27.428h27.448M727.744 8.428h27.448m-27.448 0v27.429M755.192-19V8.428m0-27.428h27.448M755.192 8.428h27.448m-27.448 0v27.429M782.64-19V8.428m0-27.428h27.448M782.64 8.428h27.448m-27.448 0v27.429M810.088-19V8.428m0-27.428h27.448M810.088 8.428h27.448m-27.448 0v27.429M837.536-19V8.428m0-27.428h27.447M837.536 8.428h27.447m-27.447 0v27.429M864.983-19V8.428m0-27.428h27.447M864.983 8.428h27.447m-27.447 0v27.429M892.43-19V8.428m0-27.428h27.446M892.43 8.428h27.446m-27.446 0v27.429M919.876-19V8.428m0-27.428h27.447M919.876 8.428h27.447m-27.447 0v27.429M947.323-19V8.428m0-27.428h27.446V8.428m-27.446 0h27.446m-27.446 0v27.429m27.446-27.428v27.428M1002.23-19h-27.452V8.428M1002.23-19V8.428m0-27.428h27.44m-27.44 27.428h-27.452m27.452 0h27.44m-27.44 0v27.429M974.778 8.429v27.428M1029.67-19V8.428m0-27.428h27.45m-27.45 27.428h27.45m-27.45 0v27.429M1057.12-19V8.428m0-27.428H1083V8.428m-25.88 0H1083m-25.88 0v27.429M1083 8.429v27.428m-1014 0h27.448m-27.448 0v27.428m27.448-27.428h27.448m-27.448 0v27.428m27.448-27.428h27.448m-27.448 0v27.428m27.448-27.428h27.447m-27.447 0v27.428m27.447-27.428h27.448m-27.448 0v27.428m27.448-27.428h27.447m-27.447 0v27.428m27.447-27.428h27.448m-27.448 0v27.428m27.448-27.428h27.447m-27.447 0v27.428m27.447-27.428h27.448m-27.448 0v27.428m27.448-27.428h27.447m-27.447 0v27.428m27.447-27.428h27.449m-27.449 0v27.428m27.449-27.428h27.447m-27.447 0v27.428m27.447-27.428h27.449m-27.449 0v27.428m27.449-27.428h27.447m-27.447 0v27.428m27.447-27.428h27.448m-27.448 0v27.428m27.448-27.428h27.447m-27.447 0v27.428m27.447-27.428h27.448m-27.448 0v27.428m27.448-27.428h27.447m-27.447 0v27.428m27.447-27.428h27.448m-27.448 0v27.428m27.448-27.428h27.447m-27.447 0v27.428m27.447-27.428h27.448m-27.448 0v27.428m27.448-27.428h27.447m-27.447 0v27.428m27.447-27.428h27.448m-27.448 0v27.428m27.448-27.428h27.448m-27.448 0v27.428m27.448-27.428h27.448m-27.448 0v27.428m27.448-27.428h27.448m-27.448 0v27.428m27.448-27.428h27.448m-27.448 0v27.428m27.448-27.428h27.448m-27.448 0v27.428m27.448-27.428h27.447m-27.447 0v27.428m27.447-27.428h27.447m-27.447 0v27.428m27.447-27.428h27.446m-27.446 0v27.428m27.446-27.428h27.447m-27.447 0v27.428m27.447-27.428h27.446m-27.446 0v27.428m27.446-27.428v27.428m27.461-27.428h-27.452m27.452 0h27.44m-27.44 0v27.428m-27.452-27.428v27.428m54.892-27.428h27.45m-27.45 0v27.428m27.45-27.428H1083m-25.88 0v27.428M1083 35.858v27.428m-1014 0h27.448m-27.448 0v27.429m27.448-27.428h27.448m-27.448 0v27.428m27.448-27.428h27.448m-27.448 0v27.428m27.448-27.428h27.447m-27.447 0v27.428m27.447-27.428h27.448m-27.448 0v27.428m27.448-27.428h27.447m-27.447 0v27.428m27.447-27.428h27.448m-27.448 0v27.428m27.448-27.428h27.447m-27.447 0v27.428m27.447-27.428h27.448m-27.448 0v27.428m27.448-27.428h27.447m-27.447 0v27.428m27.447-27.428h27.449m-27.449 0v27.428m27.449-27.428h27.447m-27.447 0v27.428m27.447-27.428h27.449m-27.449 0v27.428m27.449-27.428h27.447m-27.447 0v27.428m27.447-27.428h27.448m-27.448 0v27.428m27.448-27.428h27.447m-27.447 0v27.428m27.447-27.428h27.448m-27.448 0v27.428m27.448-27.428h27.447m-27.447 0v27.428m27.447-27.428h27.448m-27.448 0v27.428m27.448-27.428h27.447m-27.447 0v27.428m27.447-27.428h27.448m-27.448 0v27.428m27.448-27.428h27.447m-27.447 0v27.428m27.447-27.428h27.448m-27.448 0v27.428m27.448-27.428h27.448m-27.448 0v27.428m27.448-27.428h27.448m-27.448 0v27.428m27.448-27.428h27.448m-27.448 0v27.428m27.448-27.428h27.448m-27.448 0v27.428m27.448-27.428h27.448m-27.448 0v27.428m27.448-27.428h27.447m-27.447 0v27.428m27.447-27.428h27.447m-27.447 0v27.428m27.447-27.428h27.446m-27.446 0v27.428m27.446-27.428h27.447m-27.447 0v27.428m27.447-27.428h27.446m-27.446 0v27.428m27.446-27.428v27.428m27.461-27.428h-27.452m27.452 0h27.44m-27.44 0v27.428m-27.452-27.428v27.428m54.892-27.428h27.45m-27.45 0v27.428m27.45-27.428H1083m-25.88 0v27.428M1083 63.286v27.428m-1014 0h27.448m-27.448 0v27.428m27.448-27.428h27.448m-27.448 0v27.428m27.448-27.428h27.448m-27.448 0v27.428m27.448-27.428h27.447m-27.447 0v27.428m27.447-27.428h27.448m-27.448 0v27.428m27.448-27.428h27.447m-27.447 0v27.428m27.447-27.428h27.448m-27.448 0v27.428m27.448-27.428h27.447m-27.447 0v27.428m27.447-27.428h27.448m-27.448 0v27.428m27.448-27.428h27.447m-27.447 0v27.428m27.447-27.428h27.449m-27.449 0v27.428m27.449-27.428h27.447m-27.447 0v27.428m27.447-27.428h27.449m-27.449 0v27.428m27.449-27.428h27.447m-27.447 0v27.428m27.447-27.428h27.448m-27.448 0v27.428m27.448-27.428h27.447m-27.447 0v27.428m27.447-27.428h27.448m-27.448 0v27.428m27.448-27.428h27.447m-27.447 0v27.428m27.447-27.428h27.448m-27.448 0v27.428m27.448-27.428h27.447m-27.447 0v27.428m27.447-27.428h27.448m-27.448 0v27.428m27.448-27.428h27.447m-27.447 0v27.428m27.447-27.428h27.448m-27.448 0v27.428m27.448-27.428h27.448m-27.448 0v27.428m27.448-27.428h27.448m-27.448 0v27.428m27.448-27.428h27.448m-27.448 0v27.428m27.448-27.428h27.448m-27.448 0v27.428m27.448-27.428h27.448m-27.448 0v27.428m27.448-27.428h27.447m-27.447 0v27.428m27.447-27.428h27.447m-27.447 0v27.428m27.447-27.428h27.446m-27.446 0v27.428m27.446-27.428h27.447m-27.447 0v27.428m27.447-27.428h27.446m-27.446 0v27.428m27.446-27.428v27.428m27.461-27.428h-27.452m27.452 0h27.44m-27.44 0v27.428m-27.452-27.428v27.428m54.892-27.428h27.45m-27.45 0v27.428m27.45-27.428H1083m-25.88 0v27.428M1083 90.714v27.428m-1014 0h27.448m-27.448 0v27.43m27.448-27.43h27.448m-27.448 0v27.43m27.448-27.43h27.448m-27.448 0-27.448.002v27.428m27.448-27.43v27.43m27.448-27.43h27.447m-27.447 0v27.43m27.447-27.43h27.448m-27.448 0v27.43m27.448-27.43h27.447m-27.447 0v27.43m27.447-27.43h27.448m-27.448 0v27.43m27.448-27.43h27.447m-27.447 0v27.43m27.447-27.43h27.448m-27.448 0v27.43m27.448-27.43h27.447m-27.447 0v27.43m27.447-27.43h27.449m-27.449 0v27.43m27.449-27.43h27.447m-27.447 0v27.43m27.447-27.43h27.449m-27.449 0v27.43m27.449-27.43h27.447m-27.447 0v27.43m27.447-27.43h27.448m-27.448 0v27.43m27.448-27.43h27.447m-27.447 0v27.43m27.447-27.43h27.448m-27.448 0v27.43m27.448-27.43h27.447m-27.447 0v27.43m27.447-27.43h27.448m-27.448 0v27.43m27.448-27.43h27.447m-27.447 0v27.43m27.447-27.43h27.448m-27.448 0v27.43m27.448-27.43h27.447m-27.447 0v27.43m27.447-27.43h27.448m-27.448 0v27.43m27.448-27.43h27.448m-27.448 0v27.43m27.448-27.43h27.448m-27.448 0v27.43m27.448-27.43h27.448m-27.448 0v27.43m27.448-27.43h27.448m-27.448 0v27.43m27.448-27.43h27.448m-27.448 0-27.447.002-.001 27.428m27.448-27.43v27.43m27.448-27.43h27.447m-27.447 0v27.43m27.447-27.43h27.447m-27.447 0v27.43m27.447-27.43h27.446m-27.446 0v27.43m27.446-27.43h27.447m-27.447 0v27.43m27.447-27.43h27.446m-27.446 0v27.43m27.446-27.43v27.43m27.461-27.43h-27.452m27.452 0h27.44m-27.44 0v27.43m-27.452-27.43v27.43m54.892-27.43h27.45m-27.45 0v27.43m27.45-27.43H1083m-25.88 0v27.43m25.88-27.43v27.43m-1014 0h27.448m-27.448 0v27.429m27.448-27.429h27.448m-27.448 0v27.429m27.448-27.429h27.448m-27.448 0v27.429m27.448-27.429h27.447m-27.447 0v27.429m27.447-27.429h27.448m-27.448 0v27.429m27.448-27.429h27.447m-27.447 0v27.429m27.447-27.429h27.448m-27.448 0v27.429m27.448-27.429h27.447m-27.447 0v27.429m27.447-27.429h27.448m-27.448 0v27.429m27.448-27.429h27.447m-27.447 0v27.429m27.447-27.429h27.449m-27.449 0v27.429m27.449-27.429h27.447m-27.447 0v27.429m27.447-27.429h27.449m-27.449 0v27.429m27.449-27.429h27.447m-27.447 0v27.429m27.447-27.429h27.448m-27.448 0v27.429m27.448-27.429h27.447m-27.447 0v27.429m27.447-27.429h27.448m-27.448 0v27.429m27.448-27.429h27.447m-27.447 0v27.429m27.447-27.429h27.448m-27.448 0v27.429m27.448-27.429h27.447m-27.447 0v27.429m27.447-27.429h27.448m-27.448 0v27.429m27.448-27.429h27.447m-27.447 0v27.429m27.447-27.429h27.448m-27.448 0v27.429m27.448-27.429h27.448m-27.448 0v27.429m27.448-27.429h27.448m-27.448 0v27.429m27.448-27.429h27.448m-27.448 0v27.429m27.448-27.429h27.448m-27.448 0v27.429m27.448-27.429h27.448m-27.448 0v27.429m27.448-27.429h27.447m-27.447 0v27.429m27.447-27.429h27.447m-27.447 0v27.429m27.447-27.429h27.446m-27.446 0v27.429m27.446-27.429h27.447m-27.447 0v27.429m27.447-27.429h27.446m-27.446 0v27.429m27.446-27.429v27.429m27.461-27.429h-27.452m27.452 0h27.44m-27.44 0v27.429m-27.452-27.429v27.429m54.892-27.429h27.45m-27.45 0v27.429m27.45-27.429H1083m-25.88 0v27.429m25.88-27.429v27.429m-1014 0h27.448m-27.448 0v27.428m27.448-27.428h27.448m-27.448 0v27.428m27.448-27.428h27.448m-27.448 0v27.428m27.448-27.428h27.447m-27.447 0v27.428m27.447-27.428h27.448m-27.448 0v27.428m27.448-27.428h27.447m-27.447 0v27.428m27.447-27.428h27.448m-27.448 0v27.428m27.448-27.428h27.447m-27.447 0v27.428m27.447-27.428h27.448m-27.448 0v27.428m27.448-27.428h27.447m-27.447 0v27.428m27.447-27.428h27.449m-27.449 0v27.428m27.449-27.428h27.447m-27.447 0v27.428m27.447-27.428h27.449m-27.449 0v27.428m27.449-27.428h27.447m-27.447 0v27.428m27.447-27.428h27.448m-27.448 0v27.428m27.448-27.428h27.447m-27.447 0v27.428m27.447-27.428h27.448m-27.448 0v27.428m27.448-27.428h27.447m-27.447 0v27.428m27.447-27.428h27.448m-27.448 0v27.428m27.448-27.428h27.447m-27.447 0v27.428m27.447-27.428h27.448m-27.448 0v27.428m27.448-27.428h27.447m-27.447 0v27.428m27.447-27.428h27.448m-27.448 0v27.428m27.448-27.428h27.448m-27.448 0v27.428m27.448-27.428h27.448m-27.448 0v27.428m27.448-27.428h27.448m-27.448 0v27.428m27.448-27.428h27.448m-27.448 0v27.428m27.448-27.428h27.448m-27.448 0v27.428m27.448-27.428h27.447m-27.447 0v27.428m27.447-27.428h27.447m-27.447 0v27.428m27.447-27.428h27.446m-27.446 0v27.428m27.446-27.428h27.447m-27.447 0v27.428m27.447-27.428h27.446m-27.446 0v27.428m27.446-27.428v27.428m27.461-27.428h-27.452m27.452 0h27.44m-27.44 0v27.428m-27.452-27.428v27.428m54.892-27.428h27.45m-27.45 0v27.428m27.45-27.428H1083m-25.88 0v27.428m25.88-27.428v27.428m-1014 0h27.448m-27.448 0v27.429m27.448-27.429h27.448m-27.448 0v27.429m27.448-27.429h27.448m-27.448 0v27.429m27.448-27.429h27.447m-27.447 0v27.429m27.447-27.429h27.448m-27.448 0v27.429m27.448-27.429h27.447m-27.447 0v27.429m27.447-27.429h27.448m-27.448 0v27.429m27.448-27.429h27.447m-27.447 0v27.429m27.447-27.429h27.448m-27.448 0v27.429m27.448-27.429h27.447m-27.447 0v27.429m27.447-27.429h27.449m-27.449 0v27.429m27.449-27.429h27.447m-27.447 0v27.429m27.447-27.429h27.449m-27.449 0v27.429m27.449-27.429h27.447m-27.447 0v27.429m27.447-27.429h27.448m-27.448 0v27.429m27.448-27.429h27.447m-27.447 0v27.429m27.447-27.429h27.448m-27.448 0v27.429m27.448-27.429h27.447m-27.447 0v27.429m27.447-27.429h27.448m-27.448 0v27.429m27.448-27.429h27.447m-27.447 0v27.429m27.447-27.429h27.448m-27.448 0v27.429m27.448-27.429h27.447m-27.447 0v27.429m27.447-27.429h27.448m-27.448 0v27.429m27.448-27.429h27.448m-27.448 0v27.429m27.448-27.429h27.448m-27.448 0v27.429m27.448-27.429h27.448m-27.448 0v27.429m27.448-27.429h27.448m-27.448 0v27.429m27.448-27.429h27.448m-27.448 0v27.429m27.448-27.429h27.447m-27.447 0v27.429m27.447-27.429h27.447m-27.447 0v27.429m27.447-27.429h27.446m-27.446 0v27.429m27.446-27.429h27.447m-27.447 0v27.429m27.447-27.429h27.446m-27.446 0v27.429m27.446-27.429v27.429m27.461-27.429h-27.452m27.452 0h27.44m-27.44 0v27.429m-27.452-27.429v27.429m54.892-27.429h27.45m-27.45 0v27.429m27.45-27.429H1083m-25.88 0v27.429m25.88-27.429v27.429m-1014 0h27.448m-27.448 0v27.428m27.448-27.428h27.448m-27.448 0v27.428m27.448-27.428h27.448m-27.448 0v27.428m27.448-27.428h27.447m-27.447 0v27.428m27.447-27.428h27.448m-27.448 0v27.428m27.448-27.428h27.447m-27.447 0v27.428m27.447-27.428h27.448m-27.448 0v27.428m27.448-27.428h27.447m-27.447 0v27.428m27.447-27.428h27.448m-27.448 0v27.428m27.448-27.428h27.447m-27.447 0v27.428m27.447-27.428h27.449m-27.449 0v27.428m27.449-27.428h27.447m-27.447 0v27.428m27.447-27.428h27.449m-27.449 0v27.428m27.449-27.428h27.447m-27.447 0v27.428m27.447-27.428h27.448m-27.448 0v27.428m27.448-27.428h27.447m-27.447 0v27.428m27.447-27.428h27.448m-27.448 0v27.428m27.448-27.428h27.447m-27.447 0v27.428m27.447-27.428h27.448m-27.448 0v27.428m27.448-27.428h27.447m-27.447 0v27.428m27.447-27.428h27.448m-27.448 0v27.428m27.448-27.428h27.447m-27.447 0v27.428m27.447-27.428h27.448m-27.448 0v27.428m27.448-27.428h27.448m-27.448 0v27.428m27.448-27.428h27.448m-27.448 0v27.428m27.448-27.428h27.448m-27.448 0v27.428m27.448-27.428h27.448m-27.448 0v27.428m27.448-27.428h27.448m-27.448 0v27.428m27.448-27.428h27.447m-27.447 0v27.428m27.447-27.428h27.447m-27.447 0v27.428m27.447-27.428h27.446m-27.446 0v27.428m27.446-27.428h27.447m-27.447 0v27.428m27.447-27.428h27.446m-27.446 0v27.428m27.446-27.428v27.428m27.461-27.428h-27.452m27.452 0h27.44m-27.44 0v27.428m-27.452-27.428v27.428m54.892-27.428h27.45m-27.45 0v27.428m27.45-27.428H1083m-25.88 0v27.428m25.88-27.428v27.428m-1014 0h27.448m-27.448 0v27.429m27.448-27.429h27.448m-27.448 0v27.429m27.448-27.429h27.448m-27.448 0v27.429m27.448-27.429h27.447m-27.447 0v27.429m27.447-27.429h27.448m-27.448 0v27.429m27.448-27.429h27.447m-27.447 0v27.429m27.447-27.429h27.448m-27.448 0v27.429m27.448-27.429h27.447m-27.447 0v27.429m27.447-27.429h27.448m-27.448 0v27.429m27.448-27.429h27.447m-27.447 0v27.429m27.447-27.429h27.449m-27.449 0v27.429m27.449-27.429h27.447m-27.447 0v27.429m27.447-27.429h27.449m-27.449 0v27.429m27.449-27.429h27.447m-27.447 0v27.429m27.447-27.429h27.448m-27.448 0v27.429m27.448-27.429h27.447m-27.447 0v27.429m27.447-27.429h27.448m-27.448 0v27.429m27.448-27.429h27.447m-27.447 0v27.429m27.447-27.429h27.448m-27.448 0v27.429m27.448-27.429h27.447m-27.447 0v27.429m27.447-27.429h27.448m-27.448 0v27.429m27.448-27.429h27.447m-27.447 0v27.429m27.447-27.429h27.448m-27.448 0v27.429m27.448-27.429h27.448m-27.448 0v27.429m27.448-27.429h27.448m-27.448 0v27.429m27.448-27.429h27.448m-27.448 0v27.429m27.448-27.429h27.448m-27.448 0v27.429m27.448-27.429h27.448m-27.448 0v27.429m27.448-27.429h27.447m-27.447 0v27.429m27.447-27.429h27.447m-27.447 0v27.429m27.447-27.429h27.446m-27.446 0v27.429m27.446-27.429h27.447m-27.447 0v27.429m27.447-27.429h27.446m-27.446 0v27.429m27.446-27.429v27.429m27.461-27.429h-27.452m27.452 0h27.44m-27.44 0v27.429m-27.452-27.429v27.429m54.892-27.429h27.45m-27.45 0v27.429m27.45-27.429H1083m-25.88 0v27.429m25.88-27.429v27.429m-1014 0h27.448m-27.448 0v27.428m27.448-27.428h27.448m-27.448 0v27.428m27.448-27.428h27.448m-27.448 0v27.428m27.448-27.428h27.447m-27.447 0v27.428m27.447-27.428h27.448m-27.448 0v27.428m27.448-27.428h27.447m-27.447 0v27.428m27.447-27.428h27.448m-27.448 0v27.428m27.448-27.428h27.447m-27.447 0v27.428m27.447-27.428h27.448m-27.448 0v27.428m27.448-27.428h27.447m-27.447 0v27.428m27.447-27.428h27.449m-27.449 0v27.428m27.449-27.428h27.447m-27.447 0v27.428m27.447-27.428h27.449m-27.449 0v27.428m27.449-27.428h27.447m-27.447 0v27.428m27.447-27.428h27.448m-27.448 0v27.428m27.448-27.428h27.447m-27.447 0v27.428m27.447-27.428h27.448m-27.448 0v27.428m27.448-27.428h27.447m-27.447 0v27.428m27.447-27.428h27.448m-27.448 0v27.428m27.448-27.428h27.447m-27.447 0v27.428m27.447-27.428h27.448m-27.448 0v27.428m27.448-27.428h27.447m-27.447 0v27.428m27.447-27.428h27.448m-27.448 0v27.428m27.448-27.428h27.448m-27.448 0v27.428m27.448-27.428h27.448m-27.448 0v27.428m27.448-27.428h27.448m-27.448 0v27.428m27.448-27.428h27.448m-27.448 0v27.428m27.448-27.428h27.448m-27.448 0v27.428m27.448-27.428h27.447m-27.447 0v27.428m27.447-27.428h27.447m-27.447 0v27.428m27.447-27.428h27.446m-27.446 0v27.428m27.446-27.428h27.447m-27.447 0v27.428m27.447-27.428h27.446m-27.446 0v27.428m27.446-27.428v27.428m27.461-27.428h-27.452m27.452 0h27.44m-27.44 0v27.428m-27.452-27.428v27.428m54.892-27.428h27.45m-27.45 0v27.428m27.45-27.428H1083m-25.88 0v27.428m25.88-27.428v27.428m-1014 0h27.448m-27.448 0v27.429m27.448-27.429h27.448m-27.448 0v27.429m27.448-27.429h27.448m-27.448 0v27.429m27.448-27.429h27.447m-27.447 0v27.429m27.447-27.429h27.448m-27.448 0v27.429m27.448-27.429h27.447m-27.447 0v27.429m27.447-27.429h27.448m-27.448 0v27.429m27.448-27.429h27.447m-27.447 0v27.429m27.447-27.429h27.448m-27.448 0v27.429m27.448-27.429h27.447m-27.447 0v27.429m27.447-27.429h27.449m-27.449 0v27.429m27.449-27.429h27.447m-27.447 0v27.429m27.447-27.429h27.449m-27.449 0v27.429m27.449-27.429h27.447m-27.447 0v27.429m27.447-27.429h27.448m-27.448 0v27.429m27.448-27.429h27.447m-27.447 0v27.429m27.447-27.429h27.448m-27.448 0v27.429m27.448-27.429h27.447m-27.447 0v27.429m27.447-27.429h27.448m-27.448 0v27.429m27.448-27.429h27.447m-27.447 0v27.429m27.447-27.429h27.448m-27.448 0v27.429m27.448-27.429h27.447m-27.447 0v27.429m27.447-27.429h27.448m-27.448 0v27.429m27.448-27.429h27.448m-27.448 0v27.429m27.448-27.429h27.448m-27.448 0v27.429m27.448-27.429h27.448m-27.448 0v27.429m27.448-27.429h27.448m-27.448 0v27.429m27.448-27.429h27.448m-27.448 0v27.429m27.448-27.429h27.447m-27.447 0v27.429m27.447-27.429h27.447m-27.447 0v27.429m27.447-27.429h27.446m-27.446 0v27.429m27.446-27.429h27.447m-27.447 0v27.429m27.447-27.429h27.446m-27.446 0v27.429m27.446-27.429v27.429m27.461-27.429h-27.452m27.452 0h27.44m-27.44 0v27.429m-27.452-27.429v27.429m54.892-27.429h27.45m-27.45 0v27.429m27.45-27.429H1083m-25.88 0v27.429m25.88-27.429v27.429m-1014 0h27.448m-27.448 0V365h27.448m0-27.428h27.448m-27.448 0V365m27.448-27.428h27.448m-27.448 0V365m27.448-27.428h27.447m-27.447 0V365m27.447-27.428h27.448m-27.448 0V365m27.448-27.428h27.447m-27.447 0V365m27.447-27.428h27.448m-27.448 0V365m27.448-27.428h27.447m-27.447 0V365m27.447-27.428h27.448m-27.448 0V365m27.448-27.428h27.447m-27.447 0V365m27.447-27.428h27.449m-27.449 0V365m27.449-27.428h27.447m-27.447 0V365m27.447-27.428h27.449m-27.449 0V365m27.449-27.428h27.447m-27.447 0V365m27.447-27.428h27.448m-27.448 0V365m27.448-27.428h27.447m-27.447 0V365m27.447-27.428h27.448m-27.448 0V365m27.448-27.428h27.447m-27.447 0V365m27.447-27.428h27.448m-27.448 0V365m27.448-27.428h27.447m-27.447 0V365m27.447-27.428h27.448m-27.448 0V365m27.448-27.428h27.447m-27.447 0V365m27.447-27.428h27.448m-27.448 0V365m27.448-27.428h27.448m-27.448 0V365m27.448-27.428h27.448m-27.448 0V365m27.448-27.428h27.448m-27.448 0V365m27.448-27.428h27.448m-27.448 0V365m27.448-27.428h27.448m-27.448 0V365m27.448-27.428h27.447m-27.447 0V365m27.447-27.428h27.447m-27.447 0V365m27.447-27.428h27.446m-27.446 0V365m27.446-27.428h27.447m-27.447 0V365m27.447-27.428h27.446m-27.446 0V365m27.446-27.428V365h-27.446m54.907-27.428h-27.452m27.452 0h27.44m-27.44 0V365m-27.452-27.428V365h27.452m27.44-27.428h27.45m-27.45 0V365m27.45-27.428H1083m-25.88 0V365m25.88-27.428V365h-25.88m-960.672 0h27.448m0 0h27.448m0 0h27.447m0 0h27.448m0 0h27.447m0 0h27.448m0 0h27.447m0 0h27.448m0 0h27.447m0 0h27.449m0 0h27.447m0 0h27.449m0 0h27.447m0 0h27.448m0 0h27.447m0 0h27.448m0 0h27.447m0 0h27.448m0 0h27.447m0 0h27.448m0 0h27.447m0 0h27.448m0 0h27.448m0 0h27.448m0 0h27.448m0 0h27.448m0 0h27.448m0 0h27.447m0 0h27.447m0 0h27.446m0 0h27.447m54.907 0h27.44m0 0h27.45" stroke="#000"/></g></g><defs><linearGradient id="b" x1="1152" y1="-19" x2="-26.407" y2="248.797" gradientUnits="userSpaceOnUse"><stop stop-color="#D9D9D9" stop-opacity=".09"/><stop offset=".246" stop-color="#fff" stop-opacity=".6"/><stop offset=".498" stop-color="#fff" stop-opacity="0"/><stop offset=".754" stop-color="#fff" stop-opacity=".3"/><stop offset="1" stop-color="#D9D9D9" stop-opacity="0"/></linearGradient><clipPath id="a"><path fill="#fff" d="M0 0h1152v346H0z"/></clipPath></defs></svg>