<svg width="48" height="48" viewBox="0 0 48 48" fill="none" xmlns="http://www.w3.org/2000/svg">
<path opacity="0.48" d="M34.3481 38.3324C32.8525 36.8369 31.8332 34.932 31.4186 32.8579L30.132 25.8482C29.97 25.8078 24.7734 24.7637 24.7734 24.7637L25.7468 29.6332C26.1613 31.7073 27.1806 33.6121 28.6762 35.1077L36.5059 42.9374L37.7295 41.7138L34.3481 38.3324Z" fill="#1C252E"/>
<path d="M17.2109 5.42773H12.0169C11.3073 3.42728 9.3969 1.99023 7.15625 1.99023C4.31309 1.99023 2 4.30333 2 7.14648C2 9.38713 3.43705 11.2975 5.4375 12.0071V17.1152C5.4375 18.0645 6.20698 18.834 7.15625 18.834C8.10552 18.834 8.875 18.0645 8.875 17.1152V12.0071C10.3375 11.4884 11.4982 10.3278 12.0169 8.86523H17.2109C18.1602 8.86523 18.9297 8.09575 18.9297 7.14648C18.9297 6.19722 18.1602 5.42773 17.2109 5.42773ZM7.15625 8.86523C6.20853 8.86523 5.4375 8.0942 5.4375 7.14648C5.4375 6.19877 6.20853 5.42773 7.15625 5.42773C8.10397 5.42773 8.875 6.19877 8.875 7.14648C8.875 8.0942 8.10397 8.86523 7.15625 8.86523ZM30.7031 8.86523H35.9831C36.5018 10.3277 37.6624 11.4884 39.125 12.0071V17.1152C39.125 18.0645 39.8945 18.834 40.8438 18.834C41.793 18.834 42.5625 18.0645 42.5625 17.1152V12.0071C44.563 11.2976 46 9.38713 46 7.14648C46 4.30333 43.6869 1.99023 40.8438 1.99023C38.6031 1.99023 36.6927 3.42728 35.9831 5.42773H30.7031C29.7539 5.42773 28.9844 6.19722 28.9844 7.14648C28.9844 8.09575 29.7539 8.86523 30.7031 8.86523ZM40.8438 5.42773C41.7915 5.42773 42.5625 6.19877 42.5625 7.14648C42.5625 8.0942 41.7915 8.86523 40.8438 8.86523C39.896 8.86523 39.125 8.0942 39.125 7.14648C39.125 6.19877 39.896 5.42773 40.8438 5.42773ZM17.2109 39.1152H12.0169C11.4982 37.6528 10.3376 36.4921 8.875 35.9734V30.7793C8.875 29.83 8.10552 29.0605 7.15625 29.0605C6.20698 29.0605 5.4375 29.83 5.4375 30.7793V35.9734C3.43705 36.6829 2 38.5933 2 40.834C2 43.6771 4.31309 45.9902 7.15625 45.9902C9.3969 45.9902 11.3073 44.5532 12.0169 42.5527H17.2109C18.1602 42.5527 18.9297 41.7833 18.9297 40.834C18.9297 39.8847 18.1602 39.1152 17.2109 39.1152ZM7.15625 42.5527C6.20853 42.5527 5.4375 41.7817 5.4375 40.834C5.4375 39.8863 6.20853 39.1152 7.15625 39.1152C8.10397 39.1152 8.875 39.8863 8.875 40.834C8.875 41.7817 8.10397 42.5527 7.15625 42.5527Z" fill="#1C252E"/>
<path d="M36.3329 27.4511C34.5915 25.7096 32.3946 24.5342 29.9799 24.0515L25.1103 23.0782C24.547 22.9653 23.9645 23.1418 23.5581 23.5482C23.1518 23.9546 22.9755 24.537 23.088 25.1005L24.0614 29.9701C24.5441 32.3849 25.7196 34.5817 27.4609 36.3231L35.2906 44.1527C36.4755 45.3376 38.0509 45.9902 39.7266 45.9902C41.4023 45.9902 42.9777 45.3376 44.1626 44.1527C45.3475 42.9678 46 41.3924 46 39.7168C46 38.0411 45.3475 36.4657 44.1626 35.2808L36.3329 27.4511ZM41.7318 41.7221C41.1963 42.2577 40.484 42.5527 39.7266 42.5527C38.9691 42.5527 38.2569 42.2577 37.7213 41.722L29.8916 33.8924C28.6319 32.6326 27.7814 31.0434 27.4323 29.2964L26.9642 26.9544L29.3062 27.4225C31.0532 27.7716 32.6425 28.622 33.9022 29.8818L41.7319 37.7115C42.2675 38.2471 42.5625 38.9593 42.5625 39.7168C42.5625 40.4742 42.2675 41.1865 41.7318 41.7221Z" fill="#1C252E"/>
<path d="M26.0625 7.14648C26.0625 8.33302 25.1006 9.29492 23.9141 9.29492C22.7275 9.29492 21.7656 8.33302 21.7656 7.14648C21.7656 5.95995 22.7275 4.99805 23.9141 4.99805C25.1006 4.99805 26.0625 5.95995 26.0625 7.14648ZM23.9141 38.6855C22.7275 38.6855 21.7656 39.6474 21.7656 40.834C21.7656 42.0205 22.7275 42.9824 23.9141 42.9824C25.1006 42.9824 26.0625 42.0205 26.0625 40.834C26.0625 39.6474 25.1006 38.6855 23.9141 38.6855ZM40.8438 22.0137C39.6572 22.0137 38.6953 22.9756 38.6953 24.1621C38.6953 25.3486 39.6572 26.3105 40.8438 26.3105C42.0303 26.3105 42.9922 25.3486 42.9922 24.1621C42.9922 22.9756 42.0303 22.0137 40.8438 22.0137ZM7.15625 22.0137C5.96971 22.0137 5.00781 22.9756 5.00781 24.1621C5.00781 25.3486 5.96971 26.3105 7.15625 26.3105C8.34279 26.3105 9.30469 25.3486 9.30469 24.1621C9.30469 22.9756 8.34279 22.0137 7.15625 22.0137Z" fill="#1C252E"/>
</svg>
