<svg width="48" height="48" viewBox="0 0 48 48" fill="none" xmlns="http://www.w3.org/2000/svg">
<path opacity="0.48" d="M9.04688 27.4V13.2992C9.04688 8.55495 12.8835 4.70898 17.6162 4.70898H12.3984C7.6522 4.70898 3.80469 8.55649 3.80469 13.3027V27.3965C3.80469 32.1426 7.6522 35.9902 12.3984 35.9902H17.6162C12.8835 35.9902 9.04688 32.1443 9.04688 27.4Z" fill="#1C252E"/>
<path d="M32.25 44.584H15.75C13.472 44.4995 13.4737 41.2302 15.75 41.1465H32.25C34.528 41.231 34.5263 44.5003 32.25 44.584ZM35.6875 37.709H12.3107C6.62541 37.709 2 33.0837 2 27.3983V13.3027C2 7.61642 6.62619 2.99023 12.3125 2.99023H35.6875C41.3738 2.99023 46 7.61642 46 13.3027V27.3965C46 33.0828 41.3738 37.709 35.6875 37.709ZM12.3125 6.42773C8.52163 6.42773 5.4375 9.51186 5.4375 13.3027V27.3983C5.4375 31.1881 8.52085 34.2715 12.3107 34.2715H35.6875C39.4784 34.2715 42.5625 31.1874 42.5625 27.3965V13.3027C42.5625 9.51186 39.4784 6.42773 35.6875 6.42773H12.3125Z" fill="#1C252E"/>
<path d="M22.1107 29.0297C21.9535 29.0297 21.7937 29.008 21.635 28.9624C20.7227 28.7001 20.1958 27.748 20.4581 26.8357L24.4112 13.0857C24.6735 12.1734 25.6258 11.6469 26.538 11.9088C27.4502 12.1711 27.9772 13.1232 27.7149 14.0355L23.7618 27.7855C23.545 28.539 22.8575 29.0297 22.1107 29.0297ZM32.4224 27.3106C31.978 27.3106 31.5338 27.1393 31.1974 26.7974C30.5316 26.1208 30.5402 25.0326 31.2168 24.3668L34.5819 21.0551C34.9162 20.6941 34.9163 20.2198 34.5791 19.8587L31.2086 16.4961C30.5365 15.8256 30.5353 14.7374 31.2057 14.0654C31.8762 13.3933 32.9645 13.3922 33.6364 14.0625L37.0066 17.4247C38.6751 19.0208 38.6751 21.8961 37.0062 23.4922C37.0036 23.4948 37.0009 23.4975 36.9983 23.5001L33.6281 26.8169C33.2933 27.1462 32.8577 27.3106 32.4224 27.3106ZM15.7504 27.3106C15.3151 27.3106 14.8797 27.1462 14.5449 26.8168L11.1747 23.5C11.172 23.4974 11.1693 23.4948 11.1668 23.4921C9.49776 21.8956 9.49784 19.0207 11.1668 17.4244L14.5365 14.0625C15.2086 13.3921 16.2968 13.3935 16.9672 14.0654C17.6376 14.7374 17.6364 15.8256 16.9644 16.4961L13.5941 19.8583C13.2569 20.2193 13.2562 20.6934 13.591 21.0551L16.956 24.3668C17.6326 25.0326 17.6413 26.1208 16.9754 26.7974C16.6391 27.1392 16.1948 27.3106 15.7504 27.3106Z" fill="#1C252E"/>
</svg>
