<svg width="48" height="48" viewBox="0 0 48 48" fill="none" xmlns="http://www.w3.org/2000/svg">
<path opacity="0.48" d="M17.2978 43.8278L17.0351 44.2607C17.0351 44.2607 5.35059 44.8621 5.35059 37.1297C5.35059 29.2255 15.5845 25.7636 18.7534 24.672C19.4455 24.4336 20.6797 24.0861 22.1858 23.606C22.4107 24.0828 22.6296 24.5622 22.8435 25.0437C18.9084 26.4527 10.5055 29.9674 10.5055 37.1297C10.5055 41.4168 14.097 43.1414 17.2978 43.8278ZM29.1018 43.2164L30.7236 35.8699C31.138 33.7964 32.1571 31.892 33.6523 30.3968L36.6943 27.3547C35.395 27.2366 34.0548 27.6745 33.0602 28.6691L27.81 33.9193C26.3148 35.4145 25.2958 37.3189 24.8813 39.3924L23.9083 44.2607C23.9083 44.2607 28.9938 43.2414 29.1018 43.2164Z" fill="#1C252E"/>
<path d="M44.151 24.0171C42.9664 22.8325 41.3914 22.1802 39.7162 22.1802C38.0409 22.1802 36.4659 22.8325 35.2813 24.0171L26.5945 32.7039C24.8536 34.4449 23.6785 36.6412 23.1959 39.0553L22.2228 43.9236C22.1102 44.4869 22.2866 45.0692 22.6928 45.4755C23.0182 45.8008 23.4567 45.9787 23.9079 45.9787C24.0199 45.9787 24.1326 45.9678 24.2447 45.9453L29.113 44.9723C31.5271 44.4898 33.7233 43.3145 35.4643 41.5736L44.151 32.8868C45.3356 31.7022 45.9881 30.1272 45.9881 28.452C45.9881 26.7767 45.3356 25.2017 44.151 24.0171ZM41.7209 30.4567L33.0341 39.1435C31.7747 40.403 30.1859 41.2533 28.4394 41.6022L26.0979 42.0702L26.5659 39.7288C26.915 37.9823 27.7651 36.3935 29.0246 35.134L37.7114 26.4472C38.2469 25.9117 38.9589 25.6168 39.7162 25.6168C40.4734 25.6168 41.1855 25.9117 41.721 26.4472C42.2564 26.9827 42.5514 27.6947 42.5514 28.452C42.5514 29.2092 42.2565 29.9213 41.7209 30.4567Z" fill="#1C252E"/>
<path d="M20.545 25.9003C20.0436 26.058 19.535 26.2202 19.238 26.3224C16.2283 27.3588 7.06942 30.5125 7.06942 37.1295C7.06942 38.4088 7.4831 39.4248 8.33418 40.2353C10.5699 42.3648 15.3125 42.6242 16.9496 42.5443C17.8983 42.4971 18.7031 43.2278 18.7505 44.1746C18.798 45.1215 18.0708 45.9278 17.1239 45.9766C17.0738 45.9792 16.8341 45.9902 16.452 45.9902C14.549 45.9902 9.11231 45.7143 5.97211 42.7315C4.41997 41.2572 3.63281 39.3724 3.63281 37.1295C3.63281 34.9612 4.28156 32.9196 5.56084 31.0614C6.58237 29.5779 8.01844 28.2018 9.82953 26.9714C12.9445 24.8549 16.5146 23.6256 18.1942 23.0473C18.5351 22.9298 18.9888 22.7872 19.5141 22.622C21.8606 21.8841 25.7878 20.649 29.1565 18.7732C32.8575 16.7124 34.734 14.5238 34.734 12.2682C34.734 9.69399 33.5144 8.06822 32.4911 7.15769C31.3098 6.10617 29.6946 5.42684 28.3764 5.42684C27.4274 5.42684 26.6581 4.65756 26.6581 3.70854C26.6581 2.75952 27.4274 1.99023 28.3764 1.99023C30.554 1.99023 32.9463 2.96219 34.7758 4.59029C36.965 6.5385 38.1707 9.26519 38.1707 12.2681C38.1707 20.3574 25.8194 24.2416 20.545 25.9003Z" fill="#1C252E"/>
<path d="M11.4507 12.6437C7.83201 12.6437 5.62047 11.1071 4.40245 9.81805C2.87573 8.20216 2 5.97532 2 3.70854C2 2.75952 2.76928 1.99023 3.7183 1.99023C4.66732 1.99023 5.43661 2.75952 5.43661 3.70854C5.43661 6.35679 7.31858 9.20711 11.4507 9.20711C14.4195 9.20711 16.2937 7.73315 18.4639 6.02644C19.1366 5.49746 19.832 4.95053 20.5783 4.43658C21.3599 3.89841 22.4298 4.0955 22.9681 4.87707C23.5064 5.65864 23.3092 6.72854 22.5276 7.2668C21.8708 7.71914 21.2478 8.20903 20.5883 8.72779C18.2544 10.5633 15.609 12.6437 11.4507 12.6437Z" fill="#1C252E"/>
</svg>
